<svg xmlns="http://www.w3.org/2000/svg" height="898px" width="508px" version="1.1"><polyline points="32.5,0.0,42.5,20.0,47.5,40.0,55.0,60.0,57.5,80.0,60.0,100.0,80.0,120.0,87.5,140.0,92.5,160.0,90.0,180.0,90.0,190.0,100.0,207.5,120.0,230.0" stroke="black" stroke-width="1" fill="none" />
<polyline points="112.5,267.5,132.5,240.0,152.5,230.0,172.5,222.5,192.5,212.5" stroke="black" stroke-width="1" fill="none" />
<polyline points="240.0,207.5,242.5,187.5" stroke="black" stroke-width="1" fill="none" />
<polyline points="280.0,202.5,260.0,222.5,285.0,237.5,305.0,255.0,325.0,277.5,347.5,250.0" stroke="black" stroke-width="1" fill="none" />
<polyline points="365.0,240.0,365.0,220.0,380.0,220.0" stroke="black" stroke-width="1" fill="none" />
<polyline points="375.0,212.5,395.0,197.5" stroke="black" stroke-width="1" fill="none" />
<polyline points="425.0,200.0,412.5,220.0,400.0,240.0,407.5,225.0,427.5,200.0" stroke="black" stroke-width="1" fill="none" />
<polyline points="435.0,197.5,420.0,217.5,415.0,237.5,407.5,257.5,375.0,280.0,372.5,300.0,382.5,282.5,382.5,290.0,402.5,272.5" stroke="black" stroke-width="1" fill="none" />
<polyline points="402.5,272.5,382.5,292.5" stroke="black" stroke-width="1" fill="none" />
<polyline points="315.0,327.5,322.5,310.0,315.0,330.0,315.0,350.0,315.0,370.0,315.0,390.0,292.5,410.0,302.5,422.5,312.5,422.5,337.5,442.5,345.0,460.0" stroke="black" stroke-width="1" fill="none" />
<polyline points="355.0,492.5,335.0,487.5,315.0,480.0,295.0,495.0" stroke="black" stroke-width="1" fill="none" />
<polyline points="297.5,497.5,300.0,485.0,305.0,490.0,315.0,515.0,307.5,532.5,315.0,557.5,312.5,577.5,310.0,597.5,307.5,617.5,310.0,637.5,307.5,657.5,300.0,677.5,300.0,697.5,290.0,722.5,290.0,742.5,290.0,762.5,292.5,782.5,292.5,802.5,295.0,822.5,297.5,842.5,297.5,865.0,300.0,885.0" stroke="black" stroke-width="1" fill="none" />
<polyline points="355.0,870.0,335.0,877.5,327.5,882.5,325.0,862.5,322.5,842.5,332.5,822.5,305.0,812.5" stroke="black" stroke-width="1" fill="none" />
<polyline points="347.5,810.0,367.5,807.5" stroke="black" stroke-width="1" fill="none" />
<polyline points="372.5,832.5,365.0,852.5,352.5,875.0" stroke="black" stroke-width="1" fill="none" />
<polyline points="287.5,882.5,292.5,862.5,285.0,842.5,282.5,822.5,280.0,802.5,277.5,782.5,277.5,762.5,275.0,742.5,270.0,722.5,275.0,702.5,280.0,682.5,282.5,662.5,287.5,642.5,285.0,650.0" stroke="black" stroke-width="1" fill="none" />
<polyline points="295.0,637.5,295.0,657.5,295.0,677.5,292.5,697.5,295.0,730.0,297.5,750.0,297.5,770.0,302.5,790.0,302.5,810.0,305.0,840.0,325.0,815.0,345.0,832.5,345.0,837.5,370.0,857.5,380.0,832.5,400.0,840.0,422.5,830.0,442.5,817.5,462.5,815.0,480.0,817.5,500.0,832.5" stroke="black" stroke-width="1" fill="none" />
<polyline points="502.5,837.5,475.0,817.5,472.5,805.0,467.5,800.0,472.5,780.0,475.0,760.0,472.5,740.0,480.0,732.5,482.5,712.5,495.0,722.5" stroke="black" stroke-width="1" fill="none" />
<polyline points="492.5,712.5,487.5,732.5,490.0,745.0,500.0,747.5,482.5,762.5,480.0,782.5,495.0,792.5,507.5,812.5" stroke="black" stroke-width="1" fill="none" />
<polyline points="480.0,797.5,480.0,780.0" stroke="black" stroke-width="1" fill="none" />
<polyline points="502.5,805.0,497.5,767.5,487.5,755.0,455.0,745.0" stroke="black" stroke-width="1" fill="none" />
<polyline points="452.5,735.0,452.5,742.5,460.0,762.5" stroke="black" stroke-width="1" fill="none" />
<polyline points="422.5,742.5,417.5,762.5" stroke="black" stroke-width="1" fill="none" />
<polyline points="417.5,740.0,410.0,760.0,400.0,762.5,412.5,767.5,422.5,740.0" stroke="black" stroke-width="1" fill="none" />
<polyline points="395.0,750.0,395.0,770.0" stroke="black" stroke-width="1" fill="none" />
<polyline points="380.0,705.0,380.0,685.0,385.0,665.0,387.5,645.0,395.0,625.0,402.5,605.0,410.0,585.0,417.5,565.0,425.0,545.0,432.5,525.0,440.0,505.0,445.0,485.0,450.0,465.0,455.0,445.0,457.5,425.0,462.5,405.0,470.0,385.0,475.0,365.0,477.5,345.0,472.5,322.5,477.5,302.5,482.5,282.5,487.5,262.5,497.5,242.5,505.0,222.5,505.0,215.0" stroke="black" stroke-width="1" fill="none" />
<polyline points="505.0,187.5,502.5,202.5,495.0,222.5,495.0,255.0,495.0,275.0,490.0,295.0,485.0,315.0,480.0,335.0,470.0,355.0,460.0,375.0,455.0,395.0,447.5,415.0,445.0,435.0,437.5,455.0,445.0,435.0,460.0,375.0" stroke="black" stroke-width="1" fill="none" />
<polyline points="437.5,507.5,417.5,560.0" stroke="black" stroke-width="1" fill="none" />
<polyline points="400.0,532.5,407.5,522.5,400.0,542.5,392.5,562.5,387.5,582.5" stroke="black" stroke-width="1" fill="none" />
<polyline points="367.5,600.0,347.5,632.5,337.5,660.0,342.5,647.5,350.0,627.5,362.5,607.5,380.0,587.5,380.0,567.5,377.5,547.5,377.5,527.5,392.5,517.5,397.5,497.5,407.5,477.5,412.5,457.5,415.0,437.5,417.5,417.5,422.5,397.5,430.0,377.5,435.0,357.5,440.0,337.5,442.5,317.5,447.5,297.5,452.5,277.5,460.0,257.5,465.0,237.5,470.0,217.5,475.0,197.5,482.5,177.5,487.5,157.5,492.5,137.5,500.0,117.5,502.5,97.5,505.0,85.0" stroke="black" stroke-width="1" fill="none" />
<polyline points="492.5,35.0,472.5,72.5,452.5,107.5,432.5,140.0,412.5,162.5,390.0,185.0,370.0,195.0,350.0,212.5,332.5,230.0,312.5,217.5,292.5,207.5,272.5,212.5,252.5,222.5,240.0,220.0,250.0,212.5,265.0,187.5,270.0,167.5,277.5,162.5,270.0,165.0,250.0,165.0,237.5,152.5,237.5,145.0,235.0,152.5,252.5,130.0,250.0,110.0,252.5,90.0,272.5,87.5,250.0,95.0,230.0,110.0" stroke="black" stroke-width="1" fill="none" />
<polyline points="232.5,102.5,232.5,122.5" stroke="black" stroke-width="1" fill="none" />
<polyline points="245.0,127.5,240.0,107.5" stroke="black" stroke-width="1" fill="none" />
<polyline points="240.0,107.5,260.0,115.0" stroke="black" stroke-width="1" fill="none" />
<polyline points="277.5,100.0,262.5,72.5,242.5,80.0" stroke="black" stroke-width="1" fill="none" />
<polyline points="247.5,57.5,280.0,77.5,285.0,97.5,305.0,112.5,290.0,127.5,280.0,147.5,255.0,145.0,245.0,147.5,247.5,157.5,252.5,180.0,235.0,200.0,235.0,207.5,237.5,207.5,257.5,195.0,257.5,167.5,290.0,160.0,307.5,155.0,327.5,132.5,347.5,107.5,370.0,90.0,390.0,67.5,410.0,50.0,430.0,40.0,452.5,15.0" stroke="black" stroke-width="1" fill="none" />
<polyline points="452.5,15.0,435.0,35.0,412.5,47.5,390.0,67.5,372.5,87.5,345.0,95.0,342.5,115.0" stroke="black" stroke-width="1" fill="none" />
<polyline points="337.5,97.5,337.5,117.5,325.0,137.5" stroke="black" stroke-width="1" fill="none" />
<polyline points="340.0,150.0,360.0,145.0,380.0,125.0" stroke="black" stroke-width="1" fill="none" />
<polyline points="405.0,117.5,397.5,137.5,387.5,157.5,375.0,177.5,360.0,197.5,350.0,202.5,352.5,210.0" stroke="black" stroke-width="1" fill="none" />
<polyline points="340.0,200.0,360.0,195.0,380.0,170.0" stroke="black" stroke-width="1" fill="none" />
<polyline points="330.0,172.5,332.5,192.5,335.0,212.5" stroke="black" stroke-width="1" fill="none" />
<polyline points="287.5,205.0,325.0,225.0,352.5,245.0,337.5,265.0,332.5,282.5,335.0,317.5,337.5,337.5,340.0,357.5,340.0,377.5,342.5,397.5,347.5,417.5,342.5,437.5,337.5,452.5,355.0,472.5" stroke="black" stroke-width="1" fill="none" />
<polyline points="350.0,480.0,330.0,475.0,310.0,455.0,285.0,437.5" stroke="black" stroke-width="1" fill="none" />
<polyline points="262.5,467.5,265.0,487.5" stroke="black" stroke-width="1" fill="none" />
<polyline points="237.5,480.0,257.5,482.5,277.5,480.0,297.5,460.0,322.5,470.0,340.0,482.5,337.5,492.5,335.0,522.5" stroke="black" stroke-width="1" fill="none" />
<polyline points="317.5,535.0,322.5,515.0,317.5,502.5" stroke="black" stroke-width="1" fill="none" />
<polyline points="312.5,480.0,312.5,500.0,307.5,520.0,317.5,545.0" stroke="black" stroke-width="1" fill="none" />
<polyline points="360.0,572.5,357.5,592.5,345.0,612.5,337.5,632.5,330.0,652.5" stroke="black" stroke-width="1" fill="none" />
<polyline points="330.0,627.5,322.5,610.0,327.5,630.0,322.5,610.0" stroke="black" stroke-width="1" fill="none" />
<polyline points="377.5,692.5,397.5,702.5" stroke="black" stroke-width="1" fill="none" />
<polyline points="432.5,712.5,420.0,707.5,417.5,687.5,417.5,667.5" stroke="black" stroke-width="1" fill="none" />
<polyline points="417.5,665.0,405.0,685.0,395.0,705.0" stroke="black" stroke-width="1" fill="none" />
<polyline points="317.5,747.5,312.5,767.5,315.0,787.5,317.5,807.5,327.5,812.5,310.0,832.5" stroke="black" stroke-width="1" fill="none" />
<polyline points="315.0,882.5,312.5,862.5,300.0,862.5,287.5,845.0,257.5,857.5,252.5,857.5,260.0,837.5,245.0,817.5,250.0,797.5,242.5,777.5,247.5,757.5,262.5,755.0,260.0,735.0,240.0,770.0" stroke="black" stroke-width="1" fill="none" />
<polyline points="232.5,767.5,252.5,735.0,247.5,742.5,235.0,762.5,230.0,782.5,230.0,802.5,227.5,822.5,227.5,842.5,230.0,862.5,220.0,882.5,245.0,877.5,220.0,897.5,222.5,885.0,242.5,870.0,247.5,880.0,267.5,880.0" stroke="black" stroke-width="1" fill="none" />
<polyline points="270.0,892.5,267.5,887.5,247.5,887.5,255.0,897.5,237.5,870.0,235.0,847.5,250.0,840.0" stroke="black" stroke-width="1" fill="none" />
<polyline points="245.0,840.0,245.0,860.0" stroke="black" stroke-width="1" fill="none" />
<polyline points="235.0,840.0,255.0,830.0,257.5,830.0" stroke="black" stroke-width="1" fill="none" />
<polyline points="262.5,845.0,265.0,835.0,250.0,835.0,255.0,815.0,262.5,805.0,260.0,790.0,257.5,770.0" stroke="black" stroke-width="1" fill="none" />
<polyline points="310.0,752.5,330.0,737.5,340.0,740.0,360.0,732.5,380.0,730.0,400.0,722.5,420.0,720.0,440.0,720.0,460.0,715.0,480.0,710.0,500.0,705.0" stroke="black" stroke-width="1" fill="none" />
<polyline points="445.0,815.0,417.5,835.0,407.5,855.0,407.5,875.0,412.5,895.0" stroke="black" stroke-width="1" fill="none" />
<polyline points="182.5,762.5,162.5,727.5" stroke="black" stroke-width="1" fill="none" />
<polyline points="172.5,707.5,192.5,727.5,202.5,727.5,207.5,752.5" stroke="black" stroke-width="1" fill="none" />
<polyline points="190.0,725.0,170.0,702.5" stroke="black" stroke-width="1" fill="none" />
<polyline points="162.5,682.5,182.5,675.0,202.5,675.0,222.5,675.0" stroke="black" stroke-width="1" fill="none" />
<polyline points="207.5,650.0,187.5,650.0" stroke="black" stroke-width="1" fill="none" />
<polyline points="172.5,675.0,162.5,695.0,160.0,715.0,167.5,735.0,180.0,755.0,182.5,770.0,185.0,767.5,200.0,777.5" stroke="black" stroke-width="1" fill="none" />
<polyline points="160.0,790.0,160.0,810.0,157.5,830.0,145.0,850.0,132.5,870.0,127.5,890.0" stroke="black" stroke-width="1" fill="none" />
<polyline points="117.5,890.0,120.0,870.0,135.0,850.0,147.5,830.0,147.5,810.0,152.5,790.0,147.5,800.0" stroke="black" stroke-width="1" fill="none" />
<polyline points="152.5,837.5,132.5,870.0" stroke="black" stroke-width="1" fill="none" />
<polyline points="130.0,775.0,140.0,755.0,125.0,787.5,122.5,775.0,122.5,760.0,135.0,747.5,115.0,767.5" stroke="black" stroke-width="1" fill="none" />
<polyline points="65.0,775.0,45.0,757.5" stroke="black" stroke-width="1" fill="none" />
<polyline points="47.5,727.5,27.5,707.5" stroke="black" stroke-width="1" fill="none" />
<polyline points="35.0,697.5,55.0,702.5" stroke="black" stroke-width="1" fill="none" />
<polyline points="62.5,667.5,42.5,642.5" stroke="black" stroke-width="1" fill="none" />
<polyline points="37.5,620.0,40.0,640.0,55.0,660.0,70.0,680.0,75.0,700.0,77.5,705.0,77.5,725.0,72.5,745.0,82.5,745.0,87.5,765.0" stroke="black" stroke-width="1" fill="none" />
<polyline points="60.0,800.0,40.0,810.0,30.0,802.5,20.0,817.5,0.0,822.5,40.0,800.0,32.5,792.5" stroke="black" stroke-width="1" fill="none" />
<polyline points="62.5,775.0,37.5,755.0,10.0,745.0" stroke="black" stroke-width="1" fill="none" />
<polyline points="0.0,735.0,20.0,742.5,40.0,750.0,60.0,760.0,80.0,772.5" stroke="black" stroke-width="1" fill="none" />
<polyline points="32.5,722.5,12.5,705.0" stroke="black" stroke-width="1" fill="none" />
<polyline points="10.0,695.0,22.5,715.0,55.0,742.5,75.0,735.0" stroke="black" stroke-width="1" fill="none" />
<polyline points="175.0,677.5,170.0,697.5,172.5,720.0,180.0,740.0,190.0,760.0,202.5,755.0,230.0,722.5" stroke="black" stroke-width="1" fill="none" />
<polyline points="212.5,767.5,215.0,750.0,225.0,730.0,235.0,710.0,232.5,690.0,232.5,665.0,227.5,645.0" stroke="black" stroke-width="1" fill="none" />
<polyline points="160.0,635.0,150.0,645.0,130.0,612.5" stroke="black" stroke-width="1" fill="none" />
<polyline points="130.0,612.5,142.5,632.5" stroke="black" stroke-width="1" fill="none" />
<polyline points="147.5,610.0,152.5,630.0,167.5,632.5,162.5,640.0,185.0,645.0,205.0,645.0" stroke="black" stroke-width="1" fill="none" />
<polyline points="222.5,477.5,227.5,470.0,247.5,470.0,267.5,467.5,280.0,465.0,275.0,485.0" stroke="black" stroke-width="1" fill="none" />
<polyline points="247.5,412.5,267.5,415.0,287.5,412.5,307.5,405.0" stroke="black" stroke-width="1" fill="none" />
<polyline points="147.5,372.5,147.5,392.5,145.0,412.5,145.0,432.5,145.0,452.5,137.5,472.5,122.5,475.0,122.5,475.0,130.0,482.5" stroke="black" stroke-width="1" fill="none" />
<polyline points="130.0,457.5,110.0,475.0,112.5,472.5,132.5,452.5,137.5,432.5,137.5,412.5,140.0,392.5,142.5,372.5" stroke="black" stroke-width="1" fill="none" />
<polyline points="42.5,315.0,40.0,335.0,37.5,355.0,35.0,375.0,30.0,395.0,25.0,415.0,22.5,435.0,20.0,455.0,22.5,475.0,20.0,495.0,20.0,515.0,20.0,535.0,22.5,555.0,42.5,522.5,62.5,495.0" stroke="black" stroke-width="1" fill="none" />
<polyline points="60.0,480.0,62.5,460.0,57.5,437.5,62.5,417.5,62.5,397.5,57.5,377.5,55.0,357.5,55.0,337.5,50.0,317.5,52.5,297.5" stroke="black" stroke-width="1" fill="none" />
<polyline points="37.5,255.0,32.5,275.0,30.0,295.0,25.0,315.0,22.5,335.0" stroke="black" stroke-width="1" fill="none" />
<polyline points="87.5,412.5,77.5,412.5,72.5,392.5,72.5,372.5,72.5,352.5,72.5,332.5,75.0,312.5,75.0,292.5,75.0,272.5,75.0,252.5,75.0,232.5,75.0,212.5" stroke="black" stroke-width="1" fill="none" />
<polyline points="115.0,227.5,97.5,207.5,87.5,187.5,85.0,167.5,82.5,147.5,75.0,127.5,70.0,107.5,72.5,87.5,65.0,67.5,57.5,47.5,52.5,27.5,47.5,7.5,32.5,2.5" stroke="black" stroke-width="1" fill="none" />
<polyline points="87.5,17.5,107.5,20.0,127.5,25.0,157.5,32.5,177.5,40.0,200.0,45.0,222.5,42.5,242.5,42.5,262.5,40.0,282.5,37.5,302.5,35.0,322.5,25.0,342.5,10.0,357.5,15.0,362.5,20.0,382.5,15.0,402.5,2.5" stroke="black" stroke-width="1" fill="none" />
<polyline points="435.0,12.5,415.0,30.0,395.0,47.5,375.0,60.0,355.0,77.5,335.0,92.5,315.0,120.0,315.0,120.0,327.5,100.0,350.0,80.0,375.0,60.0,405.0,40.0,427.5,20.0,447.5,0.0" stroke="black" stroke-width="1" fill="none" />
<polyline points="467.5,0.0,460.0,20.0,447.5,40.0,435.0,60.0,422.5,80.0,412.5,100.0,395.0,120.0,382.5,140.0,392.5,122.5,412.5,100.0,432.5,65.0,452.5,32.5" stroke="black" stroke-width="1" fill="none" />
<polyline points="405.0,57.5,380.0,67.5,357.5,95.0,365.0,102.5" stroke="black" stroke-width="1" fill="none" />
<polyline points="315.0,97.5,292.5,117.5,265.0,122.5,285.0,122.5,305.0,102.5" stroke="black" stroke-width="1" fill="none" />
<polyline points="287.5,140.0,280.0,135.0,275.0,100.0,275.0,70.0,255.0,60.0,235.0,55.0,215.0,60.0,195.0,82.5" stroke="black" stroke-width="1" fill="none" />
<polyline points="222.5,55.0,200.0,75.0,192.5,95.0,192.5,115.0,195.0,135.0,200.0,155.0,205.0,175.0,210.0,195.0,185.0,205.0,182.5,217.5" stroke="black" stroke-width="1" fill="none" />
<polyline points="157.5,215.0,137.5,185.0" stroke="black" stroke-width="1" fill="none" />
<polyline points="157.5,217.5,142.5,197.5,137.5,172.5,117.5,135.0" stroke="black" stroke-width="1" fill="none" />
<polyline points="125.0,132.5,125.0,152.5,132.5,172.5,127.5,192.5,130.0,212.5,145.0,232.5,120.0,252.5,112.5,272.5,107.5,292.5,110.0,312.5,107.5,332.5,102.5,352.5,100.0,372.5,97.5,392.5,87.5,412.5,77.5,432.5,77.5,452.5,75.0,472.5,65.0,492.5,47.5,512.5,37.5,532.5,30.0,552.5,25.0,572.5,30.0,592.5,32.5,612.5,27.5,632.5,30.0,652.5,32.5,672.5,32.5,692.5,30.0,712.5,50.0,732.5,65.0,752.5,70.0,767.5,95.0,785.0,70.0,797.5,90.0,790.0" stroke="black" stroke-width="1" fill="none" />
<polyline points="307.5,297.5,287.5,310.0,285.0,327.5,265.0,345.0,255.0,385.0,252.5,397.5,260.0,375.0,272.5,375.0,255.0,360.0,277.5,350.0,270.0,330.0,275.0,320.0,305.0,300.0,322.5,277.5,305.0,257.5,282.5,237.5" stroke="black" stroke-width="1" fill="none" />
<polyline points="142.5,222.5,135.0,202.5,107.5,192.5,97.5,172.5" stroke="black" stroke-width="1" fill="none" />
<polyline points="127.5,135.0,135.0,155.0,147.5,180.0,155.0,200.0,162.5,210.0" stroke="black" stroke-width="1" fill="none" />
<polyline points="35.0,180.0,35.0,200.0,32.5,220.0,22.5,240.0,22.5,260.0,22.5,280.0" stroke="black" stroke-width="1" fill="none" />
<polyline points="120.0,30.0,100.0,22.5" stroke="black" stroke-width="1" fill="none" />
<polyline points="320.0,27.5,347.5,7.5" stroke="black" stroke-width="1" fill="none" />
<polyline points="505.0,2.5,500.0,22.5,487.5,42.5,482.5,62.5,470.0,82.5,457.5,102.5,450.0,122.5,430.0,142.5,410.0,162.5,410.0,175.0,397.5,195.0,377.5,215.0,372.5,215.0,355.0,220.0,340.0,232.5" stroke="black" stroke-width="1" fill="none" />
</svg>