<svg xmlns="http://www.w3.org/2000/svg" height="284px" width="466px" version="1.1"><polyline points="192.0,56.0,192.0,72.0,192.0,88.0,192.0,104.0,190.0,120.0,190.0,136.0,190.0,152.0,188.0,168.0,188.0,184.0,194.0,186.0,196.0,202.0,194.0,218.0,194.0,234.0,192.0,250.0,186.0,264.0" stroke="black" stroke-width="1" fill="none" />
<polyline points="154.0,280.0,154.0,264.0,154.0,248.0,154.0,232.0" stroke="black" stroke-width="1" fill="none" />
<polyline points="142.0,230.0,146.0,230.0,142.0,236.0,140.0,252.0,140.0,268.0,140.0,284.0" stroke="black" stroke-width="1" fill="none" />
<polyline points="116.0,264.0,100.0,272.0,84.0,256.0" stroke="black" stroke-width="1" fill="none" />
<polyline points="82.0,248.0,98.0,232.0,98.0,232.0,82.0,248.0,86.0,264.0" stroke="black" stroke-width="1" fill="none" />
<polyline points="52.0,238.0,36.0,240.0" stroke="black" stroke-width="1" fill="none" />
<polyline points="20.0,242.0,40.0,246.0,0.0,260.0,16.0,256.0,32.0,250.0,48.0,244.0,64.0,240.0" stroke="black" stroke-width="1" fill="none" />
<polyline points="44.0,186.0,60.0,184.0,76.0,182.0,92.0,180.0,108.0,178.0,124.0,174.0" stroke="black" stroke-width="1" fill="none" />
<polyline points="130.0,202.0,146.0,202.0,162.0,204.0" stroke="black" stroke-width="1" fill="none" />
<polyline points="186.0,216.0,184.0,232.0,184.0,248.0,186.0,264.0,182.0,280.0,200.0,284.0,216.0,276.0,232.0,270.0,248.0,264.0,268.0,276.0,284.0,274.0,300.0,274.0" stroke="black" stroke-width="1" fill="none" />
<polyline points="306.0,256.0,322.0,262.0" stroke="black" stroke-width="1" fill="none" />
<polyline points="318.0,252.0,302.0,252.0" stroke="black" stroke-width="1" fill="none" />
<polyline points="304.0,216.0,288.0,214.0" stroke="black" stroke-width="1" fill="none" />
<polyline points="284.0,210.0,300.0,208.0,316.0,210.0" stroke="black" stroke-width="1" fill="none" />
<polyline points="378.0,184.0,394.0,180.0,402.0,198.0,414.0,194.0" stroke="black" stroke-width="1" fill="none" />
<polyline points="400.0,160.0,384.0,160.0" stroke="black" stroke-width="1" fill="none" />
<polyline points="374.0,166.0,390.0,168.0,402.0,174.0,418.0,162.0,434.0,162.0" stroke="black" stroke-width="1" fill="none" />
<polyline points="396.0,176.0,380.0,172.0" stroke="black" stroke-width="1" fill="none" />
<polyline points="368.0,154.0,384.0,154.0,400.0,148.0" stroke="black" stroke-width="1" fill="none" />
<polyline points="430.0,98.0,446.0,102.0" stroke="black" stroke-width="1" fill="none" />
<polyline points="434.0,80.0,426.0,96.0,426.0,102.0,430.0,118.0,426.0,134.0,422.0,144.0,438.0,160.0,428.0,176.0,436.0,184.0,422.0,186.0,424.0,200.0" stroke="black" stroke-width="1" fill="none" />
<polyline points="434.0,168.0,422.0,170.0,414.0,162.0,408.0,140.0,396.0,138.0,398.0,128.0,396.0,112.0,370.0,90.0" stroke="black" stroke-width="1" fill="none" />
<polyline points="368.0,88.0,368.0,88.0,372.0,104.0,374.0,122.0,374.0,136.0,392.0,132.0,408.0,116.0,410.0,138.0,424.0,130.0,438.0,122.0,436.0,138.0" stroke="black" stroke-width="1" fill="none" />
<polyline points="412.0,82.0,412.0,86.0,406.0,102.0,388.0,106.0,380.0,112.0,386.0,112.0,382.0,138.0,386.0,152.0,376.0,178.0,378.0,194.0,384.0,210.0,388.0,234.0,368.0,246.0,350.0,250.0,360.0,252.0,362.0,240.0,382.0,236.0,388.0,234.0,404.0,230.0,420.0,226.0,428.0,224.0,448.0,242.0,464.0,262.0" stroke="black" stroke-width="1" fill="none" />
<polyline points="462.0,258.0,466.0,274.0" stroke="black" stroke-width="1" fill="none" />
<polyline points="442.0,280.0,426.0,274.0,424.0,274.0,424.0,252.0,428.0,236.0,438.0,220.0,440.0,214.0,436.0,200.0,450.0,184.0,450.0,168.0,448.0,150.0,456.0,134.0,454.0,118.0,452.0,102.0,448.0,86.0,446.0,70.0,444.0,52.0,438.0,42.0,422.0,42.0" stroke="black" stroke-width="1" fill="none" />
<polyline points="358.0,72.0,358.0,72.0,356.0,88.0,360.0,94.0,368.0,110.0,368.0,126.0,366.0,154.0,384.0,160.0,402.0,174.0,402.0,190.0,396.0,206.0,382.0,204.0,398.0,212.0,414.0,210.0,434.0,218.0,440.0,234.0,438.0,250.0,430.0,270.0,444.0,272.0,458.0,268.0,460.0,284.0" stroke="black" stroke-width="1" fill="none" />
<polyline points="446.0,264.0,430.0,262.0,414.0,260.0,398.0,254.0" stroke="black" stroke-width="1" fill="none" />
<polyline points="384.0,254.0,400.0,250.0,416.0,256.0" stroke="black" stroke-width="1" fill="none" />
<polyline points="420.0,264.0,392.0,242.0,376.0,250.0" stroke="black" stroke-width="1" fill="none" />
<polyline points="388.0,266.0,400.0,282.0" stroke="black" stroke-width="1" fill="none" />
<polyline points="388.0,266.0,372.0,270.0,356.0,278.0,340.0,280.0,324.0,270.0,308.0,266.0,292.0,262.0,276.0,260.0,260.0,240.0,244.0,242.0,228.0,236.0" stroke="black" stroke-width="1" fill="none" />
<polyline points="230.0,222.0,228.0,238.0,236.0,222.0,242.0,228.0,258.0,230.0" stroke="black" stroke-width="1" fill="none" />
<polyline points="258.0,202.0,242.0,194.0,226.0,186.0,210.0,178.0,194.0,166.0" stroke="black" stroke-width="1" fill="none" />
<polyline points="194.0,162.0,210.0,156.0,226.0,158.0,242.0,160.0,258.0,164.0,274.0,166.0,290.0,168.0,306.0,172.0" stroke="black" stroke-width="1" fill="none" />
<polyline points="310.0,114.0,326.0,104.0,350.0,92.0,374.0,114.0" stroke="black" stroke-width="1" fill="none" />
<polyline points="352.0,122.0,352.0,106.0,340.0,122.0,342.0,106.0,320.0,102.0,304.0,106.0" stroke="black" stroke-width="1" fill="none" />
<polyline points="294.0,138.0,278.0,134.0,268.0,114.0" stroke="black" stroke-width="1" fill="none" />
<polyline points="266.0,112.0,264.0,130.0,270.0,136.0,294.0,142.0" stroke="black" stroke-width="1" fill="none" />
<polyline points="246.0,102.0,230.0,102.0,214.0,100.0,198.0,110.0" stroke="black" stroke-width="1" fill="none" />
<polyline points="214.0,112.0,214.0,128.0,214.0,144.0,222.0,146.0,228.0,128.0,238.0,132.0,250.0,124.0,268.0,128.0,286.0,132.0" stroke="black" stroke-width="1" fill="none" />
<polyline points="326.0,136.0,310.0,144.0,294.0,146.0,278.0,144.0,266.0,140.0,250.0,146.0,234.0,144.0,230.0,122.0,236.0,116.0" stroke="black" stroke-width="1" fill="none" />
<polyline points="214.0,100.0,208.0,116.0,208.0,132.0,208.0,148.0,204.0,152.0,196.0,172.0,198.0,188.0,200.0,194.0,202.0,210.0,202.0,226.0,200.0,242.0,196.0,258.0,194.0,274.0,192.0,276.0,196.0,254.0" stroke="black" stroke-width="1" fill="none" />
<polyline points="190.0,234.0,190.0,218.0" stroke="black" stroke-width="1" fill="none" />
<polyline points="206.0,192.0,210.0,208.0,212.0,224.0,208.0,240.0,202.0,256.0" stroke="black" stroke-width="1" fill="none" />
<polyline points="248.0,264.0,214.0,280.0,220.0,280.0,236.0,274.0,252.0,268.0" stroke="black" stroke-width="1" fill="none" />
<polyline points="272.0,280.0,288.0,280.0,304.0,280.0,320.0,282.0,328.0,274.0" stroke="black" stroke-width="1" fill="none" />
<polyline points="296.0,228.0,280.0,216.0,264.0,200.0,248.0,190.0,232.0,180.0,216.0,172.0,200.0,164.0" stroke="black" stroke-width="1" fill="none" />
<polyline points="202.0,166.0,234.0,182.0,260.0,198.0,264.0,214.0,264.0,230.0,264.0,248.0" stroke="black" stroke-width="1" fill="none" />
<polyline points="308.0,180.0,292.0,176.0,276.0,172.0,260.0,170.0,244.0,168.0,228.0,164.0,212.0,164.0,196.0,162.0" stroke="black" stroke-width="1" fill="none" />
<polyline points="198.0,170.0,224.0,186.0,254.0,202.0,280.0,218.0,308.0,220.0,320.0,230.0,318.0,226.0,334.0,216.0,350.0,216.0,366.0,216.0,374.0,224.0,390.0,224.0,406.0,222.0,422.0,220.0,438.0,196.0" stroke="black" stroke-width="1" fill="none" />
<polyline points="446.0,240.0,458.0,256.0,452.0,272.0,448.0,282.0" stroke="black" stroke-width="1" fill="none" />
<polyline points="442.0,258.0,442.0,242.0" stroke="black" stroke-width="1" fill="none" />
<polyline points="454.0,146.0,438.0,158.0,426.0,156.0,410.0,146.0,396.0,136.0,384.0,146.0,368.0,146.0,352.0,140.0,358.0,128.0,356.0,112.0,356.0,96.0" stroke="black" stroke-width="1" fill="none" />
<polyline points="346.0,96.0,336.0,98.0,336.0,114.0,336.0,130.0,328.0,126.0,338.0,140.0,344.0,136.0,360.0,126.0,370.0,128.0,394.0,108.0,412.0,94.0,432.0,78.0" stroke="black" stroke-width="1" fill="none" />
<polyline points="152.0,126.0,152.0,142.0,150.0,158.0,150.0,174.0,148.0,190.0,160.0,198.0" stroke="black" stroke-width="1" fill="none" />
<polyline points="158.0,186.0,160.0,170.0" stroke="black" stroke-width="1" fill="none" />
<polyline points="198.0,174.0,188.0,194.0,172.0,194.0,156.0,198.0,140.0,198.0,138.0,190.0,144.0,174.0,146.0,158.0,146.0,142.0,146.0,126.0" stroke="black" stroke-width="1" fill="none" />
<polyline points="118.0,138.0,120.0,154.0,120.0,170.0,118.0,194.0,116.0,210.0,116.0,232.0,114.0,248.0,114.0,264.0,106.0,276.0,106.0,276.0" stroke="black" stroke-width="1" fill="none" />
<polyline points="104.0,184.0,88.0,186.0,72.0,188.0,56.0,190.0,40.0,194.0,24.0,196.0,8.0,200.0" stroke="black" stroke-width="1" fill="none" />
<polyline points="0.0,244.0,16.0,242.0,32.0,236.0,48.0,230.0,64.0,230.0,80.0,228.0,96.0,226.0,112.0,224.0" stroke="black" stroke-width="1" fill="none" />
<polyline points="34.0,274.0,32.0,260.0,16.0,264.0,0.0,270.0" stroke="black" stroke-width="1" fill="none" />
</svg>