<svg xmlns="http://www.w3.org/2000/svg" height="282px" width="510px" version="1.1"><polyline points="412.0,0.0,412.0,16.0,414.0,34.0,420.0,58.0,426.0,78.0,426.0,94.0,432.0,106.0,436.0,122.0,438.0,100.0,458.0,106.0,470.0,124.0,492.0,124.0,508.0,104.0" stroke="black" stroke-width="1" fill="none" />
<polyline points="506.0,96.0,506.0,90.0,508.0,106.0,496.0,122.0,500.0,150.0,500.0,166.0" stroke="black" stroke-width="1" fill="none" />
<polyline points="504.0,164.0,504.0,148.0" stroke="black" stroke-width="1" fill="none" />
<polyline points="506.0,144.0,490.0,146.0,462.0,152.0,446.0,156.0,434.0,152.0,418.0,152.0" stroke="black" stroke-width="1" fill="none" />
<polyline points="414.0,138.0,430.0,136.0,446.0,140.0,462.0,134.0" stroke="black" stroke-width="1" fill="none" />
<polyline points="454.0,144.0,438.0,142.0,422.0,144.0,406.0,148.0,390.0,148.0,374.0,142.0,374.0,136.0,354.0,132.0,346.0,140.0,330.0,136.0,310.0,140.0,306.0,160.0,290.0,148.0" stroke="black" stroke-width="1" fill="none" />
<polyline points="298.0,166.0,282.0,170.0" stroke="black" stroke-width="1" fill="none" />
<polyline points="296.0,192.0,312.0,192.0,328.0,194.0,344.0,196.0,360.0,196.0,376.0,196.0,392.0,196.0,408.0,196.0,424.0,190.0" stroke="black" stroke-width="1" fill="none" />
<polyline points="444.0,174.0,460.0,176.0" stroke="black" stroke-width="1" fill="none" />
<polyline points="472.0,194.0,478.0,210.0,474.0,220.0,470.0,236.0,470.0,258.0,470.0,274.0,480.0,278.0" stroke="black" stroke-width="1" fill="none" />
<polyline points="502.0,246.0,498.0,230.0,510.0,224.0,504.0,208.0,500.0,192.0,484.0,196.0" stroke="black" stroke-width="1" fill="none" />
<polyline points="482.0,196.0,492.0,212.0,502.0,222.0,504.0,234.0" stroke="black" stroke-width="1" fill="none" />
<polyline points="474.0,200.0,490.0,222.0,476.0,238.0,486.0,266.0,488.0,282.0" stroke="black" stroke-width="1" fill="none" />
<polyline points="418.0,222.0,402.0,222.0,386.0,220.0,370.0,212.0,354.0,216.0,338.0,214.0,318.0,212.0,302.0,210.0" stroke="black" stroke-width="1" fill="none" />
<polyline points="256.0,192.0,272.0,190.0,288.0,192.0,304.0,186.0,320.0,186.0,336.0,186.0,352.0,184.0,368.0,184.0" stroke="black" stroke-width="1" fill="none" />
<polyline points="436.0,122.0,452.0,124.0,468.0,120.0,484.0,120.0,502.0,116.0" stroke="black" stroke-width="1" fill="none" />
<polyline points="482.0,90.0,466.0,104.0,450.0,86.0,434.0,82.0,416.0,98.0,400.0,94.0,384.0,90.0" stroke="black" stroke-width="1" fill="none" />
<polyline points="434.0,88.0,450.0,90.0" stroke="black" stroke-width="1" fill="none" />
<polyline points="454.0,94.0,464.0,78.0" stroke="black" stroke-width="1" fill="none" />
<polyline points="478.0,38.0,482.0,54.0,486.0,70.0,488.0,98.0,482.0,102.0,476.0,118.0,480.0,126.0,466.0,134.0,466.0,146.0,478.0,142.0,490.0,140.0,506.0,138.0" stroke="black" stroke-width="1" fill="none" />
<polyline points="480.0,146.0,476.0,162.0,488.0,178.0,504.0,178.0" stroke="black" stroke-width="1" fill="none" />
<polyline points="474.0,278.0,478.0,262.0,482.0,246.0,482.0,230.0,486.0,224.0,462.0,214.0,446.0,220.0,430.0,218.0,414.0,214.0,398.0,212.0,382.0,208.0,366.0,210.0,350.0,208.0,334.0,206.0,318.0,206.0,302.0,204.0,286.0,202.0,270.0,200.0,254.0,198.0" stroke="black" stroke-width="1" fill="none" />
<polyline points="240.0,200.0,246.0,202.0,250.0,218.0" stroke="black" stroke-width="1" fill="none" />
<polyline points="252.0,166.0,242.0,162.0,244.0,146.0,242.0,130.0,242.0,114.0,234.0,108.0,234.0,92.0,234.0,76.0,234.0,60.0,234.0,44.0,234.0,28.0,240.0,26.0,240.0,26.0" stroke="black" stroke-width="1" fill="none" />
<polyline points="250.0,24.0,250.0,40.0,250.0,56.0,240.0,80.0,240.0,96.0,278.0,98.0,306.0,114.0,330.0,136.0,354.0,142.0,380.0,146.0,408.0,156.0,418.0,148.0,434.0,148.0,450.0,148.0,458.0,162.0,470.0,164.0,476.0,168.0,492.0,170.0" stroke="black" stroke-width="1" fill="none" />
<polyline points="506.0,212.0,502.0,196.0,500.0,192.0,484.0,190.0,462.0,208.0,446.0,186.0,430.0,184.0,414.0,184.0,398.0,186.0,382.0,182.0,366.0,172.0,350.0,170.0,334.0,170.0,318.0,166.0,298.0,176.0,282.0,182.0,266.0,186.0,250.0,198.0,242.0,178.0,246.0,162.0,248.0,146.0,248.0,130.0,246.0,114.0,246.0,98.0,240.0,90.0" stroke="black" stroke-width="1" fill="none" />
<polyline points="240.0,84.0,256.0,96.0,272.0,102.0,288.0,112.0,304.0,118.0" stroke="black" stroke-width="1" fill="none" />
<polyline points="278.0,114.0,262.0,104.0" stroke="black" stroke-width="1" fill="none" />
<polyline points="262.0,104.0,274.0,120.0,292.0,136.0,308.0,130.0,324.0,130.0,340.0,128.0,356.0,128.0,372.0,128.0,388.0,126.0,398.0,126.0,408.0,140.0,424.0,132.0,440.0,130.0" stroke="black" stroke-width="1" fill="none" />
<polyline points="350.0,102.0,334.0,100.0,318.0,96.0,302.0,94.0,284.0,88.0,268.0,84.0" stroke="black" stroke-width="1" fill="none" />
<polyline points="266.0,100.0,278.0,116.0,300.0,118.0,288.0,140.0,294.0,156.0,316.0,166.0,332.0,178.0,348.0,178.0" stroke="black" stroke-width="1" fill="none" />
<polyline points="318.0,60.0,334.0,60.0,350.0,58.0,366.0,54.0,382.0,52.0,398.0,44.0,418.0,2.0,436.0,2.0,454.0,12.0" stroke="black" stroke-width="1" fill="none" />
<polyline points="454.0,14.0,456.0,30.0,464.0,46.0" stroke="black" stroke-width="1" fill="none" />
<polyline points="474.0,36.0,458.0,38.0,470.0,18.0" stroke="black" stroke-width="1" fill="none" />
<polyline points="466.0,32.0,450.0,38.0,434.0,38.0,432.0,32.0,416.0,40.0,406.0,34.0,406.0,18.0,404.0,2.0" stroke="black" stroke-width="1" fill="none" />
<polyline points="400.0,2.0,400.0,18.0,394.0,18.0,400.0,38.0,396.0,36.0" stroke="black" stroke-width="1" fill="none" />
<polyline points="388.0,6.0,388.0,22.0,388.0,38.0,380.0,44.0,398.0,52.0,414.0,48.0,430.0,54.0,438.0,44.0,448.0,58.0,464.0,54.0" stroke="black" stroke-width="1" fill="none" />
<polyline points="484.0,76.0,468.0,78.0,460.0,76.0,444.0,78.0,428.0,76.0,410.0,86.0,394.0,84.0,378.0,84.0,362.0,82.0,346.0,82.0,330.0,82.0,314.0,80.0,298.0,74.0,282.0,74.0,266.0,74.0,250.0,72.0,260.0,56.0,258.0,40.0,256.0,24.0" stroke="black" stroke-width="1" fill="none" />
<polyline points="260.0,64.0,276.0,60.0,292.0,62.0,308.0,58.0,314.0,52.0,332.0,52.0" stroke="black" stroke-width="1" fill="none" />
<polyline points="338.0,48.0,322.0,40.0" stroke="black" stroke-width="1" fill="none" />
<polyline points="312.0,42.0,296.0,52.0" stroke="black" stroke-width="1" fill="none" />
<polyline points="244.0,80.0,260.0,88.0,276.0,94.0,292.0,104.0,308.0,114.0" stroke="black" stroke-width="1" fill="none" />
<polyline points="248.0,100.0,252.0,116.0,258.0,132.0,258.0,148.0,254.0,164.0" stroke="black" stroke-width="1" fill="none" />
<polyline points="234.0,132.0,234.0,148.0,234.0,164.0,236.0,180.0,234.0,196.0,236.0,212.0" stroke="black" stroke-width="1" fill="none" />
<polyline points="200.0,200.0,200.0,184.0,194.0,174.0" stroke="black" stroke-width="1" fill="none" />
<polyline points="194.0,146.0,194.0,146.0,194.0,162.0,196.0,178.0,196.0,194.0,196.0,210.0,196.0,226.0" stroke="black" stroke-width="1" fill="none" />
<polyline points="176.0,180.0,160.0,182.0,144.0,168.0" stroke="black" stroke-width="1" fill="none" />
<polyline points="144.0,170.0,144.0,154.0,158.0,148.0,142.0,160.0" stroke="black" stroke-width="1" fill="none" />
<polyline points="174.0,136.0,158.0,142.0,142.0,144.0,126.0,146.0,110.0,146.0,94.0,156.0,78.0,158.0,62.0,160.0,46.0,164.0,30.0,166.0" stroke="black" stroke-width="1" fill="none" />
<polyline points="14.0,206.0,30.0,200.0,46.0,192.0,62.0,186.0,78.0,180.0,94.0,174.0,76.0,180.0,38.0,196.0,20.0,196.0,36.0,188.0,52.0,182.0,68.0,176.0,84.0,170.0,100.0,162.0,116.0,158.0" stroke="black" stroke-width="1" fill="none" />
<polyline points="98.0,156.0,114.0,152.0,126.0,152.0,86.0,168.0,46.0,184.0,12.0,200.0,2.0,204.0,6.0,220.0,6.0,236.0,4.0,252.0,8.0,252.0,4.0,270.0,10.0,276.0,16.0,266.0,32.0,268.0,48.0,258.0,64.0,248.0,80.0,238.0,96.0,228.0,92.0,230.0,66.0,246.0,40.0,262.0,28.0,276.0,44.0,270.0,60.0,262.0,76.0,256.0,92.0,250.0,108.0,244.0" stroke="black" stroke-width="1" fill="none" />
<polyline points="106.0,228.0,108.0,244.0,66.0,260.0,26.0,276.0" stroke="black" stroke-width="1" fill="none" />
<polyline points="60.0,232.0,44.0,240.0,28.0,248.0,18.0,244.0,30.0,246.0,62.0,230.0" stroke="black" stroke-width="1" fill="none" />
<polyline points="38.0,216.0,54.0,212.0,70.0,206.0,86.0,202.0,102.0,198.0" stroke="black" stroke-width="1" fill="none" />
<polyline points="120.0,208.0,104.0,216.0,88.0,224.0,72.0,234.0,56.0,242.0,40.0,252.0,24.0,262.0,8.0,264.0,20.0,264.0,46.0,248.0,74.0,232.0,102.0,216.0,128.0,200.0" stroke="black" stroke-width="1" fill="none" />
<polyline points="116.0,202.0,102.0,206.0,102.0,190.0,100.0,174.0" stroke="black" stroke-width="1" fill="none" />
<polyline points="100.0,112.0,116.0,110.0,132.0,106.0,148.0,104.0,164.0,102.0" stroke="black" stroke-width="1" fill="none" />
<polyline points="166.0,96.0,150.0,98.0,134.0,100.0,118.0,104.0,102.0,106.0,86.0,116.0,70.0,118.0" stroke="black" stroke-width="1" fill="none" />
<polyline points="166.0,56.0,168.0,72.0,168.0,88.0,168.0,112.0,170.0,128.0,170.0,148.0,170.0,164.0,172.0,186.0,162.0,188.0,162.0,188.0" stroke="black" stroke-width="1" fill="none" />
<polyline points="208.0,208.0,208.0,192.0,208.0,176.0,208.0,164.0,206.0,148.0" stroke="black" stroke-width="1" fill="none" />
<polyline points="206.0,104.0,206.0,88.0" stroke="black" stroke-width="1" fill="none" />
<polyline points="238.0,78.0,254.0,78.0,270.0,80.0,286.0,82.0,302.0,84.0,318.0,86.0,334.0,88.0,350.0,90.0,366.0,94.0,382.0,98.0,398.0,104.0" stroke="black" stroke-width="1" fill="none" />
<polyline points="372.0,14.0,360.0,22.0,380.0,6.0" stroke="black" stroke-width="1" fill="none" />
<polyline points="378.0,4.0,362.0,12.0,376.0,4.0" stroke="black" stroke-width="1" fill="none" />
<polyline points="416.0,0.0,424.0,16.0,424.0,32.0,436.0,44.0,434.0,58.0,426.0,58.0,434.0,68.0,450.0,70.0,468.0,60.0,484.0,58.0" stroke="black" stroke-width="1" fill="none" />
<polyline points="450.0,0.0,436.0,8.0,436.0,24.0,444.0,18.0,430.0,26.0,452.0,44.0,466.0,60.0,470.0,68.0,488.0,86.0,470.0,102.0,450.0,118.0,456.0,152.0,440.0,156.0,442.0,172.0,450.0,198.0,458.0,214.0" stroke="black" stroke-width="1" fill="none" />
<polyline points="220.0,120.0,204.0,120.0,196.0,110.0,198.0,94.0,196.0,78.0,196.0,62.0,196.0,46.0" stroke="black" stroke-width="1" fill="none" />
<polyline points="190.0,46.0,192.0,62.0,192.0,78.0,192.0,94.0,186.0,110.0,188.0,116.0,204.0,116.0,220.0,112.0,242.0,100.0" stroke="black" stroke-width="1" fill="none" />
<polyline points="132.0,250.0,110.0,266.0,88.0,282.0,98.0,276.0,114.0,264.0,130.0,252.0" stroke="black" stroke-width="1" fill="none" />
<polyline points="130.0,248.0,114.0,256.0,126.0,248.0" stroke="black" stroke-width="1" fill="none" />
</svg>