<svg xmlns="http://www.w3.org/2000/svg" height="284px" width="482px" version="1.1"><polyline points="338.0,0.0,318.0,16.0,330.0,6.0,352.0,4.0" stroke="black" stroke-width="1" fill="none" />
<polyline points="350.0,4.0,350.0,20.0" stroke="black" stroke-width="1" fill="none" />
<polyline points="346.0,0.0,346.0,16.0,338.0,32.0,338.0,46.0,354.0,44.0,370.0,42.0,386.0,48.0,388.0,40.0,404.0,32.0,416.0,42.0,426.0,32.0,438.0,28.0,448.0,34.0" stroke="black" stroke-width="1" fill="none" />
<polyline points="436.0,38.0,440.0,54.0" stroke="black" stroke-width="1" fill="none" />
<polyline points="436.0,70.0,420.0,70.0,404.0,70.0,388.0,70.0,370.0,80.0,354.0,78.0,338.0,76.0,322.0,74.0,306.0,74.0,290.0,74.0,274.0,72.0,266.0,70.0,250.0,66.0,234.0,66.0,218.0,64.0,202.0,64.0" stroke="black" stroke-width="1" fill="none" />
<polyline points="206.0,68.0,222.0,74.0,238.0,72.0,254.0,76.0,270.0,78.0,286.0,80.0,302.0,82.0,318.0,86.0,334.0,90.0,350.0,94.0,366.0,100.0" stroke="black" stroke-width="1" fill="none" />
<polyline points="356.0,86.0,378.0,104.0,394.0,92.0" stroke="black" stroke-width="1" fill="none" />
<polyline points="400.0,78.0,384.0,74.0" stroke="black" stroke-width="1" fill="none" />
<polyline points="378.0,58.0,394.0,62.0,410.0,62.0" stroke="black" stroke-width="1" fill="none" />
<polyline points="414.0,74.0,394.0,84.0,372.0,94.0,356.0,86.0" stroke="black" stroke-width="1" fill="none" />
<polyline points="350.0,122.0,352.0,112.0,342.0,138.0,366.0,130.0,382.0,134.0,398.0,146.0,414.0,140.0,430.0,138.0,442.0,126.0,458.0,124.0,474.0,124.0,480.0,142.0,480.0,158.0,480.0,174.0,480.0,190.0,482.0,206.0,482.0,222.0,482.0,238.0,482.0,254.0,482.0,270.0" stroke="black" stroke-width="1" fill="none" />
<polyline points="464.0,280.0,464.0,264.0,464.0,248.0,464.0,232.0,460.0,216.0,464.0,206.0,456.0,190.0,438.0,170.0,426.0,154.0,428.0,142.0,438.0,118.0,422.0,120.0,406.0,126.0,390.0,128.0,374.0,128.0" stroke="black" stroke-width="1" fill="none" />
<polyline points="376.0,138.0,392.0,142.0,410.0,146.0" stroke="black" stroke-width="1" fill="none" />
<polyline points="382.0,156.0,390.0,170.0,404.0,186.0,410.0,202.0,428.0,212.0,422.0,228.0,426.0,250.0" stroke="black" stroke-width="1" fill="none" />
<polyline points="440.0,242.0,446.0,258.0,446.0,274.0" stroke="black" stroke-width="1" fill="none" />
<polyline points="430.0,214.0,416.0,198.0,400.0,176.0" stroke="black" stroke-width="1" fill="none" />
<polyline points="424.0,178.0,440.0,182.0,456.0,188.0" stroke="black" stroke-width="1" fill="none" />
<polyline points="454.0,208.0,454.0,224.0,436.0,244.0,436.0,260.0,436.0,276.0" stroke="black" stroke-width="1" fill="none" />
<polyline points="450.0,168.0,434.0,156.0,408.0,158.0,392.0,152.0,388.0,160.0,380.0,144.0,364.0,136.0" stroke="black" stroke-width="1" fill="none" />
<polyline points="350.0,184.0,366.0,182.0,354.0,172.0,326.0,188.0,334.0,206.0" stroke="black" stroke-width="1" fill="none" />
<polyline points="372.0,210.0,356.0,210.0,340.0,208.0,324.0,208.0,308.0,206.0,292.0,204.0,272.0,202.0,256.0,198.0" stroke="black" stroke-width="1" fill="none" />
<polyline points="258.0,182.0,274.0,182.0,290.0,182.0,306.0,176.0,308.0,192.0,318.0,192.0,334.0,184.0,350.0,174.0,366.0,168.0,382.0,168.0,398.0,172.0,400.0,164.0,416.0,164.0,440.0,176.0,456.0,178.0,460.0,198.0,472.0,230.0,472.0,246.0,472.0,262.0" stroke="black" stroke-width="1" fill="none" />
<polyline points="452.0,278.0,454.0,262.0,454.0,246.0,448.0,228.0,448.0,212.0,450.0,196.0,456.0,178.0,458.0,162.0,458.0,146.0,460.0,130.0" stroke="black" stroke-width="1" fill="none" />
<polyline points="454.0,130.0,454.0,146.0,454.0,162.0" stroke="black" stroke-width="1" fill="none" />
<polyline points="460.0,102.0,462.0,86.0,464.0,70.0,460.0,54.0,452.0,64.0,442.0,64.0,426.0,62.0,424.0,58.0,420.0,40.0,410.0,22.0,404.0,6.0,396.0,8.0" stroke="black" stroke-width="1" fill="none" />
<polyline points="384.0,12.0,390.0,28.0" stroke="black" stroke-width="1" fill="none" />
<polyline points="380.0,18.0,372.0,18.0,364.0,34.0,376.0,58.0,384.0,76.0,380.0,90.0,386.0,100.0,390.0,116.0,412.0,98.0,424.0,94.0,448.0,78.0,464.0,76.0,456.0,92.0,454.0,108.0" stroke="black" stroke-width="1" fill="none" />
<polyline points="460.0,114.0,444.0,114.0,432.0,116.0,414.0,114.0,398.0,118.0,394.0,104.0,414.0,96.0,408.0,80.0,406.0,62.0,386.0,54.0,398.0,26.0,400.0,10.0,378.0,2.0" stroke="black" stroke-width="1" fill="none" />
<polyline points="370.0,0.0,362.0,0.0,362.0,16.0,354.0,20.0,344.0,30.0,356.0,26.0,358.0,34.0,374.0,34.0,388.0,16.0,396.0,28.0" stroke="black" stroke-width="1" fill="none" />
<polyline points="418.0,12.0,414.0,28.0,414.0,44.0,406.0,48.0,422.0,46.0,434.0,44.0,442.0,54.0" stroke="black" stroke-width="1" fill="none" />
<polyline points="448.0,78.0,442.0,94.0,436.0,110.0,452.0,120.0,468.0,118.0" stroke="black" stroke-width="1" fill="none" />
<polyline points="390.0,122.0,374.0,124.0,358.0,126.0,342.0,138.0,336.0,134.0,344.0,118.0,352.0,106.0,336.0,104.0,320.0,110.0,304.0,118.0,288.0,122.0" stroke="black" stroke-width="1" fill="none" />
<polyline points="274.0,88.0,290.0,92.0,306.0,94.0,322.0,98.0" stroke="black" stroke-width="1" fill="none" />
<polyline points="302.0,44.0,286.0,40.0,270.0,34.0,272.0,34.0,256.0,44.0" stroke="black" stroke-width="1" fill="none" />
<polyline points="258.0,20.0,234.0,22.0,236.0,38.0,242.0,34.0,258.0,20.0,272.0,12.0,282.0,32.0,298.0,40.0" stroke="black" stroke-width="1" fill="none" />
<polyline points="264.0,102.0,248.0,92.0,232.0,84.0,216.0,78.0,200.0,70.0" stroke="black" stroke-width="1" fill="none" />
<polyline points="198.0,70.0,214.0,86.0,244.0,102.0" stroke="black" stroke-width="1" fill="none" />
<polyline points="264.0,122.0,248.0,132.0,232.0,146.0" stroke="black" stroke-width="1" fill="none" />
<polyline points="212.0,160.0,218.0,144.0,218.0,128.0,216.0,112.0,208.0,96.0,202.0,82.0" stroke="black" stroke-width="1" fill="none" />
<polyline points="198.0,78.0,204.0,94.0,208.0,110.0,210.0,126.0,210.0,142.0,206.0,158.0,202.0,174.0,214.0,190.0,230.0,194.0,246.0,194.0,262.0,194.0,278.0,196.0,294.0,198.0,310.0,198.0,326.0,200.0,342.0,198.0,358.0,202.0,374.0,204.0,390.0,208.0,406.0,208.0,418.0,188.0,436.0,206.0" stroke="black" stroke-width="1" fill="none" />
<polyline points="272.0,178.0,256.0,178.0" stroke="black" stroke-width="1" fill="none" />
<polyline points="278.0,174.0,268.0,158.0" stroke="black" stroke-width="1" fill="none" />
<polyline points="204.0,194.0,214.0,200.0,206.0,216.0" stroke="black" stroke-width="1" fill="none" />
<polyline points="156.0,216.0,154.0,200.0,154.0,184.0,154.0,168.0,154.0,152.0,156.0,136.0,152.0,138.0" stroke="black" stroke-width="1" fill="none" />
<polyline points="158.0,140.0,158.0,156.0,168.0,178.0,168.0,194.0,160.0,214.0" stroke="black" stroke-width="1" fill="none" />
<polyline points="130.0,174.0,114.0,176.0,98.0,160.0" stroke="black" stroke-width="1" fill="none" />
<polyline points="96.0,154.0,112.0,140.0,102.0,144.0,96.0,160.0,110.0,176.0" stroke="black" stroke-width="1" fill="none" />
<polyline points="84.0,196.0,54.0,212.0,26.0,228.0,0.0,242.0,16.0,234.0,32.0,224.0,48.0,216.0,64.0,208.0,80.0,198.0" stroke="black" stroke-width="1" fill="none" />
<polyline points="80.0,194.0,64.0,200.0,48.0,198.0,32.0,204.0,16.0,208.0,0.0,212.0" stroke="black" stroke-width="1" fill="none" />
<polyline points="0.0,208.0,16.0,204.0,32.0,198.0,48.0,194.0" stroke="black" stroke-width="1" fill="none" />
<polyline points="54.0,184.0,52.0,168.0" stroke="black" stroke-width="1" fill="none" />
<polyline points="46.0,166.0,8.0,182.0,10.0,182.0,26.0,174.0,42.0,168.0" stroke="black" stroke-width="1" fill="none" />
<polyline points="40.0,148.0,46.0,158.0,6.0,174.0,12.0,172.0,28.0,166.0,44.0,160.0,60.0,152.0,76.0,148.0" stroke="black" stroke-width="1" fill="none" />
<polyline points="68.0,144.0,52.0,150.0" stroke="black" stroke-width="1" fill="none" />
<polyline points="50.0,104.0,66.0,100.0,82.0,98.0,98.0,94.0,114.0,92.0" stroke="black" stroke-width="1" fill="none" />
<polyline points="130.0,84.0,114.0,88.0,98.0,90.0,82.0,92.0,66.0,94.0,50.0,98.0,34.0,106.0,18.0,110.0" stroke="black" stroke-width="1" fill="none" />
<polyline points="0.0,156.0,16.0,154.0,32.0,150.0,48.0,144.0,64.0,138.0,80.0,138.0,96.0,136.0,112.0,134.0,128.0,126.0" stroke="black" stroke-width="1" fill="none" />
<polyline points="166.0,140.0,166.0,156.0,160.0,178.0,160.0,194.0" stroke="black" stroke-width="1" fill="none" />
<polyline points="194.0,158.0,194.0,142.0,194.0,126.0,198.0,126.0" stroke="black" stroke-width="1" fill="none" />
<polyline points="198.0,78.0,214.0,84.0,230.0,92.0,246.0,102.0,262.0,108.0,278.0,110.0,294.0,110.0,312.0,110.0" stroke="black" stroke-width="1" fill="none" />
<polyline points="346.0,94.0,322.0,92.0,306.0,90.0,290.0,86.0,274.0,84.0,258.0,84.0,242.0,80.0,226.0,74.0,202.0,60.0,210.0,48.0,210.0,32.0,210.0,16.0,198.0,14.0" stroke="black" stroke-width="1" fill="none" />
<polyline points="192.0,4.0,192.0,20.0,192.0,36.0,192.0,52.0,192.0,68.0,194.0,84.0,194.0,100.0,202.0,102.0,202.0,118.0,202.0,134.0,202.0,150.0,198.0,166.0,194.0,182.0,196.0,198.0,202.0,214.0,212.0,208.0" stroke="black" stroke-width="1" fill="none" />
<polyline points="88.0,246.0,66.0,262.0,44.0,278.0,44.0,278.0,60.0,266.0,76.0,254.0" stroke="black" stroke-width="1" fill="none" />
<polyline points="74.0,248.0,62.0,252.0,80.0,244.0" stroke="black" stroke-width="1" fill="none" />
<polyline points="62.0,240.0,46.0,246.0,30.0,252.0,14.0,260.0,2.0,270.0,26.0,254.0,64.0,238.0,58.0,222.0" stroke="black" stroke-width="1" fill="none" />
<polyline points="54.0,220.0,28.0,236.0,2.0,252.0,12.0,246.0,28.0,236.0,44.0,228.0" stroke="black" stroke-width="1" fill="none" />
<polyline points="64.0,276.0,48.0,284.0" stroke="black" stroke-width="1" fill="none" />
<polyline points="48.0,250.0,32.0,256.0,16.0,264.0,0.0,270.0" stroke="black" stroke-width="1" fill="none" />
<polyline points="188.0,102.0,172.0,102.0,164.0,94.0,164.0,78.0" stroke="black" stroke-width="1" fill="none" />
<polyline points="176.0,108.0,160.0,108.0,156.0,94.0,154.0,78.0,154.0,62.0,154.0,46.0" stroke="black" stroke-width="1" fill="none" />
<polyline points="148.0,34.0,148.0,50.0,150.0,66.0,150.0,82.0,144.0,98.0,148.0,106.0,154.0,112.0,170.0,112.0" stroke="black" stroke-width="1" fill="none" />
<polyline points="210.0,76.0,244.0,92.0,270.0,108.0,264.0,124.0,256.0,140.0,234.0,144.0,236.0,160.0,244.0,164.0,260.0,166.0,276.0,172.0,292.0,174.0" stroke="black" stroke-width="1" fill="none" />
<polyline points="118.0,188.0,116.0,184.0,118.0,190.0,134.0,172.0,128.0,156.0,126.0,140.0,126.0,118.0,126.0,102.0,124.0,78.0,124.0,62.0,120.0,46.0" stroke="black" stroke-width="1" fill="none" />
<polyline points="216.0,14.0,218.0,30.0,220.0,46.0,218.0,50.0,222.0,54.0,238.0,50.0,254.0,52.0,270.0,50.0,280.0,50.0,296.0,52.0,312.0,50.0,328.0,46.0" stroke="black" stroke-width="1" fill="none" />
<polyline points="442.0,0.0,444.0,16.0,450.0,38.0,450.0,56.0,438.0,66.0,438.0,82.0,432.0,96.0,428.0,112.0,408.0,132.0,406.0,146.0,436.0,160.0,424.0,178.0,426.0,194.0,436.0,210.0,430.0,216.0,428.0,222.0,422.0,236.0,420.0,252.0,426.0,262.0" stroke="black" stroke-width="1" fill="none" />
<polyline points="478.0,242.0,476.0,226.0,472.0,210.0,474.0,194.0,472.0,180.0,472.0,164.0,472.0,148.0,474.0,132.0,476.0,112.0,476.0,96.0,474.0,80.0,474.0,64.0,474.0,48.0,474.0,32.0,474.0,16.0,472.0,0.0" stroke="black" stroke-width="1" fill="none" />
</svg>