<svg xmlns="http://www.w3.org/2000/svg" height="671px" width="500px" version="1.1"><polyline points="135.0,0.0,126.0,36.0,121.5,72.0,117.0,108.0,112.5,144.0,103.5,180.0,103.5,216.0,94.5,252.0,90.0,288.0,81.0,324.0,72.0,360.0,58.5,396.0,45.0,432.0,45.0,468.0,94.5,495.0" stroke="black" stroke-width="1" fill="none" />
<polyline points="81.0,459.0,45.0,463.5" stroke="black" stroke-width="1" fill="none" />
<polyline points="162.0,445.5,157.5,481.5,162.0,445.5" stroke="black" stroke-width="1" fill="none" />
<polyline points="256.5,481.5,292.5,477.0,333.0,508.5" stroke="black" stroke-width="1" fill="none" />
<polyline points="351.0,486.0,319.5,495.0,333.0,531.0,333.0,576.0,319.5,612.0,274.5,648.0" stroke="black" stroke-width="1" fill="none" />
<polyline points="310.5,643.5,346.5,652.5,382.5,661.5" stroke="black" stroke-width="1" fill="none" />
<polyline points="387.0,648.0,351.0,639.0,315.0,634.5" stroke="black" stroke-width="1" fill="none" />
<polyline points="252.0,589.5,288.0,580.5,337.5,589.5,418.5,625.5,436.5,661.5,454.5,652.5" stroke="black" stroke-width="1" fill="none" />
<polyline points="486.0,657.0,468.0,639.0,459.0,607.5,400.5,612.0,364.5,598.5,387.0,567.0,382.5,531.0,432.0,486.0,400.5,432.0,378.0,409.5,391.5,373.5,409.5,337.5,427.5,301.5,445.5,265.5,459.0,229.5,477.0,193.5,486.0,157.5,499.5,121.5,499.5,99.0" stroke="black" stroke-width="1" fill="none" />
<polyline points="481.5,85.5,445.5,180.0,436.5,247.5,400.5,310.5,360.0,351.0,324.0,400.5,351.0,387.0,378.0,351.0,400.5,315.0,423.0,279.0,441.0,243.0,454.5,207.0,468.0,171.0,477.0,135.0,499.5,193.5" stroke="black" stroke-width="1" fill="none" />
<polyline points="414.0,121.5,463.5,58.5,441.0,94.5,418.5,126.0,391.5,162.0" stroke="black" stroke-width="1" fill="none" />
<polyline points="382.5,153.0,405.0,117.0,432.0,81.0,472.5,45.0,463.5,58.5,436.5,76.5,414.0,130.5,378.0,171.0,360.0,153.0,373.5,117.0,409.5,81.0,441.0,45.0,472.5,9.0,454.5,27.0,418.5,72.0,382.5,117.0,364.5,144.0,382.5,94.5,409.5,58.5,432.0,22.5,423.0,4.5,400.5,22.5,436.5,18.0,400.5,67.5,364.5,108.0,328.5,103.5" stroke="black" stroke-width="1" fill="none" />
<polyline points="297.0,63.0,261.0,63.0" stroke="black" stroke-width="1" fill="none" />
<polyline points="238.5,81.0,274.5,130.5,333.0,121.5" stroke="black" stroke-width="1" fill="none" />
<polyline points="292.5,144.0,256.5,81.0,247.5,36.0" stroke="black" stroke-width="1" fill="none" />
<polyline points="279.0,27.0,315.0,22.5,351.0,27.0,387.0,4.5" stroke="black" stroke-width="1" fill="none" />
<polyline points="499.5,40.5,486.0,76.5,472.5,112.5,454.5,148.5,445.5,184.5,432.0,220.5,418.5,256.5,396.0,292.5,387.0,310.5,364.5,346.5,337.5,382.5,324.0,418.5,333.0,445.5,369.0,445.5,391.5,441.0,427.5,441.0,463.5,373.5" stroke="black" stroke-width="1" fill="none" />
<polyline points="499.5,324.0,486.0,360.0,477.0,396.0,481.5,436.5,472.5,472.5,468.0,508.5,477.0,571.5,481.5,607.5,450.0,634.5,472.5,670.5,495.0,661.5" stroke="black" stroke-width="1" fill="none" />
<polyline points="486.0,607.5,495.0,567.0,477.0,535.5,486.0,504.0,495.0,481.5,495.0,445.5,450.0,459.0" stroke="black" stroke-width="1" fill="none" />
<polyline points="387.0,468.0,391.5,409.5,432.0,373.5,400.5,405.0" stroke="black" stroke-width="1" fill="none" />
<polyline points="355.5,423.0,391.5,369.0,427.5,301.5,463.5,220.5,495.0,216.0,495.0,252.0,490.5,288.0,481.5,324.0,468.0,360.0,454.5,396.0,468.0,436.5,450.0,472.5,441.0,486.0,454.5,540.0,450.0,576.0" stroke="black" stroke-width="1" fill="none" />
<polyline points="414.0,580.5,378.0,544.5" stroke="black" stroke-width="1" fill="none" />
<polyline points="486.0,526.5,445.5,522.0,409.5,508.5,373.5,513.0,351.0,486.0,301.5,495.0,301.5,436.5,306.0,400.5,306.0,364.5,283.5,310.5" stroke="black" stroke-width="1" fill="none" />
<polyline points="256.5,337.5,252.0,373.5,247.5,409.5,229.5,445.5,274.5,463.5,297.0,495.0,319.5,531.0,292.5,576.0,247.5,589.5,279.0,558.0,315.0,544.5,351.0,571.5,387.0,576.0" stroke="black" stroke-width="1" fill="none" />
<polyline points="454.5,567.0,418.5,603.0,382.5,594.0,346.5,580.5,310.5,625.5,274.5,648.0,238.5,657.0,202.5,657.0,166.5,652.5,130.5,648.0,94.5,643.5,58.5,630.0,22.5,616.5" stroke="black" stroke-width="1" fill="none" />
<polyline points="40.5,621.0,81.0,657.0,94.5,666.0" stroke="black" stroke-width="1" fill="none" />
<polyline points="112.5,351.0,148.5,292.5" stroke="black" stroke-width="1" fill="none" />
<polyline points="67.5,220.5,63.0,256.5,54.0,292.5,49.5,328.5,49.5,364.5,67.5,409.5,58.5,387.0" stroke="black" stroke-width="1" fill="none" />
<polyline points="243.0,414.0,261.0,405.0,265.5,369.0" stroke="black" stroke-width="1" fill="none" />
<polyline points="382.5,315.0,418.5,247.5" stroke="black" stroke-width="1" fill="none" />
<polyline points="328.5,265.5,315.0,229.5,315.0,193.5,297.0,157.5,274.5,94.5,256.5,58.5,252.0,22.5,234.0,4.5" stroke="black" stroke-width="1" fill="none" />
<polyline points="234.0,0.0,234.0,36.0,261.0,94.5,252.0,108.0,270.0,144.0,283.5,180.0" stroke="black" stroke-width="1" fill="none" />
<polyline points="252.0,198.0,279.0,234.0,283.5,270.0,274.5,306.0,301.5,333.0,283.5,369.0,283.5,405.0,261.0,450.0,229.5,486.0,225.0,477.0,238.5,481.5,274.5,459.0,292.5,423.0,337.5,405.0,373.5,355.5" stroke="black" stroke-width="1" fill="none" />
<polyline points="333.0,252.0,324.0,216.0" stroke="black" stroke-width="1" fill="none" />
<polyline points="198.0,189.0,198.0,153.0" stroke="black" stroke-width="1" fill="none" />
<polyline points="189.0,121.5,202.5,121.5,189.0,157.5,189.0,193.5,193.5,229.5,180.0,265.5" stroke="black" stroke-width="1" fill="none" />
<polyline points="243.0,153.0,243.0,117.0,238.5,81.0,265.5,58.5,220.5,36.0,216.0,0.0" stroke="black" stroke-width="1" fill="none" />
<polyline points="207.0,0.0,211.5,36.0,180.0,63.0,184.5,99.0,180.0,135.0,175.5,171.0,175.5,207.0,175.5,243.0,207.0,207.0,243.0,193.5,279.0,220.5" stroke="black" stroke-width="1" fill="none" />
<polyline points="166.5,0.0,166.5,36.0,162.0,72.0,157.5,108.0,153.0,144.0,148.5,180.0,144.0,216.0,139.5,252.0,139.5,288.0,121.5,324.0,112.5,360.0,103.5,396.0,103.5,432.0" stroke="black" stroke-width="1" fill="none" />
</svg>