<svg xmlns="http://www.w3.org/2000/svg" height="752px" width="504px" version="1.1"><polyline points="344.0,0.0,344.0,32.0" stroke="black" stroke-width="1" fill="none" />
<polyline points="356.0,32.0,356.0,0.0" stroke="black" stroke-width="1" fill="none" />
<polyline points="372.0,96.0,380.0,108.0" stroke="black" stroke-width="1" fill="none" />
<polyline points="400.0,128.0,368.0,160.0,336.0,176.0,344.0,160.0" stroke="black" stroke-width="1" fill="none" />
<polyline points="380.0,168.0,348.0,200.0,340.0,224.0,372.0,192.0,360.0,204.0,328.0,228.0" stroke="black" stroke-width="1" fill="none" />
<polyline points="280.0,260.0,248.0,236.0" stroke="black" stroke-width="1" fill="none" />
<polyline points="240.0,232.0,272.0,232.0,292.0,264.0,324.0,276.0,356.0,260.0" stroke="black" stroke-width="1" fill="none" />
<polyline points="392.0,276.0,380.0,308.0,348.0,356.0,380.0,300.0,388.0,284.0" stroke="black" stroke-width="1" fill="none" />
<polyline points="400.0,256.0,376.0,288.0,352.0,332.0,348.0,364.0,348.0,396.0,356.0,440.0,368.0,472.0,360.0,504.0,360.0,516.0,332.0,548.0,300.0,556.0,300.0,588.0,304.0,620.0,308.0,652.0,312.0,684.0,316.0,708.0,320.0,740.0,332.0,744.0,368.0,728.0,400.0,732.0,432.0,736.0,468.0,736.0,496.0,700.0" stroke="black" stroke-width="1" fill="none" />
<polyline points="424.0,720.0,392.0,692.0" stroke="black" stroke-width="1" fill="none" />
<polyline points="356.0,732.0,388.0,744.0,420.0,752.0" stroke="black" stroke-width="1" fill="none" />
<polyline points="452.0,676.0,420.0,652.0,392.0,664.0,360.0,664.0,336.0,660.0" stroke="black" stroke-width="1" fill="none" />
<polyline points="328.0,608.0,360.0,600.0,392.0,596.0,424.0,592.0,456.0,588.0,488.0,568.0,504.0,580.0,460.0,600.0,452.0,632.0,456.0,664.0,488.0,652.0,500.0,596.0,492.0,612.0,484.0,628.0" stroke="black" stroke-width="1" fill="none" />
<polyline points="440.0,596.0,436.0,628.0,440.0,664.0,456.0,696.0,440.0,728.0" stroke="black" stroke-width="1" fill="none" />
<polyline points="504.0,740.0,496.0,752.0,500.0,720.0,480.0,744.0,468.0,740.0,460.0,740.0,472.0,708.0,464.0,684.0,472.0,652.0,476.0,620.0,472.0,588.0,452.0,564.0,448.0,532.0,456.0,500.0,464.0,468.0,460.0,436.0,464.0,404.0,464.0,372.0,468.0,340.0,468.0,308.0,468.0,276.0,468.0,244.0,468.0,212.0,468.0,180.0,472.0,148.0,472.0,116.0,488.0,108.0,480.0,88.0,448.0,88.0,416.0,88.0,384.0,88.0,352.0,112.0,320.0,112.0,288.0,112.0,256.0,108.0" stroke="black" stroke-width="1" fill="none" />
<polyline points="204.0,128.0,236.0,140.0,268.0,152.0,300.0,152.0,332.0,148.0,364.0,140.0,396.0,124.0,428.0,104.0,452.0,108.0,440.0,140.0,428.0,172.0,412.0,204.0,392.0,236.0,372.0,268.0,348.0,292.0,380.0,248.0,412.0,200.0,444.0,128.0,496.0,104.0,504.0,136.0,488.0,156.0,500.0,164.0,504.0,196.0,504.0,228.0,504.0,260.0,504.0,292.0,504.0,324.0,504.0,356.0,504.0,388.0" stroke="black" stroke-width="1" fill="none" />
<polyline points="388.0,448.0,384.0,428.0,388.0,396.0,396.0,364.0,400.0,332.0,408.0,300.0,416.0,268.0,428.0,236.0,436.0,204.0,444.0,172.0,452.0,140.0,464.0,108.0,432.0,116.0,400.0,176.0,368.0,228.0,340.0,256.0,332.0,232.0,344.0,200.0,380.0,168.0,416.0,136.0,444.0,104.0,396.0,112.0,364.0,120.0,332.0,128.0,300.0,128.0,268.0,128.0,236.0,124.0,204.0,116.0,172.0,104.0" stroke="black" stroke-width="1" fill="none" />
<polyline points="172.0,104.0,228.0,140.0" stroke="black" stroke-width="1" fill="none" />
<polyline points="244.0,188.0,208.0,220.0,204.0,252.0,224.0,280.0,180.0,312.0,180.0,344.0,184.0,360.0,176.0,380.0" stroke="black" stroke-width="1" fill="none" />
<polyline points="160.0,372.0,128.0,396.0" stroke="black" stroke-width="1" fill="none" />
<polyline points="132.0,412.0,164.0,480.0" stroke="black" stroke-width="1" fill="none" />
<polyline points="168.0,488.0,188.0,520.0,192.0,540.0,188.0,572.0,204.0,576.0,192.0,608.0,140.0,640.0,112.0,672.0,80.0,704.0,52.0,748.0,52.0,720.0,84.0,704.0" stroke="black" stroke-width="1" fill="none" />
<polyline points="68.0,700.0,36.0,700.0" stroke="black" stroke-width="1" fill="none" />
<polyline points="32.0,692.0,64.0,692.0" stroke="black" stroke-width="1" fill="none" />
<polyline points="148.0,692.0,96.0,708.0,68.0,740.0,56.0,740.0,88.0,728.0,120.0,708.0,152.0,692.0,192.0,696.0" stroke="black" stroke-width="1" fill="none" />
<polyline points="192.0,728.0,208.0,676.0,216.0,644.0,216.0,612.0,220.0,580.0,212.0,576.0" stroke="black" stroke-width="1" fill="none" />
<polyline points="232.0,580.0,224.0,612.0,224.0,644.0" stroke="black" stroke-width="1" fill="none" />
<polyline points="236.0,692.0,212.0,728.0,200.0,736.0,220.0,704.0,248.0,672.0,260.0,640.0,268.0,608.0,272.0,576.0,296.0,544.0,312.0,512.0,340.0,504.0,308.0,500.0,276.0,508.0" stroke="black" stroke-width="1" fill="none" />
<polyline points="272.0,532.0,288.0,576.0,292.0,608.0,272.0,644.0,268.0,676.0,260.0,708.0,268.0,712.0,300.0,696.0,304.0,720.0,308.0,744.0" stroke="black" stroke-width="1" fill="none" />
<polyline points="172.0,740.0,180.0,708.0,196.0,656.0,200.0,624.0,208.0,592.0,220.0,560.0,164.0,556.0" stroke="black" stroke-width="1" fill="none" />
<polyline points="144.0,540.0,136.0,572.0,136.0,604.0" stroke="black" stroke-width="1" fill="none" />
<polyline points="156.0,696.0,160.0,728.0" stroke="black" stroke-width="1" fill="none" />
<polyline points="236.0,616.0,208.0,624.0,160.0,640.0,132.0,648.0,100.0,660.0,108.0,608.0,88.0,580.0,84.0,548.0,84.0,516.0,88.0,484.0,100.0,452.0,120.0,420.0,120.0,388.0,120.0,356.0,124.0,324.0,128.0,292.0,132.0,260.0,132.0,236.0,132.0,204.0,132.0,172.0,136.0,140.0,144.0,108.0,104.0,136.0,72.0,128.0" stroke="black" stroke-width="1" fill="none" />
<polyline points="68.0,116.0,96.0,148.0" stroke="black" stroke-width="1" fill="none" />
<polyline points="68.0,116.0,100.0,92.0,132.0,92.0,164.0,88.0,196.0,92.0,228.0,88.0,260.0,88.0,292.0,88.0" stroke="black" stroke-width="1" fill="none" />
<polyline points="292.0,100.0,260.0,100.0,228.0,108.0,196.0,100.0" stroke="black" stroke-width="1" fill="none" />
<polyline points="144.0,100.0,128.0,132.0" stroke="black" stroke-width="1" fill="none" />
<polyline points="148.0,120.0,156.0,152.0,152.0,184.0,152.0,216.0,152.0,248.0,156.0,280.0,156.0,312.0,156.0,344.0,152.0,376.0,128.0,408.0,140.0,440.0,156.0,472.0,156.0,504.0,160.0,536.0,168.0,568.0,160.0,596.0,176.0,600.0" stroke="black" stroke-width="1" fill="none" />
<polyline points="204.0,644.0,240.0,612.0,240.0,580.0" stroke="black" stroke-width="1" fill="none" />
<polyline points="288.0,548.0,320.0,544.0" stroke="black" stroke-width="1" fill="none" />
<polyline points="340.0,560.0,356.0,528.0,340.0,496.0,308.0,484.0,276.0,480.0" stroke="black" stroke-width="1" fill="none" />
<polyline points="292.0,468.0,280.0,476.0,272.0,508.0,284.0,540.0,312.0,564.0,316.0,596.0,328.0,616.0,328.0,640.0,344.0,672.0,340.0,704.0,352.0,712.0,384.0,720.0" stroke="black" stroke-width="1" fill="none" />
<polyline points="396.0,708.0,388.0,676.0,424.0,640.0,416.0,608.0,428.0,604.0" stroke="black" stroke-width="1" fill="none" />
<polyline points="396.0,476.0,384.0,460.0,396.0,428.0,404.0,396.0,408.0,364.0,416.0,332.0,420.0,300.0,428.0,268.0" stroke="black" stroke-width="1" fill="none" />
<polyline points="456.0,236.0,452.0,268.0,452.0,300.0,448.0,332.0,448.0,364.0,444.0,396.0,444.0,428.0,444.0,460.0,440.0,492.0,436.0,524.0,432.0,556.0,392.0,572.0,376.0,620.0,324.0,652.0,324.0,684.0,332.0,704.0,340.0,736.0,360.0,736.0" stroke="black" stroke-width="1" fill="none" />
<polyline points="88.0,652.0,92.0,620.0,96.0,588.0,108.0,556.0,96.0,540.0,112.0,508.0,120.0,476.0,120.0,444.0,92.0,420.0,96.0,388.0,100.0,356.0,104.0,324.0,108.0,292.0,112.0,260.0" stroke="black" stroke-width="1" fill="none" />
<polyline points="208.0,208.0,240.0,192.0,272.0,184.0,304.0,184.0,352.0,172.0,384.0,148.0" stroke="black" stroke-width="1" fill="none" />
<polyline points="408.0,152.0,396.0,184.0,376.0,216.0,364.0,248.0,344.0,280.0,352.0,312.0,332.0,344.0,324.0,348.0,328.0,380.0,332.0,408.0,324.0,440.0,340.0,440.0" stroke="black" stroke-width="1" fill="none" />
<polyline points="308.0,272.0,276.0,256.0,280.0,224.0,252.0,192.0" stroke="black" stroke-width="1" fill="none" />
<polyline points="224.0,272.0,212.0,284.0,180.0,312.0,168.0,280.0,192.0,244.0,184.0,212.0,172.0,180.0,164.0,148.0" stroke="black" stroke-width="1" fill="none" />
<polyline points="460.0,152.0,452.0,184.0,452.0,216.0,444.0,248.0,440.0,280.0,432.0,312.0,428.0,344.0,424.0,376.0,416.0,408.0,408.0,440.0,400.0,472.0,388.0,504.0,376.0,536.0,372.0,568.0,368.0,572.0,392.0,572.0" stroke="black" stroke-width="1" fill="none" />
</svg>