<svg xmlns="http://www.w3.org/2000/svg" height="275px" width="446px" version="1.1"><polyline points="418.5,0.0,418.5,36.0,423.0,72.0,432.0,108.0,436.5,144.0,441.0,180.0,445.5,216.0" stroke="black" stroke-width="1" fill="none" />
<polyline points="423.0,252.0,418.5,216.0,405.0,180.0" stroke="black" stroke-width="1" fill="none" />
<polyline points="405.0,180.0,391.5,130.5,355.5,139.5,315.0,162.0,279.0,175.5,243.0,184.5,310.5,139.5,297.0,103.5,297.0,94.5,261.0,112.5,225.0,117.0,189.0,117.0,153.0,112.5" stroke="black" stroke-width="1" fill="none" />
<polyline points="144.0,135.0,207.0,171.0,171.0,216.0,198.0,229.5,198.0,229.5,234.0,225.0,270.0,229.5,306.0,238.5,342.0,261.0" stroke="black" stroke-width="1" fill="none" />
<polyline points="364.5,256.5,355.5,243.0,360.0,207.0,328.5,166.5,342.0,148.5,360.0,130.5,369.0,126.0,369.0,90.0,387.0,54.0,396.0,18.0,391.5,27.0" stroke="black" stroke-width="1" fill="none" />
<polyline points="373.5,72.0,355.5,94.5,319.5,99.0,315.0,81.0" stroke="black" stroke-width="1" fill="none" />
<polyline points="274.5,85.5,324.0,76.5,333.0,112.5,346.5,157.5,369.0,175.5,409.5,171.0,382.5,207.0,387.0,243.0" stroke="black" stroke-width="1" fill="none" />
<polyline points="333.0,220.5,297.0,202.5" stroke="black" stroke-width="1" fill="none" />
<polyline points="292.5,193.5,328.5,198.0,328.5,216.0" stroke="black" stroke-width="1" fill="none" />
<polyline points="319.5,229.5,292.5,193.5,306.0,153.0,270.0,148.5,234.0,144.0,198.0,139.5,162.0,135.0" stroke="black" stroke-width="1" fill="none" />
<polyline points="162.0,144.0,198.0,162.0,243.0,198.0" stroke="black" stroke-width="1" fill="none" />
<polyline points="274.5,243.0,238.5,238.5,202.5,207.0,180.0,166.5,144.0,144.0" stroke="black" stroke-width="1" fill="none" />
<polyline points="139.5,144.0,153.0,180.0,153.0,207.0,144.0,252.0,180.0,252.0,220.5,252.0,256.5,252.0,292.5,252.0" stroke="black" stroke-width="1" fill="none" />
<polyline points="288.0,234.0,346.5,270.0" stroke="black" stroke-width="1" fill="none" />
<polyline points="319.5,274.5,283.5,265.5,247.5,265.5,211.5,265.5,175.5,265.5,139.5,261.0,126.0,270.0,126.0,234.0,130.5,198.0,130.5,162.0,126.0,126.0,130.5,90.0,130.5,85.5" stroke="black" stroke-width="1" fill="none" />
<polyline points="139.5,144.0,175.5,126.0,211.5,130.5,247.5,135.0,283.5,139.5,315.0,130.5" stroke="black" stroke-width="1" fill="none" />
<polyline points="396.0,180.0,396.0,216.0,396.0,252.0" stroke="black" stroke-width="1" fill="none" />
<polyline points="238.5,180.0,202.5,184.5,202.5,211.5,157.5,157.5" stroke="black" stroke-width="1" fill="none" />
<polyline points="49.5,108.0,54.0,144.0,49.5,180.0,49.5,216.0,22.5,243.0" stroke="black" stroke-width="1" fill="none" />
<polyline points="22.5,247.5,22.5,211.5,0.0,207.0" stroke="black" stroke-width="1" fill="none" />
<polyline points="0.0,162.0,36.0,157.5" stroke="black" stroke-width="1" fill="none" />
</svg>