<svg xmlns="http://www.w3.org/2000/svg" height="265px" width="390px" version="1.1"><polyline points="295.0,10.0,280.0,10.0,225.0,50.0,265.0,45.0,305.0,10.0,345.0,5.0,360.0,30.0,385.0,90.0,365.0,120.0" stroke="black" stroke-width="1" fill="none" />
<polyline points="325.0,145.0,285.0,150.0" stroke="black" stroke-width="1" fill="none" />
<polyline points="280.0,205.0,320.0,205.0,375.0,230.0" stroke="black" stroke-width="1" fill="none" />
<polyline points="370.0,255.0,350.0,230.0,310.0,230.0,270.0,230.0" stroke="black" stroke-width="1" fill="none" />
<polyline points="245.0,205.0,285.0,220.0,325.0,220.0,365.0,195.0,375.0,220.0" stroke="black" stroke-width="1" fill="none" />
<polyline points="320.0,60.0,280.0,40.0" stroke="black" stroke-width="1" fill="none" />
<polyline points="240.0,40.0,195.0,50.0,155.0,35.0" stroke="black" stroke-width="1" fill="none" />
<polyline points="130.0,10.0,130.0,25.0,130.0,65.0,155.0,75.0,185.0,90.0" stroke="black" stroke-width="1" fill="none" />
<polyline points="185.0,85.0,145.0,70.0" stroke="black" stroke-width="1" fill="none" />
<polyline points="170.0,95.0,135.0,100.0,90.0,70.0,90.0,30.0" stroke="black" stroke-width="1" fill="none" />
<polyline points="80.0,25.0,80.0,65.0,75.0,105.0,110.0,110.0,155.0,110.0,195.0,110.0,235.0,105.0,275.0,115.0,315.0,115.0" stroke="black" stroke-width="1" fill="none" />
<polyline points="375.0,170.0,375.0,145.0,330.0,190.0,290.0,195.0,250.0,195.0,200.0,190.0,190.0,220.0,170.0,205.0,170.0,215.0" stroke="black" stroke-width="1" fill="none" />
<polyline points="100.0,205.0,85.0,180.0" stroke="black" stroke-width="1" fill="none" />
<polyline points="25.0,170.0,40.0,130.0,0.0,140.0" stroke="black" stroke-width="1" fill="none" />
<polyline points="0.0,95.0,40.0,90.0" stroke="black" stroke-width="1" fill="none" />
<polyline points="50.0,40.0,50.0,80.0,55.0,120.0,50.0,160.0,85.0,185.0,85.0,225.0" stroke="black" stroke-width="1" fill="none" />
<polyline points="370.0,70.0,355.0,95.0,320.0,95.0,335.0,55.0,335.0,15.0" stroke="black" stroke-width="1" fill="none" />
<polyline points="365.0,10.0,385.0,20.0,355.0,25.0,385.0,60.0,380.0,75.0,340.0,95.0,340.0,120.0,350.0,160.0,355.0,200.0,390.0,215.0,350.0,255.0,385.0,265.0" stroke="black" stroke-width="1" fill="none" />
</svg>