<svg xmlns="http://www.w3.org/2000/svg" height="280px" width="464px" version="1.1"><polyline points="360.0,8.0,360.0,40.0,368.0,40.0,388.0,48.0,412.0,56.0,412.0,76.0,428.0,108.0,448.0,148.0" stroke="black" stroke-width="1" fill="none" />
<polyline points="464.0,136.0,460.0,96.0,456.0,64.0,456.0,32.0,428.0,36.0" stroke="black" stroke-width="1" fill="none" />
<polyline points="436.0,32.0,432.0,64.0,436.0,100.0,460.0,120.0" stroke="black" stroke-width="1" fill="none" />
<polyline points="436.0,64.0,404.0,48.0" stroke="black" stroke-width="1" fill="none" />
<polyline points="372.0,92.0,340.0,76.0,320.0,100.0,288.0,100.0,256.0,96.0,224.0,92.0" stroke="black" stroke-width="1" fill="none" />
<polyline points="212.0,100.0,244.0,108.0,276.0,108.0,308.0,112.0,340.0,124.0,392.0,104.0,424.0,112.0,452.0,100.0" stroke="black" stroke-width="1" fill="none" />
<polyline points="360.0,148.0,312.0,128.0,280.0,124.0,248.0,112.0" stroke="black" stroke-width="1" fill="none" />
<polyline points="244.0,136.0,212.0,120.0" stroke="black" stroke-width="1" fill="none" />
<polyline points="212.0,120.0,236.0,152.0" stroke="black" stroke-width="1" fill="none" />
<polyline points="264.0,136.0,232.0,116.0,200.0,120.0" stroke="black" stroke-width="1" fill="none" />
<polyline points="208.0,80.0,240.0,84.0,272.0,80.0,304.0,80.0,332.0,76.0,344.0,36.0,380.0,40.0,404.0,68.0,408.0,100.0" stroke="black" stroke-width="1" fill="none" />
<polyline points="360.0,184.0,328.0,192.0,296.0,204.0,264.0,204.0,232.0,204.0,200.0,212.0" stroke="black" stroke-width="1" fill="none" />
<polyline points="220.0,212.0,252.0,212.0,284.0,216.0,316.0,216.0,348.0,216.0" stroke="black" stroke-width="1" fill="none" />
<polyline points="316.0,256.0,348.0,260.0,380.0,260.0,412.0,264.0" stroke="black" stroke-width="1" fill="none" />
<polyline points="448.0,268.0,416.0,272.0,384.0,272.0,352.0,268.0,320.0,264.0" stroke="black" stroke-width="1" fill="none" />
<polyline points="400.0,236.0,368.0,236.0,336.0,228.0,304.0,228.0,272.0,228.0,240.0,224.0,208.0,224.0,188.0,216.0,188.0,184.0,192.0,152.0,188.0,120.0,188.0,88.0,188.0,56.0,188.0,48.0" stroke="black" stroke-width="1" fill="none" />
<polyline points="204.0,52.0,212.0,84.0,204.0,128.0,204.0,160.0,212.0,172.0,212.0,220.0" stroke="black" stroke-width="1" fill="none" />
<polyline points="104.0,172.0,96.0,164.0,64.0,180.0,32.0,188.0,0.0,200.0,32.0,200.0,0.0,212.0" stroke="black" stroke-width="1" fill="none" />
<polyline points="40.0,204.0,44.0,236.0,0.0,268.0,32.0,248.0,64.0,224.0,68.0,232.0" stroke="black" stroke-width="1" fill="none" />
<polyline points="44.0,260.0,24.0,264.0,12.0,272.0,44.0,256.0,72.0,280.0" stroke="black" stroke-width="1" fill="none" />
<polyline points="116.0,208.0,92.0,204.0,100.0,172.0" stroke="black" stroke-width="1" fill="none" />
<polyline points="108.0,124.0,76.0,128.0,44.0,136.0,12.0,140.0" stroke="black" stroke-width="1" fill="none" />
<polyline points="116.0,76.0,116.0,108.0,116.0,140.0,116.0,172.0,120.0,204.0" stroke="black" stroke-width="1" fill="none" />
<polyline points="336.0,32.0,332.0,64.0,372.0,96.0,340.0,128.0,376.0,160.0,360.0,192.0,348.0,196.0,384.0,172.0,404.0,228.0,440.0,208.0" stroke="black" stroke-width="1" fill="none" />
<polyline points="444.0,204.0,396.0,220.0,424.0,232.0,416.0,244.0,436.0,260.0" stroke="black" stroke-width="1" fill="none" />
<polyline points="448.0,268.0,460.0,240.0,460.0,208.0" stroke="black" stroke-width="1" fill="none" />
</svg>