<svg xmlns="http://www.w3.org/2000/svg" height="280px" width="396px" version="1.1"><polyline points="60.0,0.0,64.0,32.0,64.0,64.0,80.0,72.0,112.0,64.0,148.0,60.0,164.0,48.0,196.0,64.0,204.0,80.0,236.0,84.0,268.0,72.0,300.0,80.0,312.0,104.0,352.0,116.0,384.0,116.0" stroke="black" stroke-width="1" fill="none" />
<polyline points="332.0,60.0,380.0,36.0,388.0,68.0,372.0,100.0,388.0,140.0,392.0,188.0,396.0,220.0,396.0,252.0" stroke="black" stroke-width="1" fill="none" />
<polyline points="352.0,256.0,320.0,256.0,288.0,260.0,264.0,280.0,284.0,248.0,304.0,240.0,276.0,236.0" stroke="black" stroke-width="1" fill="none" />
<polyline points="276.0,192.0,308.0,192.0" stroke="black" stroke-width="1" fill="none" />
<polyline points="332.0,184.0,300.0,184.0,268.0,184.0,256.0,192.0" stroke="black" stroke-width="1" fill="none" />
<polyline points="320.0,160.0,288.0,160.0,260.0,164.0,228.0,156.0,224.0,164.0,216.0,144.0,156.0,144.0" stroke="black" stroke-width="1" fill="none" />
<polyline points="128.0,120.0,128.0,152.0,148.0,160.0,144.0,180.0,168.0,160.0,200.0,160.0,224.0,132.0,256.0,128.0,288.0,136.0,320.0,136.0,352.0,144.0,364.0,180.0,384.0,180.0" stroke="black" stroke-width="1" fill="none" />
<polyline points="368.0,208.0,364.0,240.0,352.0,272.0" stroke="black" stroke-width="1" fill="none" />
<polyline points="296.0,48.0,248.0,40.0,216.0,40.0,184.0,36.0,152.0,32.0" stroke="black" stroke-width="1" fill="none" />
<polyline points="128.0,40.0,160.0,24.0,192.0,24.0,224.0,32.0,272.0,36.0,312.0,32.0" stroke="black" stroke-width="1" fill="none" />
<polyline points="332.0,0.0,304.0,16.0,288.0,48.0,316.0,68.0,304.0,116.0,328.0,140.0,348.0,164.0,360.0,196.0,360.0,228.0,340.0,256.0,336.0,272.0,332.0,280.0,360.0,260.0" stroke="black" stroke-width="1" fill="none" />
<polyline points="224.0,152.0,192.0,136.0,160.0,124.0,128.0,120.0" stroke="black" stroke-width="1" fill="none" />
<polyline points="76.0,108.0,76.0,116.0,80.0,148.0,84.0,180.0" stroke="black" stroke-width="1" fill="none" />
<polyline points="100.0,196.0,96.0,164.0,96.0,132.0,108.0,96.0,100.0,72.0,76.0,40.0,68.0,44.0" stroke="black" stroke-width="1" fill="none" />
<polyline points="76.0,80.0,108.0,88.0,124.0,100.0,144.0,76.0,156.0,88.0" stroke="black" stroke-width="1" fill="none" />
<polyline points="160.0,68.0,116.0,20.0" stroke="black" stroke-width="1" fill="none" />
<polyline points="116.0,0.0,116.0,32.0,136.0,36.0,168.0,52.0" stroke="black" stroke-width="1" fill="none" />
<polyline points="136.0,4.0,168.0,8.0,200.0,8.0,232.0,8.0,264.0,4.0" stroke="black" stroke-width="1" fill="none" />
<polyline points="352.0,0.0,344.0,4.0,324.0,36.0,332.0,68.0,332.0,32.0,356.0,4.0,368.0,36.0,384.0,8.0,352.0,48.0,356.0,68.0,364.0,112.0,344.0,144.0,368.0,172.0,384.0,188.0,388.0,220.0,388.0,252.0,368.0,260.0" stroke="black" stroke-width="1" fill="none" />
<polyline points="52.0,148.0,20.0,136.0" stroke="black" stroke-width="1" fill="none" />
<polyline points="0.0,112.0,32.0,104.0" stroke="black" stroke-width="1" fill="none" />
<polyline points="0.0,64.0,32.0,52.0" stroke="black" stroke-width="1" fill="none" />
<polyline points="28.0,8.0,36.0,40.0,40.0,72.0,28.0,112.0,20.0,144.0,48.0,156.0" stroke="black" stroke-width="1" fill="none" />
</svg>