<svg xmlns="http://www.w3.org/2000/svg" height="272px" width="400px" version="1.1"><polyline points="60.0,0.0,64.0,32.0,68.0,64.0,80.0,72.0,116.0,92.0,128.0,140.0,132.0,172.0,144.0,180.0,172.0,160.0,204.0,160.0,224.0,152.0,256.0,160.0,288.0,160.0,320.0,164.0,356.0,180.0,368.0,196.0" stroke="black" stroke-width="1" fill="none" />
<polyline points="368.0,204.0,368.0,236.0" stroke="black" stroke-width="1" fill="none" />
<polyline points="368.0,252.0,344.0,256.0,312.0,264.0" stroke="black" stroke-width="1" fill="none" />
<polyline points="352.0,268.0,336.0,272.0,352.0,236.0,360.0,204.0" stroke="black" stroke-width="1" fill="none" />
<polyline points="332.0,120.0,300.0,112.0" stroke="black" stroke-width="1" fill="none" />
<polyline points="320.0,136.0,288.0,136.0,256.0,132.0,224.0,132.0,192.0,136.0,160.0,124.0,128.0,124.0" stroke="black" stroke-width="1" fill="none" />
<polyline points="172.0,128.0,208.0,136.0,228.0,168.0,264.0,180.0,296.0,184.0,328.0,180.0,360.0,156.0" stroke="black" stroke-width="1" fill="none" />
<polyline points="392.0,168.0,360.0,192.0,328.0,192.0,296.0,192.0,264.0,192.0" stroke="black" stroke-width="1" fill="none" />
<polyline points="276.0,44.0,224.0,32.0,192.0,28.0,160.0,24.0,128.0,32.0" stroke="black" stroke-width="1" fill="none" />
<polyline points="144.0,40.0,176.0,52.0" stroke="black" stroke-width="1" fill="none" />
<polyline points="120.0,52.0,152.0,64.0,152.0,52.0,172.0,36.0,204.0,36.0,236.0,40.0,288.0,36.0,320.0,20.0,352.0,12.0" stroke="black" stroke-width="1" fill="none" />
<polyline points="352.0,32.0,368.0,40.0,356.0,72.0,352.0,120.0,356.0,152.0,364.0,168.0,376.0,184.0,396.0,204.0,396.0,236.0,400.0,268.0" stroke="black" stroke-width="1" fill="none" />
<polyline points="388.0,260.0,388.0,228.0,384.0,196.0,388.0,144.0,376.0,104.0,388.0,72.0,384.0,40.0" stroke="black" stroke-width="1" fill="none" />
<polyline points="372.0,24.0,348.0,52.0,348.0,28.0,316.0,44.0,296.0,80.0,264.0,76.0,232.0,84.0,200.0,80.0,168.0,68.0,128.0,84.0,96.0,68.0,64.0,68.0" stroke="black" stroke-width="1" fill="none" />
<polyline points="80.0,80.0,112.0,100.0,132.0,88.0,136.0,72.0" stroke="black" stroke-width="1" fill="none" />
<polyline points="84.0,108.0,92.0,140.0,96.0,172.0" stroke="black" stroke-width="1" fill="none" />
<polyline points="84.0,180.0,80.0,148.0,76.0,116.0,76.0,108.0" stroke="black" stroke-width="1" fill="none" />
<polyline points="52.0,148.0,20.0,136.0" stroke="black" stroke-width="1" fill="none" />
<polyline points="40.0,112.0,32.0,104.0,0.0,108.0" stroke="black" stroke-width="1" fill="none" />
<polyline points="0.0,64.0,32.0,60.0" stroke="black" stroke-width="1" fill="none" />
<polyline points="32.0,8.0,40.0,40.0,44.0,72.0,48.0,104.0,16.0,136.0" stroke="black" stroke-width="1" fill="none" />
<polyline points="140.0,4.0,172.0,12.0,204.0,8.0,236.0,8.0,268.0,4.0" stroke="black" stroke-width="1" fill="none" />
<polyline points="312.0,40.0,316.0,72.0,308.0,104.0,348.0,128.0,380.0,96.0,380.0,80.0" stroke="black" stroke-width="1" fill="none" />
<polyline points="192.0,64.0,132.0,52.0,116.0,48.0,116.0,16.0,144.0,0.0" stroke="black" stroke-width="1" fill="none" />
</svg>