<svg xmlns="http://www.w3.org/2000/svg" height="892px" width="504px" version="1.1"><polyline points="40.0,0.0,52.0,32.0,60.0,64.0,72.0,96.0,84.0,128.0,100.0,160.0" stroke="black" stroke-width="1" fill="none" />
<polyline points="120.0,144.0,132.0,176.0,140.0,208.0,180.0,180.0,212.0,176.0" stroke="black" stroke-width="1" fill="none" />
<polyline points="208.0,192.0,208.0,224.0,216.0,256.0,216.0,288.0,192.0,296.0,192.0,328.0,184.0,360.0,184.0,392.0,192.0,424.0,204.0,444.0,240.0,444.0,272.0,444.0,296.0,384.0,324.0,336.0,364.0,312.0" stroke="black" stroke-width="1" fill="none" />
<polyline points="368.0,264.0,372.0,288.0,380.0,256.0,392.0,236.0,404.0,204.0,420.0,172.0,404.0,196.0" stroke="black" stroke-width="1" fill="none" />
<polyline points="388.0,204.0,416.0,148.0,400.0,180.0,388.0,212.0,368.0,228.0,364.0,260.0,368.0,272.0,384.0,280.0,352.0,288.0,344.0,320.0,336.0,352.0,332.0,384.0,348.0,384.0,336.0,416.0,324.0,448.0,336.0,480.0,344.0,500.0,344.0,532.0,332.0,564.0,324.0,596.0,304.0,628.0,300.0,656.0,292.0,688.0,244.0,704.0,260.0,712.0,252.0,744.0,272.0,776.0,276.0,820.0,300.0,808.0,292.0,828.0,296.0,836.0" stroke="black" stroke-width="1" fill="none" />
<polyline points="340.0,876.0,332.0,844.0,328.0,824.0,324.0,792.0,320.0,760.0,312.0,728.0,308.0,696.0,268.0,700.0" stroke="black" stroke-width="1" fill="none" />
<polyline points="264.0,740.0,296.0,760.0" stroke="black" stroke-width="1" fill="none" />
<polyline points="288.0,788.0,256.0,764.0" stroke="black" stroke-width="1" fill="none" />
<polyline points="252.0,740.0,272.0,728.0,296.0,760.0,292.0,792.0,304.0,796.0,344.0,780.0,388.0,840.0,420.0,848.0,440.0,812.0,472.0,848.0,504.0,852.0" stroke="black" stroke-width="1" fill="none" />
<polyline points="472.0,888.0,440.0,880.0,408.0,872.0,376.0,860.0" stroke="black" stroke-width="1" fill="none" />
<polyline points="356.0,888.0,348.0,856.0,340.0,824.0,336.0,792.0,328.0,756.0,324.0,724.0,316.0,692.0,312.0,660.0,288.0,632.0,296.0,600.0,300.0,632.0" stroke="black" stroke-width="1" fill="none" />
<polyline points="320.0,652.0,324.0,684.0,328.0,700.0,332.0,732.0,360.0,748.0,356.0,780.0,360.0,812.0,368.0,852.0,380.0,852.0,412.0,860.0,444.0,864.0,476.0,868.0,488.0,860.0" stroke="black" stroke-width="1" fill="none" />
<polyline points="412.0,784.0,376.0,800.0,388.0,792.0,400.0,760.0" stroke="black" stroke-width="1" fill="none" />
<polyline points="460.0,752.0,436.0,784.0,440.0,816.0,448.0,852.0" stroke="black" stroke-width="1" fill="none" />
<polyline points="484.0,740.0,488.0,708.0,488.0,676.0,496.0,656.0,464.0,660.0,432.0,664.0,400.0,672.0,368.0,676.0,336.0,688.0" stroke="black" stroke-width="1" fill="none" />
<polyline points="336.0,700.0,344.0,732.0,336.0,736.0,348.0,752.0,372.0,740.0,384.0,748.0,416.0,768.0,448.0,760.0,480.0,748.0" stroke="black" stroke-width="1" fill="none" />
<polyline points="500.0,712.0,500.0,680.0,464.0,680.0" stroke="black" stroke-width="1" fill="none" />
<polyline points="476.0,672.0,472.0,704.0" stroke="black" stroke-width="1" fill="none" />
<polyline points="436.0,704.0,436.0,652.0,432.0,620.0" stroke="black" stroke-width="1" fill="none" />
<polyline points="428.0,616.0,408.0,648.0" stroke="black" stroke-width="1" fill="none" />
<polyline points="396.0,644.0,400.0,612.0,404.0,580.0,416.0,548.0,420.0,516.0,436.0,484.0,440.0,452.0,448.0,420.0,452.0,388.0,456.0,356.0,468.0,324.0,472.0,292.0,476.0,260.0,480.0,228.0,488.0,196.0,492.0,164.0,496.0,132.0,500.0,100.0,496.0,120.0" stroke="black" stroke-width="1" fill="none" />
<polyline points="384.0,100.0,372.0,132.0,356.0,164.0,352.0,188.0" stroke="black" stroke-width="1" fill="none" />
<polyline points="344.0,240.0,348.0,272.0,336.0,304.0,324.0,336.0,312.0,368.0,288.0,400.0,300.0,416.0,308.0,464.0,300.0,456.0,344.0,488.0" stroke="black" stroke-width="1" fill="none" />
<polyline points="364.0,576.0,352.0,608.0" stroke="black" stroke-width="1" fill="none" />
<polyline points="244.0,540.0,244.0,556.0,220.0,592.0,200.0,640.0,192.0,672.0,188.0,704.0,184.0,736.0,164.0,740.0,124.0,768.0,132.0,768.0" stroke="black" stroke-width="1" fill="none" />
<polyline points="176.0,780.0,184.0,800.0,180.0,832.0,168.0,864.0,176.0,880.0,196.0,892.0,228.0,892.0" stroke="black" stroke-width="1" fill="none" />
<polyline points="144.0,864.0,148.0,832.0,176.0,800.0,192.0,752.0,196.0,720.0,180.0,692.0,216.0,696.0,224.0,664.0,228.0,640.0,232.0,616.0,200.0,620.0" stroke="black" stroke-width="1" fill="none" />
<polyline points="176.0,676.0,172.0,708.0,216.0,696.0,260.0,708.0,276.0,684.0" stroke="black" stroke-width="1" fill="none" />
<polyline points="344.0,784.0,352.0,816.0,360.0,848.0,368.0,880.0" stroke="black" stroke-width="1" fill="none" />
<polyline points="328.0,884.0,308.0,852.0,296.0,848.0,264.0,844.0,232.0,836.0,200.0,832.0,176.0,836.0,120.0,820.0,88.0,820.0,56.0,820.0,24.0,844.0,56.0,820.0,20.0,824.0" stroke="black" stroke-width="1" fill="none" />
<polyline points="52.0,748.0,84.0,736.0,116.0,724.0,148.0,708.0" stroke="black" stroke-width="1" fill="none" />
<polyline points="104.0,692.0,104.0,684.0,132.0,660.0,96.0,656.0" stroke="black" stroke-width="1" fill="none" />
<polyline points="92.0,684.0,92.0,716.0" stroke="black" stroke-width="1" fill="none" />
<polyline points="92.0,684.0,124.0,692.0,140.0,684.0" stroke="black" stroke-width="1" fill="none" />
<polyline points="148.0,712.0,156.0,680.0,160.0,648.0,164.0,616.0,144.0,584.0" stroke="black" stroke-width="1" fill="none" />
<polyline points="144.0,580.0,112.0,612.0,80.0,656.0,48.0,740.0" stroke="black" stroke-width="1" fill="none" />
<polyline points="128.0,824.0,124.0,856.0" stroke="black" stroke-width="1" fill="none" />
<polyline points="100.0,884.0,68.0,892.0" stroke="black" stroke-width="1" fill="none" />
<polyline points="160.0,856.0,160.0,824.0" stroke="black" stroke-width="1" fill="none" />
<polyline points="308.0,888.0,276.0,888.0,244.0,884.0,212.0,884.0,180.0,880.0,156.0,892.0,108.0,876.0,76.0,868.0,44.0,864.0,36.0,880.0,4.0,880.0,12.0,856.0,20.0,824.0,48.0,792.0,48.0,740.0,60.0,708.0,72.0,676.0,88.0,644.0,112.0,612.0,132.0,580.0" stroke="black" stroke-width="1" fill="none" />
<polyline points="228.0,428.0,240.0,420.0,252.0,388.0,268.0,356.0,288.0,324.0,300.0,292.0,332.0,268.0,336.0,236.0,372.0,204.0,376.0,176.0,388.0,144.0,416.0,112.0,436.0,80.0,448.0,48.0,464.0,16.0,456.0,32.0,424.0,100.0,392.0,140.0,356.0,132.0,344.0,180.0,312.0,184.0,280.0,232.0,264.0,240.0,304.0,204.0,304.0,168.0,304.0,144.0,324.0,100.0,308.0,92.0,336.0,60.0,372.0,28.0,416.0,4.0,384.0,32.0,352.0,72.0,320.0,92.0" stroke="black" stroke-width="1" fill="none" />
<polyline points="364.0,124.0,336.0,156.0" stroke="black" stroke-width="1" fill="none" />
<polyline points="268.0,108.0,268.0,108.0,268.0,140.0,280.0,160.0,312.0,148.0,344.0,124.0,376.0,100.0,408.0,40.0" stroke="black" stroke-width="1" fill="none" />
<polyline points="376.0,24.0,344.0,52.0,312.0,80.0,356.0,64.0,384.0,32.0,416.0,0.0" stroke="black" stroke-width="1" fill="none" />
<polyline points="432.0,0.0,416.0,32.0,400.0,64.0,380.0,96.0,336.0,128.0" stroke="black" stroke-width="1" fill="none" />
<polyline points="300.0,172.0,288.0,168.0,288.0,136.0,292.0,104.0,292.0,84.0,260.0,76.0,228.0,120.0" stroke="black" stroke-width="1" fill="none" />
<polyline points="184.0,176.0,156.0,208.0,148.0,240.0,144.0,272.0,156.0,304.0,152.0,336.0,144.0,368.0,132.0,400.0,116.0,432.0,100.0,464.0,72.0,496.0,60.0,528.0,44.0,560.0,32.0,592.0,16.0,624.0,4.0,656.0,24.0,612.0,56.0,536.0" stroke="black" stroke-width="1" fill="none" />
<polyline points="8.0,600.0,8.0,568.0,4.0,536.0,4.0,504.0,4.0,472.0,4.0,440.0,4.0,408.0" stroke="black" stroke-width="1" fill="none" />
<polyline points="68.0,396.0,72.0,428.0,72.0,460.0" stroke="black" stroke-width="1" fill="none" />
<polyline points="116.0,408.0,112.0,376.0" stroke="black" stroke-width="1" fill="none" />
<polyline points="108.0,416.0,100.0,384.0,96.0,352.0,92.0,320.0,92.0,288.0" stroke="black" stroke-width="1" fill="none" />
<polyline points="56.0,188.0,60.0,220.0,64.0,252.0,72.0,280.0,76.0,312.0,84.0,344.0,88.0,376.0,92.0,408.0,96.0,440.0" stroke="black" stroke-width="1" fill="none" />
<polyline points="232.0,352.0,228.0,320.0,228.0,288.0,228.0,256.0,220.0,224.0,208.0,192.0" stroke="black" stroke-width="1" fill="none" />
<polyline points="256.0,260.0,288.0,260.0,320.0,208.0,304.0,236.0,284.0,268.0,268.0,300.0,260.0,332.0" stroke="black" stroke-width="1" fill="none" />
<polyline points="276.0,364.0,308.0,292.0,316.0,276.0,304.0,308.0,288.0,340.0,276.0,372.0,256.0,404.0,260.0,396.0,292.0,360.0,308.0,324.0,312.0,344.0,300.0,376.0,276.0,388.0,272.0,416.0" stroke="black" stroke-width="1" fill="none" />
<polyline points="284.0,300.0,300.0,268.0,316.0,236.0,304.0,256.0,292.0,308.0,260.0,376.0,228.0,408.0,228.0,388.0,244.0,356.0,248.0,324.0,244.0,292.0,256.0,264.0,240.0,232.0,268.0,212.0,236.0,172.0,224.0,140.0,232.0,108.0,260.0,76.0,308.0,32.0,352.0,4.0,320.0,16.0,288.0,48.0,280.0,28.0,324.0,4.0,292.0,20.0,260.0,36.0,228.0,44.0,196.0,48.0,164.0,52.0" stroke="black" stroke-width="1" fill="none" />
<polyline points="148.0,180.0,104.0,164.0,72.0,88.0,40.0,4.0" stroke="black" stroke-width="1" fill="none" />
<polyline points="4.0,16.0,4.0,48.0,8.0,80.0,4.0,116.0,4.0,148.0,4.0,180.0" stroke="black" stroke-width="1" fill="none" />
<polyline points="56.0,176.0,48.0,208.0,48.0,240.0,48.0,272.0,52.0,304.0,52.0,336.0,52.0,368.0,52.0,400.0,52.0,432.0,56.0,464.0,60.0,496.0,84.0,484.0,116.0,428.0" stroke="black" stroke-width="1" fill="none" />
<polyline points="216.0,424.0,208.0,392.0,204.0,360.0,204.0,328.0,200.0,296.0" stroke="black" stroke-width="1" fill="none" />
<polyline points="468.0,352.0,464.0,384.0,436.0,388.0,432.0,420.0,424.0,448.0,408.0,476.0,400.0,508.0" stroke="black" stroke-width="1" fill="none" />
<polyline points="384.0,524.0,380.0,492.0,396.0,480.0,400.0,448.0,412.0,416.0,412.0,384.0,420.0,352.0,428.0,320.0,428.0,288.0,436.0,256.0,444.0,224.0,452.0,192.0,460.0,160.0,468.0,128.0,472.0,96.0,480.0,64.0,488.0,32.0,496.0,0.0" stroke="black" stroke-width="1" fill="none" />
</svg>