<svg xmlns="http://www.w3.org/2000/svg" height="285px" width="476px" version="1.1"><polyline points="199.5,25.5,199.5,37.5,199.5,49.5,199.5,61.5,199.5,73.5,198.0,85.5,198.0,97.5,198.0,109.5,198.0,121.5,198.0,133.5,196.5,145.5,196.5,157.5,196.5,169.5,196.5,181.5,195.0,193.5,195.0,205.5,202.5,213.0,202.5,225.0,202.5,237.0,202.5,249.0,199.5,261.0,198.0,273.0,193.5,285.0,210.0,270.0" stroke="black" stroke-width="1" fill="none" />
<polyline points="232.5,243.0,244.5,232.5" stroke="black" stroke-width="1" fill="none" />
<polyline points="237.0,241.5,249.0,241.5,249.0,247.5,261.0,238.5,270.0,243.0" stroke="black" stroke-width="1" fill="none" />
<polyline points="294.0,228.0,306.0,228.0,318.0,226.5,336.0,234.0,333.0,246.0" stroke="black" stroke-width="1" fill="none" />
<polyline points="324.0,231.0,336.0,222.0,348.0,222.0,360.0,220.5,372.0,226.5,384.0,231.0,393.0,237.0,405.0,237.0,415.5,244.5,424.5,228.0,436.5,217.5" stroke="black" stroke-width="1" fill="none" />
<polyline points="444.0,232.5,432.0,234.0,420.0,234.0,414.0,229.5,406.5,214.5,429.0,202.5,435.0,187.5,438.0,177.0,442.5,165.0,448.5,156.0,432.0,144.0,436.5,132.0,433.5,120.0,420.0,114.0,417.0,108.0,418.5,96.0,417.0,97.5" stroke="black" stroke-width="1" fill="none" />
<polyline points="423.0,93.0,421.5,105.0" stroke="black" stroke-width="1" fill="none" />
<polyline points="408.0,97.5,406.5,109.5" stroke="black" stroke-width="1" fill="none" />
<polyline points="405.0,96.0,403.5,102.0,396.0,114.0,393.0,126.0,393.0,138.0" stroke="black" stroke-width="1" fill="none" />
<polyline points="384.0,144.0,381.0,133.5,385.5,121.5,379.5,109.5,375.0,103.5" stroke="black" stroke-width="1" fill="none" />
<polyline points="373.5,100.5,376.5,97.5,376.5,109.5,379.5,121.5,375.0,135.0,369.0,139.5,360.0,145.5,372.0,144.0,384.0,139.5,391.5,151.5,403.5,160.5,415.5,159.0,424.5,139.5,429.0,154.5,435.0,147.0,447.0,151.5" stroke="black" stroke-width="1" fill="none" />
<polyline points="439.5,114.0,418.5,109.5,436.5,103.5,433.5,97.5,433.5,93.0" stroke="black" stroke-width="1" fill="none" />
<polyline points="430.5,76.5,442.5,76.5" stroke="black" stroke-width="1" fill="none" />
<polyline points="426.0,55.5,438.0,54.0,442.5,61.5,445.5,73.5,447.0,90.0,448.5,102.0,451.5,115.5,453.0,127.5,454.5,139.5,456.0,151.5,453.0,168.0,456.0,172.5,456.0,184.5,441.0,187.5,453.0,193.5,442.5,195.0,438.0,207.0,436.5,219.0,441.0,217.5,447.0,220.5,441.0,235.5,436.5,247.5,435.0,259.5,433.5,279.0,439.5,279.0,456.0,279.0,468.0,271.5,475.5,282.0,469.5,283.5" stroke="black" stroke-width="1" fill="none" />
<polyline points="451.5,279.0,439.5,276.0,427.5,270.0,415.5,265.5,403.5,265.5,400.5,282.0,400.5,276.0" stroke="black" stroke-width="1" fill="none" />
<polyline points="391.5,241.5,403.5,247.5,415.5,247.5,430.5,243.0,435.0,237.0,448.5,235.5,460.5,259.5,472.5,271.5" stroke="black" stroke-width="1" fill="none" />
<polyline points="451.5,265.5,451.5,253.5" stroke="black" stroke-width="1" fill="none" />
<polyline points="454.5,252.0,462.0,264.0,463.5,273.0,456.0,285.0,459.0,282.0" stroke="black" stroke-width="1" fill="none" />
<polyline points="439.5,283.5,424.5,273.0,409.5,268.5,394.5,259.5,382.5,264.0,391.5,262.5,394.5,246.0,391.5,238.5,393.0,225.0,390.0,213.0,387.0,201.0,384.0,189.0,379.5,172.5,387.0,162.0,375.0,163.5,373.5,166.5" stroke="black" stroke-width="1" fill="none" />
<polyline points="381.0,172.5,393.0,163.5,411.0,175.5,409.5,187.5,408.0,199.5,412.5,211.5" stroke="black" stroke-width="1" fill="none" />
<polyline points="427.5,223.5,415.5,225.0,403.5,228.0,391.5,219.0" stroke="black" stroke-width="1" fill="none" />
<polyline points="394.5,240.0,406.5,241.5,426.0,231.0" stroke="black" stroke-width="1" fill="none" />
<polyline points="448.5,237.0,450.0,249.0,448.5,261.0,448.5,273.0,444.0,285.0" stroke="black" stroke-width="1" fill="none" />
<polyline points="394.5,252.0,382.5,244.5" stroke="black" stroke-width="1" fill="none" />
<polyline points="376.5,246.0,378.0,244.5,369.0,256.5,355.5,271.5,360.0,268.5,363.0,261.0,376.5,258.0,388.5,256.5" stroke="black" stroke-width="1" fill="none" />
<polyline points="433.5,202.5,421.5,207.0,409.5,199.5,394.5,186.0,382.5,183.0" stroke="black" stroke-width="1" fill="none" />
<polyline points="381.0,181.5,393.0,180.0,405.0,180.0,409.5,187.5" stroke="black" stroke-width="1" fill="none" />
<polyline points="435.0,198.0,433.5,210.0,432.0,222.0,438.0,223.5,448.5,208.5,450.0,204.0" stroke="black" stroke-width="1" fill="none" />
<polyline points="459.0,192.0,448.5,195.0,444.0,193.5,432.0,183.0,420.0,180.0,408.0,171.0,396.0,174.0,393.0,163.5,393.0,159.0,384.0,147.0,403.5,136.5,402.0,124.5,405.0,114.0,394.5,103.5,391.5,99.0,387.0,96.0" stroke="black" stroke-width="1" fill="none" />
<polyline points="364.5,82.5,364.5,82.5,363.0,94.5,361.5,106.5,354.0,118.5,342.0,130.5,342.0,142.5,334.5,144.0,334.5,148.5,346.5,145.5,357.0,141.0,367.5,123.0,375.0,132.0" stroke="black" stroke-width="1" fill="none" />
<polyline points="373.5,148.5,385.5,148.5,397.5,145.5,411.0,138.0" stroke="black" stroke-width="1" fill="none" />
<polyline points="414.0,124.5,412.5,136.5,423.0,138.0,426.0,150.0,421.5,159.0,421.5,171.0,427.5,171.0,433.5,174.0,436.5,168.0,445.5,178.5,447.0,166.5" stroke="black" stroke-width="1" fill="none" />
<polyline points="360.0,145.5,364.5,133.5,373.5,124.5,367.5,112.5,357.0,109.5,345.0,112.5" stroke="black" stroke-width="1" fill="none" />
<polyline points="345.0,112.5,346.5,124.5" stroke="black" stroke-width="1" fill="none" />
<polyline points="357.0,124.5,355.5,112.5" stroke="black" stroke-width="1" fill="none" />
<polyline points="361.5,109.5,364.5,121.5,357.0,132.0,348.0,132.0" stroke="black" stroke-width="1" fill="none" />
<polyline points="331.5,117.0,319.5,118.5,331.5,112.5,349.5,105.0,369.0,115.5" stroke="black" stroke-width="1" fill="none" />
<polyline points="345.0,105.0,342.0,117.0,336.0,129.0,346.5,136.5" stroke="black" stroke-width="1" fill="none" />
<polyline points="324.0,150.0,324.0,144.0,318.0,142.5,322.5,130.5,315.0,123.0,334.5,117.0,322.5,123.0,319.5,136.5" stroke="black" stroke-width="1" fill="none" />
<polyline points="295.5,153.0,283.5,145.5" stroke="black" stroke-width="1" fill="none" />
<polyline points="289.5,145.5,310.5,157.5" stroke="black" stroke-width="1" fill="none" />
<polyline points="279.0,156.0,274.5,144.0,274.5,127.5" stroke="black" stroke-width="1" fill="none" />
<polyline points="261.0,130.5,271.5,147.0" stroke="black" stroke-width="1" fill="none" />
<polyline points="247.5,126.0,259.5,130.5,273.0,124.5,283.5,136.5,288.0,150.0,310.5,151.5" stroke="black" stroke-width="1" fill="none" />
<polyline points="303.0,151.5,291.0,145.5,279.0,138.0,270.0,150.0,258.0,144.0,253.5,142.5,259.5,130.5,250.5,136.5,238.5,147.0" stroke="black" stroke-width="1" fill="none" />
<polyline points="225.0,144.0,223.5,156.0" stroke="black" stroke-width="1" fill="none" />
<polyline points="202.5,169.5,214.5,171.0,226.5,172.5,238.5,172.5,250.5,172.5,261.0,177.0,273.0,178.5,285.0,180.0,297.0,183.0" stroke="black" stroke-width="1" fill="none" />
<polyline points="292.5,223.5,304.5,222.0,316.5,219.0,328.5,216.0,333.0,219.0,324.0,231.0,330.0,243.0" stroke="black" stroke-width="1" fill="none" />
<polyline points="313.5,243.0,312.0,231.0,312.0,229.5" stroke="black" stroke-width="1" fill="none" />
<polyline points="313.5,267.0,325.5,267.0" stroke="black" stroke-width="1" fill="none" />
<polyline points="325.5,271.5,313.5,270.0" stroke="black" stroke-width="1" fill="none" />
<polyline points="261.0,280.5,249.0,283.5,253.5,282.0,256.5,270.0,255.0,276.0" stroke="black" stroke-width="1" fill="none" />
<polyline points="252.0,276.0,264.0,267.0,271.5,262.5,277.5,274.5,280.5,282.0,292.5,283.5,304.5,283.5" stroke="black" stroke-width="1" fill="none" />
<polyline points="271.5,220.5,262.5,216.0,250.5,210.0,238.5,204.0,226.5,196.5,214.5,190.5,202.5,180.0" stroke="black" stroke-width="1" fill="none" />
<polyline points="205.5,178.5,231.0,190.5,252.0,202.5,270.0,214.5,280.5,228.0" stroke="black" stroke-width="1" fill="none" />
<polyline points="243.0,222.0,231.0,210.0" stroke="black" stroke-width="1" fill="none" />
<polyline points="231.0,205.5,243.0,217.5" stroke="black" stroke-width="1" fill="none" />
<polyline points="247.5,222.0,235.5,208.5,223.5,201.0" stroke="black" stroke-width="1" fill="none" />
<polyline points="204.0,187.5,210.0,199.5,213.0,211.5,217.5,223.5,219.0,235.5,217.5,247.5,214.5,259.5,210.0,271.5" stroke="black" stroke-width="1" fill="none" />
<polyline points="199.5,283.5,204.0,271.5,207.0,259.5,208.5,247.5,208.5,235.5,208.5,223.5,207.0,211.5,204.0,199.5,199.5,187.5" stroke="black" stroke-width="1" fill="none" />
<polyline points="199.5,181.5,202.5,193.5,199.5,205.5" stroke="black" stroke-width="1" fill="none" />
<polyline points="199.5,181.5,211.5,202.5,229.5,210.0,240.0,222.0,249.0,225.0" stroke="black" stroke-width="1" fill="none" />
<polyline points="234.0,240.0,235.5,252.0,241.5,255.0,253.5,255.0,265.5,253.5,277.5,273.0,289.5,277.5,301.5,277.5,313.5,279.0,325.5,285.0" stroke="black" stroke-width="1" fill="none" />
<polyline points="301.5,187.5,289.5,186.0,277.5,184.5,265.5,183.0,253.5,180.0,241.5,178.5,229.5,177.0,217.5,174.0,205.5,174.0" stroke="black" stroke-width="1" fill="none" />
<polyline points="199.5,175.5,211.5,180.0,223.5,186.0,235.5,192.0,247.5,198.0,259.5,207.0,271.5,214.5,283.5,223.5,294.0,250.5" stroke="black" stroke-width="1" fill="none" />
<polyline points="198.0,234.0,198.0,246.0,196.5,258.0" stroke="black" stroke-width="1" fill="none" />
<polyline points="192.0,274.5,192.0,262.5,192.0,250.5,193.5,238.5,193.5,232.5" stroke="black" stroke-width="1" fill="none" />
<polyline points="175.5,217.5,163.5,217.5,151.5,217.5,139.5,216.0" stroke="black" stroke-width="1" fill="none" />
<polyline points="132.0,190.5,120.0,193.5,108.0,195.0,96.0,196.5,84.0,198.0,72.0,199.5,60.0,201.0,48.0,204.0" stroke="black" stroke-width="1" fill="none" />
<polyline points="18.0,214.5,30.0,213.0,42.0,210.0,54.0,208.5,66.0,205.5,78.0,204.0,90.0,202.5,102.0,199.5,114.0,198.0,126.0,196.5" stroke="black" stroke-width="1" fill="none" />
<polyline points="120.0,240.0,108.0,241.5,96.0,243.0,84.0,244.5,72.0,246.0,60.0,246.0,48.0,250.5,36.0,252.0,24.0,255.0,12.0,256.5,0.0,258.0" stroke="black" stroke-width="1" fill="none" />
<polyline points="0.0,261.0,12.0,259.5,24.0,258.0,36.0,256.5,48.0,256.5,60.0,253.5,72.0,250.5,57.0,259.5,25.5,271.5,0.0,282.0,12.0,277.5,24.0,273.0,36.0,268.5,48.0,262.5,60.0,259.5,72.0,255.0" stroke="black" stroke-width="1" fill="none" />
<polyline points="90.0,264.0,102.0,250.5,114.0,246.0" stroke="black" stroke-width="1" fill="none" />
<polyline points="108.0,247.5,93.0,259.5,91.5,271.5,96.0,283.5" stroke="black" stroke-width="1" fill="none" />
<polyline points="103.5,285.0,91.5,270.0" stroke="black" stroke-width="1" fill="none" />
<polyline points="153.0,267.0,154.5,255.0,162.0,246.0,150.0,244.5" stroke="black" stroke-width="1" fill="none" />
<polyline points="150.0,244.5,150.0,256.5,148.5,268.5,148.5,282.0,148.5,274.5,157.5,274.5" stroke="black" stroke-width="1" fill="none" />
<polyline points="162.0,283.5,162.0,271.5,162.0,259.5,162.0,247.5" stroke="black" stroke-width="1" fill="none" />
<polyline points="121.5,277.5,123.0,265.5,123.0,253.5,127.5,238.5,124.5,226.5,126.0,214.5,126.0,202.5,127.5,187.5,127.5,175.5,129.0,163.5,126.0,151.5" stroke="black" stroke-width="1" fill="none" />
<polyline points="154.5,138.0,154.5,150.0,154.5,162.0,153.0,174.0,153.0,186.0,151.5,198.0,145.5,210.0,147.0,213.0,159.0,214.5,171.0,214.5" stroke="black" stroke-width="1" fill="none" />
<polyline points="184.5,208.5,172.5,208.5,165.0,204.0,166.5,192.0,166.5,180.0,166.5,168.0,168.0,156.0,168.0,144.0" stroke="black" stroke-width="1" fill="none" />
<polyline points="159.0,141.0,159.0,153.0,157.5,165.0,157.5,177.0,157.5,189.0,156.0,205.5,156.0,192.0" stroke="black" stroke-width="1" fill="none" />
<polyline points="202.5,126.0,214.5,123.0,214.5,124.5,214.5,136.5,214.5,148.5,214.5,160.5,213.0,166.5,220.5,166.5,232.5,160.5,244.5,157.5,256.5,160.5,268.5,159.0,280.5,159.0,280.5,156.0,292.5,160.5,304.5,159.0,316.5,157.5,328.5,156.0,340.5,154.5,352.5,154.5,364.5,153.0,376.5,157.5,388.5,160.5,402.0,148.5,409.5,154.5" stroke="black" stroke-width="1" fill="none" />
<polyline points="256.5,115.5,244.5,117.0,232.5,117.0,220.5,118.5" stroke="black" stroke-width="1" fill="none" />
<polyline points="222.0,121.5,220.5,133.5,220.5,145.5,220.5,157.5" stroke="black" stroke-width="1" fill="none" />
<polyline points="234.0,159.0,244.5,147.0,244.5,141.0,241.5,138.0,237.0,138.0,235.5,126.0" stroke="black" stroke-width="1" fill="none" />
<polyline points="204.0,123.0,202.5,135.0,202.5,147.0,202.5,159.0,199.5,178.5,213.0,190.5,235.5,202.5,250.5,214.5,261.0,216.0,271.5,220.5,268.5,232.5,270.0,244.5,277.5,231.0,280.5,240.0,285.0,232.5,297.0,238.5,309.0,241.5" stroke="black" stroke-width="1" fill="none" />
</svg>