<svg xmlns="http://www.w3.org/2000/svg" height="613px" width="511px" version="1.1"><polyline points="21.0,9.5,19.5,13.5,22.0,18.0,22.5,22.0,24.5,26.5,27.0,31.0,27.0,35.0,27.0,39.0,27.0,43.0,27.0,47.0,24.5,51.0,24.5,55.0,22.5,59.0,24.5,63.0,24.5,67.0,24.5,71.0,24.5,75.0,24.5,79.0,22.0,83.0,21.0,87.0,17.0,91.0,12.5,95.0,12.0,99.0,12.0,103.0,12.0,107.0,15.0,111.5,20.0,116.5,25.0,121.5,29.5,126.5,32.0,131.0,34.5,135.5,37.0,140.0,39.5,144.5,39.5,148.5,42.0,153.0,42.0,157.0,42.0,161.0,39.5,165.0,39.5,169.0,39.5,173.0,42.0,177.5,42.5,181.5,44.5,186.0,47.0,190.5,45.0,194.5,45.0,198.5,45.5,199.0,49.5,201.5,53.5,206.5,57.5,211.0,59.5,209.5" stroke="black" stroke-width="1" fill="none" />
<polyline points="60.0,216.0,64.0,219.0,68.0,224.0,72.0,227.5,74.5,227.0" stroke="black" stroke-width="1" fill="none" />
<polyline points="78.0,239.0,82.0,242.0" stroke="black" stroke-width="1" fill="none" />
<polyline points="77.0,240.0,77.5,244.0,82.0,248.5,84.5,253.0,86.5,257.0,89.5,261.5,92.0,266.0,94.5,270.5,97.0,275.0,99.5,279.5,102.0,284.0,104.5,288.0,107.0,292.5,109.5,297.0,109.5,301.0,107.5,305.0,112.0,310.0,115.5,311.5,119.5,314.0,123.5,314.0,128.0,316.5,132.0,317.0" stroke="black" stroke-width="1" fill="none" />
<polyline points="131.5,317.0,134.5,321.0,139.5,325.0,140.5,329.0,142.0,333.0,142.0,337.0,142.0,341.0,142.0,345.0,139.5,350.0,139.5,347.5" stroke="black" stroke-width="1" fill="none" />
<polyline points="132.0,355.5,136.0,351.5,134.5,357.5,137.0,361.5,139.5,365.5,144.0,369.5,147.5,373.5,149.5,377.5,152.0,381.5,154.5,385.5,159.0,389.5,159.5,393.5,162.0,397.5,165.0,401.5,169.5,405.5,174.0,409.5,177.5,413.5,182.0,417.5,182.0,420.0,185.0,424.0,187.0,428.5,187.0,432.5,187.5,433.5,191.5,436.5,195.5,439.0,198.0,439.0,197.0,442.0,197.0,446.0,197.0,450.0,197.0,454.0,194.5,458.0,197.0,462.0,197.0,466.0,197.0,470.0,197.0,474.0,202.0,476.0,206.0,476.0,210.0,473.5,214.0,476.0,218.0,476.0,222.0,476.5,226.5,478.5,230.5,478.5,234.5,478.5,238.5,478.5,242.5,478.5,247.0,481.0,251.5,483.5,255.5,486.0,260.5,491.0" stroke="black" stroke-width="1" fill="none" />
<polyline points="264.0,497.0,264.5,501.0,265.5,501.0,269.5,503.5,273.5,506.0,277.5,506.0,282.5,503.5,286.5,503.5,290.5,503.5,294.5,506.0,298.5,508.5,302.5,516.0,306.5,522.0,310.5,523.5,314.5,525.5,318.5,526.0,322.5,531.0,326.5,534.5,330.5,538.5,334.5,540.5,338.5,543.5,342.5,548.5,346.5,551.5,350.5,556.0,353.0,556.0" stroke="black" stroke-width="1" fill="none" />
<polyline points="341.0,564.0,337.0,560.5" stroke="black" stroke-width="1" fill="none" />
<polyline points="327.0,550.5,323.5,546.5" stroke="black" stroke-width="1" fill="none" />
<polyline points="333.5,536.5,336.5,540.5,336.5,542.5,341.5,547.0,344.5,551.0,349.5,555.5,351.5,560.0,354.0,564.5,356.5,569.0,359.0,573.5,359.0,577.5,361.5,582.0,361.5,586.0,361.5,590.0,364.0,594.5,369.0,599.5,372.0,598.5,376.0,598.5,380.0,598.5,384.0,598.5,388.0,598.5,392.0,596.5,396.0,596.0,400.0,596.0,404.0,596.0,408.0,596.0,412.0,596.0,416.0,596.0,420.0,593.5,424.0,593.5,428.0,593.5,432.0,593.5,436.0,593.5,440.0,593.5,444.0,591.0,448.0,591.0,452.0,591.0,456.0,591.0,460.0,591.0,464.0,591.0,468.0,588.5,472.0,588.5,476.0,588.5" stroke="black" stroke-width="1" fill="none" />
<polyline points="473.5,583.5,469.5,580.5" stroke="black" stroke-width="1" fill="none" />
<polyline points="478.0,591.0,474.0,591.0,470.0,591.0,465.0,593.5,461.0,593.5,457.0,593.5,453.0,593.5,449.0,593.5,445.0,593.5,440.0,596.0,436.0,596.0,432.0,596.0,428.0,596.0,424.0,596.0,420.0,596.0,415.0,598.5,411.0,598.5,407.0,598.5,403.0,598.5,399.0,598.5,395.0,598.5,390.0,601.0,386.0,601.0,382.0,601.0,378.0,601.0,374.0,601.0,370.0,601.0,366.0,596.0,362.0,593.0" stroke="black" stroke-width="1" fill="none" />
<polyline points="389.0,612.5,393.0,611.0,397.0,611.0,401.0,611.0,405.0,611.0,409.0,611.0,413.0,611.0,417.0,608.5,421.0,608.5,425.0,608.5,429.0,608.5,433.0,608.5,437.0,608.5,441.0,608.5,445.0,606.0,449.0,606.0,453.0,606.0,457.0,606.0,461.0,606.0,465.0,606.0,469.0,603.5,473.0,603.5,477.0,603.5,481.0,603.5,485.0,601.5,489.0,600.0,493.0,596.0" stroke="black" stroke-width="1" fill="none" />
<polyline points="489.0,600.5,492.0,596.5,494.0,592.5,494.0,588.5,494.0,584.5,494.0,580.5,493.5,576.5" stroke="black" stroke-width="1" fill="none" />
<polyline points="484.0,557.5,488.0,553.5" stroke="black" stroke-width="1" fill="none" />
<polyline points="491.5,540.0,495.5,536.0" stroke="black" stroke-width="1" fill="none" />
<polyline points="482.0,530.5,480.0,536.0" stroke="black" stroke-width="1" fill="none" />
<polyline points="479.0,542.0,479.0,538.0,484.0,533.0,481.5,529.0,481.5,525.0,481.5,521.0,481.5,517.0,483.0,511.0,479.0,515.0" stroke="black" stroke-width="1" fill="none" />
<polyline points="484.0,507.5,488.0,503.5,492.0,499.0,494.5,501.0,498.5,498.5" stroke="black" stroke-width="1" fill="none" />
<polyline points="510.0,501.5,506.0,506.0,502.0,509.0,498.0,516.0,494.0,520.0" stroke="black" stroke-width="1" fill="none" />
<polyline points="499.0,498.0,497.0,496.0,492.5,493.5,490.5,493.5,489.5,493.5,486.5,489.0,484.0,484.5,484.0,480.5,481.5,476.0,481.5,472.0,476.5,467.0,474.0,462.5,471.5,458.0,473.5,454.5,468.5,449.5,463.5,444.5,458.5,439.5,453.5,434.5,448.5,429.5,443.5,424.5,438.5,419.5,433.5,414.5,428.5,409.5,423.5,404.5,418.5,399.5,414.5,396.0,410.5,391.5,406.5,387.0,402.5,384.0,398.5,381.5,393.5,377.0,388.5,372.0,383.5,367.0,378.5,362.0,373.5,357.0,368.5,352.0,363.5,347.0,358.5,342.0,353.5,337.0,348.5,332.0,343.5,327.0,338.5,322.0,334.0,317.0,330.0,314.0,326.0,309.5,322.0,306.0,318.0,304.0,313.0,299.0,308.0,294.0,303.0,289.0,298.0,284.0,293.0,279.0,288.0,274.0,283.0,269.0,278.0,264.0,273.0,259.0,268.0,254.0,263.0,249.0,258.5,244.5,254.5,239.5,250.5,236.5,246.5,232.0,242.5,229.0,238.0,226.5,234.5,225.0,229.5,220.0,224.5,215.0,219.5,210.0,214.5,205.0,209.5,200.0,207.0,195.5,207.0,191.5,207.0,187.5,207.0,183.5,207.0,179.5,207.0,175.5,207.0,171.5,207.0,167.5,207.0,163.5,207.0,159.5,207.0,155.5,207.0,151.5,207.0,147.5,207.0,143.5,207.0,139.5,207.0,135.5,207.0,131.5,207.0,127.5,207.0,123.5,207.0,119.5,207.0,115.5,207.0,111.5,207.0,107.5,207.0,103.5,207.0,99.5,207.0,95.5,207.0,91.5,207.0,87.5,207.0,83.5,207.0,79.5,207.0,75.5,207.0,71.5,207.0,67.5,207.0,63.5,207.0,59.5,207.0,55.5,207.0,51.5,207.0,47.5,207.0,43.5,207.0,39.5,207.0,35.5,207.0,31.5,207.0,27.5,207.0,23.5,207.0,19.5,207.0,15.5,204.0,14.5,200.0,14.5,196.0,14.5,192.0,14.5,188.0,14.5,184.0,14.5,180.0,14.5,176.0,14.5,172.0,14.5,168.0,14.5,164.0,14.5,160.0,14.5,156.0,14.5,152.0,14.5,148.0,14.5,144.0,14.5,140.0,14.5,136.0,14.5,132.0,14.5,128.0,14.5,124.0,14.5,120.0,14.5,116.0,14.5,112.0,14.5,108.0,14.5,104.0,14.5,100.0,14.5,96.0,14.5,92.0,14.5,88.0,14.5,84.0,14.5,80.0,14.5,76.0,14.5,72.0,14.5,68.0,14.5,64.0,14.5,60.0,14.5,56.0,14.5,52.0,14.5,48.0,14.5,44.0,14.5,40.0,14.5,36.0,14.5,32.0,14.5,28.0,14.5,24.0,14.5,20.0,16.5" stroke="black" stroke-width="1" fill="none" />
<polyline points="23.0,17.0,22.0,16.5,24.5,20.5,27.0,24.5,27.0,28.5,29.5,32.5,29.5,36.5,29.5,40.5,29.5,44.5,29.5,48.5,27.0,53.5,27.0,57.5,27.0,61.5,27.0,65.5,27.0,69.5,27.0,73.5,27.0,77.5,24.5,82.5,24.5,86.5" stroke="black" stroke-width="1" fill="none" />
<polyline points="20.0,87.5,16.0,92.0,12.0,96.0" stroke="black" stroke-width="1" fill="none" />
<polyline points="17.0,93.0,16.0,97.0,14.5,101.0,14.5,105.0,14.5,109.0,19.5,113.0,23.0,117.0,27.0,121.0,31.5,125.0,32.0,129.0,37.0,133.0,38.0,137.0,39.5,141.0,42.0,145.0,42.0,149.0,44.5,153.0,44.5,157.0,44.5,161.0,42.5,165.0,42.0,169.0,42.0,173.0,44.0,177.0,44.5,181.0,47.0,185.0,48.0,189.0,49.5,193.0,49.5,198.0,54.0,202.0,57.0,206.0,59.5,210.0,62.0,214.0,64.5,218.0,69.0,222.0,72.0,226.0,77.0,230.0,78.0,234.0,76.0,236.5,77.0,238.5,82.0,242.5,83.0,246.5,84.5,250.5,89.0,254.5,89.5,258.5,92.0,262.5,94.5,266.5,97.0,270.5,99.5,274.5,102.0,278.5,104.5,282.5,107.0,286.5,109.5,290.5,111.5,294.5,112.0,298.5,112.0,302.5,112.0,307.5,115.5,311.5,114.5,313.5,115.5,316.5,119.5,316.5,123.5,316.5,127.5,318.5,131.5,319.0,135.5,324.0,138.0,324.0" stroke="black" stroke-width="1" fill="none" />
<polyline points="137.0,325.0,137.5,329.0,139.5,333.5,139.5,337.5,139.5,341.5,139.5,345.5,137.0,349.5,134.5,353.5,132.0,357.5,134.5,362.0,135.0,366.0,138.0,366.5,142.0,370.0,144.0,369.5,148.5,374.0" stroke="black" stroke-width="1" fill="none" />
<polyline points="145.0,376.0,149.0,379.0,153.0,386.5,155.5,386.5,159.5,389.5" stroke="black" stroke-width="1" fill="none" />
<polyline points="159.0,394.0,155.0,391.0" stroke="black" stroke-width="1" fill="none" />
<polyline points="162.5,398.5,166.5,402.0" stroke="black" stroke-width="1" fill="none" />
<polyline points="172.0,410.0,172.5,414.0,173.5,414.0,177.5,416.5,181.5,419.0,185.5,424.0" stroke="black" stroke-width="1" fill="none" />
<polyline points="186.5,419.5,187.0,423.5,189.5,427.5,189.5,431.5,194.5,435.5,199.0,439.5,199.5,443.5,199.5,447.5,199.5,451.5,199.5,455.5,199.5,459.5,199.5,463.5,199.5,467.5,199.5,471.5,199.5,475.5,198.5,476.0,202.5,478.5,206.5,478.5,210.5,478.5,214.5,478.5,218.5,478.5,222.5,480.5,226.5,481.0,230.5,481.0,234.5,481.0,238.5,481.0,242.5,481.0,246.5,483.5,250.5,486.0,254.5,488.5,258.5,491.0,262.5,496.0,265.0,496.0,269.0,499.0,273.0,501.0,277.0,503.5,281.0,503.5,285.0,501.0,289.0,501.0,293.5,503.5,298.0,506.0,303.0,511.0" stroke="black" stroke-width="1" fill="none" />
<polyline points="301.5,512.0,302.0,516.0,304.5,520.5" stroke="black" stroke-width="1" fill="none" />
<polyline points="318.5,524.0,321.5,528.0,326.5,532.0,330.0,536.0,329.5,538.5" stroke="black" stroke-width="1" fill="none" />
<polyline points="343.5,544.0,347.0,548.0,349.0,552.0,352.5,556.0,354.0,560.0,356.5,564.0,359.0,568.0,361.5,572.0,361.5,576.0,364.0,580.0,364.0,584.0,364.0,588.0,364.0,592.0,367.5,596.0,368.5,596.5" stroke="black" stroke-width="1" fill="none" />
<polyline points="359.0,612.5,356.5,608.5,356.5,604.5,353.5,603.5,349.5,600.5,349.0,600.0,349.0,596.0,349.0,592.0,349.0,588.0,349.0,584.0,346.5,580.0,346.5,576.0,344.0,572.0,342.0,568.0,341.0,564.0,336.5,560.0,334.5,556.0,335.0,556.0,331.0,553.5,327.0,550.5,323.0,546.0,319.0,544.0,315.0,541.0,311.0,536.5,307.0,536.0,303.0,536.0,299.0,536.5,295.0,536.0,294.0,533.0,294.0,529.0,294.0,525.0,291.5,521.0,289.0,517.0,288.5,516.5,284.5,516.0,280.5,518.5,276.5,518.5,272.5,518.5,268.5,516.5,264.5,513.5,260.5,513.5,256.5,509.0,252.5,505.5" stroke="black" stroke-width="1" fill="none" />
<polyline points="259.0,512.5,255.0,508.5,252.0,504.5,250.0,500.5,246.5,496.5" stroke="black" stroke-width="1" fill="none" />
<polyline points="252.5,488.5,249.5,484.5" stroke="black" stroke-width="1" fill="none" />
<polyline points="254.0,484.0,256.5,488.0,261.5,492.0,265.0,496.0,269.0,500.0" stroke="black" stroke-width="1" fill="none" />
<polyline points="266.0,514.0,269.5,518.0" stroke="black" stroke-width="1" fill="none" />
<polyline points="296.0,504.0,299.0,508.0,304.0,512.0,305.0,516.0,306.5,520.0,308.0,521.0,312.0,521.0,316.5,523.5,321.0,526.5,326.0,531.5,331.0,536.0,335.5,538.5,340.5,543.5,344.5,545.5,348.5,549.0" stroke="black" stroke-width="1" fill="none" />
<polyline points="319.0,544.5,314.5,540.5,311.0,536.5" stroke="black" stroke-width="1" fill="none" />
<polyline points="192.5,488.0,189.0,484.0" stroke="black" stroke-width="1" fill="none" />
<polyline points="181.5,444.5,184.5,448.5,184.5,452.5,182.0,456.5,184.5,460.5,184.5,464.5,184.5,468.5,184.5,472.5,184.5,476.5,184.5,480.5,185.5,483.5,189.5,484.0,193.5,488.5,197.5,490.5,201.5,491.0,205.5,491.0,209.5,488.5,213.5,491.0,217.5,491.0,221.5,493.5,225.5,493.5,229.5,493.5,233.5,493.5,237.5,493.5,241.5,494.0,245.5,496.0,249.5,499.0" stroke="black" stroke-width="1" fill="none" />
<polyline points="194.5,434.5,190.5,434.0" stroke="black" stroke-width="1" fill="none" />
<polyline points="174.0,429.5,170.0,426.0,166.0,421.5,162.0,417.0,158.0,414.0,154.0,412.0,150.0,408.5" stroke="black" stroke-width="1" fill="none" />
<polyline points="159.0,414.5,162.5,418.5,167.0,422.5,170.0,426.5,174.5,430.5,172.5,434.5,172.0,438.5,173.0,441.5,177.0,442.0,181.0,444.0" stroke="black" stroke-width="1" fill="none" />
<polyline points="146.5,397.0,142.5,393.5" stroke="black" stroke-width="1" fill="none" />
<polyline points="141.5,389.5,137.5,386.0" stroke="black" stroke-width="1" fill="none" />
<polyline points="135.5,381.5,131.5,377.0,127.5,376.0,127.0,375.5,124.5,371.5,122.0,367.5,122.0,363.5,122.0,359.5,119.5,355.5,119.5,351.5,122.5,347.5,127.0,343.5,127.0,339.5,127.0,335.5,125.0,331.5,125.5,331.5,121.5,329.0,117.5,331.0,113.5,329.0,109.5,324.5,105.5,321.5,101.5,317.0,97.5,313.5" stroke="black" stroke-width="1" fill="none" />
<polyline points="107.5,306.0,111.5,309.0" stroke="black" stroke-width="1" fill="none" />
<polyline points="111.0,294.0,106.5,289.0,102.5,286.0" stroke="black" stroke-width="1" fill="none" />
<polyline points="103.0,281.5,107.0,284.5" stroke="black" stroke-width="1" fill="none" />
<polyline points="94.0,292.0,90.0,288.5" stroke="black" stroke-width="1" fill="none" />
<polyline points="84.0,274.5,80.0,271.0" stroke="black" stroke-width="1" fill="none" />
<polyline points="76.5,262.0,72.5,258.5" stroke="black" stroke-width="1" fill="none" />
<polyline points="69.0,249.5,65.0,246.0" stroke="black" stroke-width="1" fill="none" />
<polyline points="61.5,237.0,57.5,233.5" stroke="black" stroke-width="1" fill="none" />
<polyline points="56.5,229.5,52.5,226.0" stroke="black" stroke-width="1" fill="none" />
<polyline points="49.0,219.5,45.0,216.0" stroke="black" stroke-width="1" fill="none" />
<polyline points="53.0,201.5,57.0,204.5" stroke="black" stroke-width="1" fill="none" />
<polyline points="44.5,195.5,48.5,196.5,52.0,202.5,52.5,206.5,57.5,211.0,59.5,215.5,64.5,220.5,69.5,225.5,72.0,230.0,75.0,234.0,76.0,234.0,77.0,237.5,78.5,244.0,82.5,251.0,86.5,257.0,90.5,264.0,94.5,270.0,96.5,269.5" stroke="black" stroke-width="1" fill="none" />
<polyline points="89.5,254.5,85.5,251.5" stroke="black" stroke-width="1" fill="none" />
<polyline points="32.5,203.5,36.5,207.0,40.5,209.0,44.5,212.0,44.5,213.0,46.5,217.0,50.0,221.0,52.0,225.0,55.0,229.0,57.0,233.0,61.5,237.0,62.5,241.0,64.5,245.0,67.5,249.0,69.5,253.0,72.0,257.0,75.0,261.0,77.0,265.0,79.5,269.0,82.0,273.0,84.5,277.0,87.0,281.0,89.5,285.0,90.0,289.0,94.5,293.0,97.0,297.0,97.0,301.0,95.0,305.0,95.0,309.0,97.0,313.0,101.5,317.0,105.0,321.0,109.5,325.0,112.5,329.0" stroke="black" stroke-width="1" fill="none" />
<polyline points="123.5,346.5,119.5,350.5" stroke="black" stroke-width="1" fill="none" />
<polyline points="131.5,377.0,135.0,381.0,137.0,385.0,140.0,389.0,142.0,393.0,146.5,397.0,147.5,401.0,149.5,405.0,150.0,409.0,154.5,413.0" stroke="black" stroke-width="1" fill="none" />
<polyline points="185.5,419.0,181.0,416.5,176.5,412.0,172.0,407.0,170.0,408.5,166.0,404.0,162.0,402.0,162.0,402.5,159.5,398.5,157.5,394.0,154.5,390.0,152.0,385.5,149.5,381.0,145.0,376.5,144.5,372.5" stroke="black" stroke-width="1" fill="none" />
<polyline points="257.0,248.5,254.0,244.5,249.5,240.5,245.0,236.5,242.0,232.5,237.0,228.0,237.0,226.0,234.0,222.0,229.5,218.0,225.5,214.0,222.0,210.0,217.0,206.0,214.0,202.0,209.5,198.0,209.5,194.0,209.5,190.0,209.5,186.0,209.5,182.0,209.5,178.0,209.5,174.0,209.5,170.0,209.5,166.0,209.5,162.0,209.5,158.0,209.5,154.0,209.5,150.0,209.5,146.0,209.5,142.0,209.5,138.0,209.5,134.0,209.5,130.0,209.5,126.0,209.5,122.0,209.5,118.0,209.5,114.0,209.5,110.0,209.5,106.0,209.5,102.0,209.5,98.0,209.5,94.0,209.5,90.0,209.5,86.0,209.5,82.0,209.5,78.0,209.5,74.0,209.5,70.0,209.5,66.0,209.5,62.0,209.5,58.0,209.5,54.0,209.5,50.0,209.5,46.0,209.5,42.0,209.5,38.0,209.5,34.0,209.5,30.0,209.5,26.0,209.5,22.0,209.5,18.0,209.5,14.0,207.5,12.0,203.5,12.0,199.5,12.0,195.5,12.0,191.5,12.0,187.5,11.5,183.5,9.5,179.5,9.5,175.5,9.5,171.5,9.5,167.5,9.5,163.5,9.5,159.5,9.5,155.5,9.5,151.5,9.5,147.5,9.5,143.5,9.5,139.5,9.5,135.5,9.5,131.5,9.5,127.5,9.5,123.5,9.5,119.5,9.5,115.5,9.5,111.5,9.5,107.5,9.5,103.5,9.5,99.5,9.5,95.5,9.5,91.5,9.5,87.5,9.5,83.5,9.5,79.5,9.5,75.5,9.5,71.5,9.5,67.5,9.5,63.5,9.5,59.5,9.5,55.5,9.5,51.5,9.5,47.5,9.5,43.5,9.5,39.5,9.5,35.5,9.5,31.5,9.5,27.5,9.5,23.5,9.5,19.5,11.0" stroke="black" stroke-width="1" fill="none" />
<polyline points="7.0,6.0,11.0,2.0,10.0,2.5,7.0,6.5,7.0,10.5,7.0,14.5,7.0,18.5,9.5,22.5,12.0,26.5,14.5,30.5,14.5,34.5,14.5,38.5,14.5,42.5,14.5,46.5,12.0,50.5,12.0,54.5,12.0,58.5,12.0,62.5,12.0,66.5,12.0,70.5,12.0,74.5,12.0,78.5,7.5,82.5,4.5,86.5,2.5,90.5,2.0,91.0,6.0,84.5,10.0,80.0" stroke="black" stroke-width="1" fill="none" />
<polyline points="12.5,109.0,16.5,112.0,20.5,117.0,24.5,120.5,28.5,124.5,31.0,124.5" stroke="black" stroke-width="1" fill="none" />
<polyline points="30.0,129.0,34.0,132.0,36.5,132.5" stroke="black" stroke-width="1" fill="none" />
<polyline points="18.5,132.0,14.5,127.5,10.5,124.5,6.5,120.0,2.5,116.5" stroke="black" stroke-width="1" fill="none" />
<polyline points="0.0,109.5,2.0,111.0,2.0,115.0,5.0,119.0,9.5,123.0,12.5,127.0,17.0,131.0,21.5,135.0,22.5,139.0,24.5,143.0,27.0,147.0,29.5,151.0,29.5,155.0,29.5,159.0,27.0,163.0,27.0,167.0,27.0,171.0,27.0,175.0,29.5,179.0,29.5,183.0,32.0,187.0,34.5,191.0,32.0,195.0,32.0,199.0,32.0,203.0,36.5,207.0" stroke="black" stroke-width="1" fill="none" />
<polyline points="207.5,198.5,211.5,201.5,215.5,206.5,219.5,210.0,223.5,214.0,227.5,218.5,231.5,221.5,235.5,226.5,239.5,230.0,243.5,234.0,247.5,238.5,251.5,242.0,255.5,246.5,259.5,249.0,263.5,251.5,267.5,256.5,271.5,260.0,275.5,264.0,279.5,268.5,283.5,271.5,287.5,276.5,291.5,280.0,295.5,284.0,299.5,288.5,303.5,291.5,307.5,296.5,311.5,300.0,315.5,304.0,319.5,308.5,323.5,312.0,327.5,316.5,331.5,319.5,335.5,321.5,339.5,326.0,343.5,329.0,347.5,334.0,351.5,337.5,355.5,341.5,359.5,346.0,363.5,349.0,367.5,354.0,371.5,357.5,375.5,361.5,379.5,366.0,383.5,369.0,387.5,374.0,391.5,377.5,395.5,381.5,399.5,386.0,403.5,389.5,407.5,394.0,411.5,397.0,415.5,401.5,419.5,403.5,423.5,406.5,427.5,411.5,431.5,415.0,435.5,419.0,439.5,423.5,443.5,426.5,447.5,431.5,451.5,435.0,455.5,439.0,459.5,443.5,463.5,446.5,467.5,451.5,471.5,455.0" stroke="black" stroke-width="1" fill="none" />
<polyline points="474.5,465.5,478.5,468.5,480.5,468.5" stroke="black" stroke-width="1" fill="none" />
<polyline points="487.0,458.5,491.0,461.5" stroke="black" stroke-width="1" fill="none" />
<polyline points="499.5,483.0,503.5,486.5,507.5,488.5" stroke="black" stroke-width="1" fill="none" />
<polyline points="504.5,488.0,501.0,484.0,499.0,480.0,497.0,476.0,496.5,472.0,494.5,468.0,493.5,464.0,489.0,460.0,486.5,456.0,486.5,452.0,486.5,448.0,486.5,444.5,482.5,444.0,478.5,442.0,474.5,438.5,470.5,434.0,466.5,429.5,462.5,426.5,458.5,422.0,454.5,418.5,450.5,414.0,446.5,409.5,442.5,406.5,438.5,402.0,434.5,398.5,430.5,394.0,426.5,389.5,422.5,386.5,418.5,384.5,414.5,381.0,410.5,376.5,406.5,372.0,402.5,369.0,398.5,364.5,394.5,361.0,390.5,356.5,386.5,352.0,382.5,349.0,378.5,344.5,374.5,341.0,370.5,336.5,366.5,332.0,362.5,329.0,358.5,324.5,354.5,321.0,350.5,316.5,346.5,312.0,342.5,309.0,338.5,307.0,334.5,303.5,330.5,299.0,326.5,294.5,322.5,291.5,318.5,287.0,314.5,283.5,310.5,279.0,306.5,274.5,302.5,271.5,298.5,267.0,294.5,263.5,290.5,259.0,286.5,254.5,282.5,251.5,278.5,247.0,274.5,243.5,270.5,239.0,266.5,236.5,262.5,234.0,258.5,229.5,254.5,224.5,250.5,221.5,246.5,217.0,242.5,213.5,238.5,209.0,234.5,204.5,230.5,201.5,226.5,197.0,222.5,193.5" stroke="black" stroke-width="1" fill="none" />
<polyline points="244.0,229.5,247.5,233.5,252.0,237.5,255.0,241.5,259.0,245.5,263.5,249.5,266.5,253.5,271.5,257.5,275.0,261.5,279.0,265.5,283.5,269.5,286.5,273.5,291.5,277.5,295.0,281.5,299.0,285.5,303.5,289.5,306.5,293.5,311.5,297.5,315.0,301.5,314.5,303.5,319.0,308.0,323.5,312.0,327.0,316.0,331.5,320.0" stroke="black" stroke-width="1" fill="none" />
<polyline points="343.5,309.5,347.0,313.5,351.5,317.5,354.5,321.5,359.0,325.5,363.5,329.5,367.0,333.5,371.5,337.5,374.5,341.5,379.0,345.5,383.5,349.5,387.0,353.5,391.5,357.5,394.5,361.5,399.0,365.5,403.5,369.5,407.0,373.5,411.5,377.5,414.5,381.5,419.0,385.5" stroke="black" stroke-width="1" fill="none" />
<polyline points="423.5,387.0,427.0,391.0,431.5,395.0,434.5,399.0,439.0,403.0,443.5,407.0,447.0,411.0,451.5,415.0,454.5,419.0,459.0,423.0,463.5,427.0,467.0,431.0,471.5,435.0,474.5,439.0,479.0,443.0" stroke="black" stroke-width="1" fill="none" />
<polyline points="510.5,501.0,506.5,505.0,502.0,509.0,499.0,513.0,497.0,517.0,494.0,521.0,494.0,525.0,496.0,529.0,496.5,533.0,494.5,537.0,491.5,541.0,491.5,545.0,489.5,549.0,489.0,553.0,484.5,557.0,484.0,561.0,486.5,565.0,484.5,569.0,484.0,573.0,485.0,576.0,489.0,576.0,493.0,576.0" stroke="black" stroke-width="1" fill="none" />
<polyline points="481.5,589.0,476.5,585.0,474.0,581.0,471.5,577.0,471.5,573.0,474.0,568.0,471.5,564.0,471.5,560.0,471.5,556.0,471.5,552.0" stroke="black" stroke-width="1" fill="none" />
<polyline points="469.0,552.5,473.0,548.5" stroke="black" stroke-width="1" fill="none" />
<polyline points="478.5,586.0,474.5,585.5,469.5,581.0,469.0,577.0,469.0,573.0,469.5,569.0,469.0,564.5,469.0,560.5,469.0,556.5,469.0,552.5,473.0,548.5,476.5,544.5,476.5,540.5,477.0,536.5,479.0,532.5,479.0,528.5,479.0,524.5,479.0,520.5,479.0,516.5,481.5,512.5,484.0,508.5,487.0,504.5,491.5,500.5,492.0,496.0,493.5,494.0,489.0,490.0,487.5,486.0,486.5,482.0,484.0,478.0,484.0,474.0,481.5,470.0,477.5,466.0,476.5,462.0,474.0,458.0,472.5,454.0,469.0,450.0,464.0,446.0,461.0,442.0,456.5,438.0,452.5,434.0,449.0,430.0,444.0,426.0,441.0,422.0,436.5,418.0,432.5,414.0,429.0,410.0,424.0,406.0,421.0,402.0,416.5,398.0,412.0,394.0,409.0,390.0,404.5,386.0,401.0,382.0" stroke="black" stroke-width="1" fill="none" />
<polyline points="412.0,399.0,409.0,395.0,404.5,391.0,401.0,387.0,396.5,383.0,396.5,380.5,392.5,376.5,389.0,372.5,384.0,368.5,381.0,364.5,376.5,360.5,372.5,356.5,369.0,352.5,364.0,348.5,361.0,344.5,356.5,340.5,352.5,336.5,349.0,332.5,344.0,328.5,341.0,324.5,336.5,320.5,332.0,316.5,329.0,312.5,324.5,308.5,321.0,304.5" stroke="black" stroke-width="1" fill="none" />
<polyline points="339.5,309.0,336.5,305.0,332.0,301.0,328.5,297.0,324.0,293.0,319.5,289.0,316.5,285.0,312.0,281.0,308.5,277.0,304.0,273.0,299.5,269.0,296.5,265.0,292.0,261.0,288.5,257.0,284.0,253.0,279.5,249.0,276.5,245.0,272.0,241.0,268.5,237.0" stroke="black" stroke-width="1" fill="none" />
<polyline points="261.5,233.0,257.0,229.0,254.5,225.0,250.0,221.0,246.5,217.0,242.0,213.0,237.5,209.0,234.5,205.0,230.0,201.0,226.5,197.0,222.0,193.0,222.0,189.0,222.0,185.0,222.0,181.0,222.0,177.0,222.0,173.0,222.0,169.0,222.0,165.0,222.0,161.0,222.0,157.0,222.0,153.0,222.0,149.0,222.0,145.0,222.0,141.0,222.0,137.0,222.0,133.0,222.0,129.0,222.0,125.0,222.0,121.0,222.0,117.0,222.0,113.0,222.0,109.0,222.0,105.0,222.0,101.0,222.0,97.0,222.0,93.0,222.0,89.0,222.0,85.0,222.0,81.0,222.0,77.0,222.0,73.0,222.0,69.0,222.0,65.0,222.0,61.0,222.0,57.0,222.0,53.0,222.0,49.0,222.0,45.0,222.0,41.0,222.0,37.0,222.0,33.0,222.0,29.0,222.0,25.0,222.0,21.0,222.0,17.0,222.0,13.0,222.0,9.0,222.0,5.0,219.5,1.0,219.5,0.5" stroke="black" stroke-width="1" fill="none" />
</svg>