<svg xmlns="http://www.w3.org/2000/svg" height="284px" width="487px" version="1.1"><polyline points="102.0,68.0,100.5,72.0,100.5,76.0,100.5,80.0" stroke="black" stroke-width="1" fill="none" />
<polyline points="97.0,81.0,97.0,77.0,97.0,73.0,97.5,69.0,97.0,69.5" stroke="black" stroke-width="1" fill="none" />
<polyline points="100.5,68.5,104.5,68.0,108.5,68.5,112.5,68.5,116.5,68.5,120.5,68.5,124.5,68.5,125.5,71.5,125.5,75.5,125.5,79.5,125.5,84.0,127.0,83.0,131.0,83.0,135.0,83.0,139.0,83.0,143.0,83.0,147.0,83.0,151.0,83.0,155.0,83.0,159.0,83.0,163.0,83.0,167.0,83.0,171.0,83.0,175.0,83.0,179.0,83.0,183.0,82.5" stroke="black" stroke-width="1" fill="none" />
<polyline points="180.0,81.0,180.0,77.0,180.0,73.0,180.5,69.0,180.0,69.5" stroke="black" stroke-width="1" fill="none" />
<polyline points="183.5,68.5,184.0,72.5,184.0,76.5,184.0,80.5,183.5,85.0" stroke="black" stroke-width="1" fill="none" />
<polyline points="183.5,68.5,187.5,68.5,191.5,68.5,195.5,68.5,199.5,68.5,203.5,68.5,207.5,68.5,208.5,71.5,208.5,75.5,208.5,79.5,208.5,84.0,210.0,86.0,214.0,86.0,218.0,86.0,222.0,86.0,226.0,86.0,230.0,86.0,234.0,86.0,238.0,86.0,242.0,86.0,246.0,86.0,250.0,86.0,254.0,86.0,255.5,86.5,255.5,90.5,255.5,94.5,255.5,98.5,255.5,102.5,255.5,106.5" stroke="black" stroke-width="1" fill="none" />
<polyline points="289.5,82.5,293.5,82.5,297.5,82.5,301.5,82.5,305.5,82.5,309.5,82.5,313.5,82.5,317.5,82.5,321.5,82.5,325.5,82.5,329.5,82.5,333.5,82.5,337.5,82.5,341.5,82.5,345.5,82.5,349.5,82.5,353.5,82.5,357.5,82.5,361.5,82.5,365.5,82.5,369.5,82.5,373.5,82.5" stroke="black" stroke-width="1" fill="none" />
<polyline points="371.0,77.0,371.0,73.0,371.5,69.0,371.0,69.5" stroke="black" stroke-width="1" fill="none" />
<polyline points="374.5,68.5,378.5,68.0,382.5,68.0,386.5,68.0,390.5,68.0,394.5,68.0,398.5,68.5,399.5,71.5,399.5,75.5,400.0,79.5,400.5,82.5,404.5,82.5,408.5,82.5,412.5,82.5,416.5,82.5,420.5,82.5,424.5,82.5,428.5,82.5,432.5,82.5,436.5,82.5,440.5,82.5,444.5,82.5,448.5,82.5,452.5,82.5,456.5,82.5,460.5,82.5,464.5,82.5,468.5,82.5,472.5,82.5,476.5,82.5,480.5,82.5,482.5,85.0,482.5,89.0,482.5,93.0,482.5,97.0,483.0,101.0" stroke="black" stroke-width="1" fill="none" />
<polyline points="472.0,135.0,472.0,131.0,472.0,127.0,472.0,123.0,472.0,119.0,471.5,115.0,469.0,111.5,465.0,111.5,461.0,111.5,457.0,111.5,453.0,111.5,449.0,111.5,445.0,111.5,441.0,111.5,437.0,111.5,433.0,111.5,429.0,111.5,425.0,111.5,421.0,111.5,417.0,111.5,413.0,111.5,409.0,111.5,405.0,111.5,401.0,111.5" stroke="black" stroke-width="1" fill="none" />
<polyline points="399.5,105.5,403.5,104.0,407.5,104.0,411.5,104.0,415.5,104.0,419.5,104.0,423.5,104.0,427.5,104.0,431.5,104.0,435.5,104.0,439.5,104.0,443.5,104.0,447.5,104.0,451.5,104.0,455.5,104.0,459.5,104.0,463.5,104.0,467.5,104.0,471.5,104.0,475.5,104.0,479.5,104.5" stroke="black" stroke-width="1" fill="none" />
<polyline points="481.0,78.5,477.0,78.5,473.0,78.5,469.0,78.5,465.0,78.5,461.0,78.5,457.0,78.5,453.0,78.5,449.0,78.5,445.0,78.5,441.0,78.5,437.0,78.5,433.0,78.5,429.0,78.5,425.0,78.5,421.0,78.5,417.0,78.5,413.0,78.5,409.0,78.5,405.0,78.5,401.0,78.5" stroke="black" stroke-width="1" fill="none" />
<polyline points="401.0,104.0,400.0,108.0,400.0,112.0,400.5,114.5,404.5,114.5,408.5,114.5,412.5,114.5,416.5,114.5,420.5,114.5,424.5,114.5,428.5,114.5,432.5,114.5,436.5,114.5,440.5,114.5,444.5,114.5,448.5,114.5,452.5,114.5,456.5,114.5,460.5,114.5,464.5,114.5,468.5,115.0" stroke="black" stroke-width="1" fill="none" />
<polyline points="471.0,136.5,467.0,136.5,463.0,136.5,459.0,136.5,455.0,136.5,451.0,136.5,447.0,136.5,443.0,136.5,439.0,136.5,435.0,136.5,431.0,136.5,427.0,136.5,423.0,136.5,419.0,136.5,415.0,136.5,411.0,136.5,407.0,136.5,403.0,136.5,399.0,136.5,395.0,136.5,391.0,136.5,387.0,136.5,383.0,136.5,379.0,136.5,375.0,136.5,371.0,136.5,367.0,136.5,363.0,136.5,359.0,136.5,355.0,136.5,351.0,136.5,347.0,136.5,343.0,136.5,339.0,136.5,335.0,136.5,331.0,136.5,327.0,136.5,323.0,136.5,319.0,136.5,315.0,136.5,311.0,136.5,307.0,136.5,303.0,136.0" stroke="black" stroke-width="1" fill="none" />
<polyline points="291.5,148.5,291.5,152.5,291.5,156.5,291.5,160.5,291.5,164.5,291.5,168.5,291.5,172.5,291.5,176.5,291.5,180.5,291.5,184.5,291.5,187.0,295.5,187.0,299.5,187.0,303.5,187.0,307.5,187.0" stroke="black" stroke-width="1" fill="none" />
<polyline points="307.5,187.0,309.5,191.0,310.0,195.0,310.0,199.0,310.0,203.0,310.0,207.0,310.0,211.0,310.0,215.0,310.0,219.0,310.0,223.0,310.0,227.0,310.0,231.0,310.0,235.0,310.0,239.0,312.0,241.0,316.0,241.0,320.0,241.0,324.0,241.0,328.0,241.0,332.0,241.0,336.0,241.0,340.0,241.0,344.0,241.0,348.0,241.0,352.0,241.0" stroke="black" stroke-width="1" fill="none" />
<polyline points="352.5,241.5,353.0,245.5,353.0,249.5,353.0,253.5" stroke="black" stroke-width="1" fill="none" />
<polyline points="352.0,255.0,348.0,255.0,344.0,255.0,340.0,255.0,336.0,255.0,332.0,255.0,328.0,255.0,324.0,255.0,320.0,255.0,316.0,255.0,312.0,255.0,308.0,255.0,304.0,255.0,300.0,255.0,296.0,255.0,292.0,255.0,288.0,256.5" stroke="black" stroke-width="1" fill="none" />
<polyline points="288.5,255.0,288.0,259.0,288.0,263.0,288.0,267.0,288.0,271.0,288.0,275.0,288.0,279.0,290.0,280.5,294.0,280.5,298.0,280.5,302.0,280.5,306.0,280.5,310.0,280.5,314.0,280.5,318.0,280.5,322.0,280.5,326.0,280.5,330.0,280.5,334.0,280.5,338.0,280.5,342.0,280.5,346.0,280.5,350.0,280.5,354.0,280.5,358.0,280.5,362.0,280.5,366.0,280.5,370.0,280.5,374.0,280.5,378.0,280.5,382.0,280.5,386.0,280.5,390.0,280.5,394.0,280.5,398.0,280.5,402.0,280.5,406.0,280.5,410.0,280.5,414.0,280.5,418.0,280.5,422.0,280.5,426.0,280.5,430.0,280.5,434.0,280.5,438.0,280.5,442.0,280.5,446.0,280.5,450.0,280.5,454.0,280.5,458.0,280.5,462.0,280.5,466.0,280.5,470.0,280.5,474.0,280.5,478.0,280.5,482.0,280.5,486.0,280.5" stroke="black" stroke-width="1" fill="none" />
<polyline points="484.5,277.0,480.5,277.0,476.5,277.0,472.5,277.0,468.5,277.0,464.5,277.0,460.5,277.0,456.5,277.0,452.5,277.0,448.5,277.0,444.5,277.0,440.5,277.0,436.5,277.0,432.5,277.0,428.5,277.0,424.5,277.0,420.5,277.0,416.5,277.0,412.5,277.0,408.5,277.0,404.5,277.0,400.5,277.0,396.5,277.0,392.5,277.0,388.5,277.0,384.5,277.0,380.5,277.0,376.5,277.0,372.5,277.0,368.5,277.0,364.5,277.0,360.5,277.0,356.5,277.0,352.5,277.0,348.5,277.0,344.5,277.0,340.5,277.0,336.5,277.0,332.5,277.0,328.5,277.0,324.5,277.0,320.5,277.0,316.5,277.0,312.5,277.0,308.5,277.0,304.5,277.0,300.5,277.0,296.5,277.0,292.5,277.0,288.5,276.5" stroke="black" stroke-width="1" fill="none" />
<polyline points="288.0,253.0,292.0,252.0,296.0,252.0,300.0,252.0,304.0,252.0,308.0,252.0,312.0,252.0,316.0,252.0,320.0,252.0,324.0,252.0,328.0,252.0,332.0,252.0,336.0,252.0,340.0,252.0,344.0,252.0,348.0,252.0,352.0,251.5" stroke="black" stroke-width="1" fill="none" />
<polyline points="349.5,250.5,349.5,246.5,349.5,242.5" stroke="black" stroke-width="1" fill="none" />
<polyline points="376.0,219.5,374.5,223.5,374.5,227.5,374.5,231.5,374.5,235.5,374.5,239.5,374.5,243.5,374.5,247.5,375.0,251.5,374.5,253.0,378.5,255.0,382.5,255.0,386.5,255.0,390.5,255.0,394.5,255.0" stroke="black" stroke-width="1" fill="none" />
<polyline points="418.0,242.5,422.0,241.5,426.0,241.0,430.0,241.0,434.0,241.0,438.0,241.0,442.0,241.0,446.0,241.0,450.0,241.0,454.0,241.0,458.0,241.0" stroke="black" stroke-width="1" fill="none" />
<polyline points="482.5,256.5,482.5,260.5,482.5,264.5,482.5,268.5,482.5,272.5" stroke="black" stroke-width="1" fill="none" />
<polyline points="486.5,276.0,486.5,272.0,486.5,268.0,486.5,264.0,486.5,260.0,486.5,256.0,486.0,252.0" stroke="black" stroke-width="1" fill="none" />
<polyline points="480.5,190.5,476.5,190.5,472.5,190.5,468.5,190.5,464.5,191.0" stroke="black" stroke-width="1" fill="none" />
<polyline points="464.5,188.5,464.5,192.5,464.5,196.5,464.5,200.5,464.5,204.5,464.5,208.5,464.5,212.5,464.5,216.5,464.5,220.5,464.5,224.5,464.5,228.5,464.5,232.5,464.5,236.5,464.5,240.5" stroke="black" stroke-width="1" fill="none" />
<polyline points="436.5,215.5,432.5,215.5,428.5,215.5,424.5,215.5,420.5,215.5,416.5,215.5,412.5,215.5,408.5,215.5,404.5,215.5,400.5,216.0,396.5,216.0" stroke="black" stroke-width="1" fill="none" />
<polyline points="396.0,219.5,400.0,219.0,404.0,219.5,408.0,219.5,412.0,219.5,416.0,219.5,420.0,219.5,424.0,219.5,428.0,219.5,432.0,219.5,436.0,219.0,440.0,217.0" stroke="black" stroke-width="1" fill="none" />
<polyline points="437.5,219.5,439.5,215.5,439.5,211.5,439.5,207.5,438.5,205.0,434.5,205.0,430.5,205.0,426.5,205.0,422.5,205.0,418.5,205.0,414.5,205.0,410.5,205.0,406.5,205.0,402.5,205.0,398.5,205.0,396.0,207.5,396.0,202.5,396.0,198.5,396.0,194.5,396.0,190.5,396.0,186.5,396.0,182.5,396.0,178.5,396.0,174.5,396.0,170.5,394.5,168.5,390.5,168.5,386.5,168.5,382.5,168.5,378.5,169.0,374.5,170.0" stroke="black" stroke-width="1" fill="none" />
<polyline points="376.0,168.5,374.5,172.5,374.5,176.5,374.5,180.5,374.5,184.5,374.5,188.5,374.5,192.5,374.5,196.5,374.5,200.5" stroke="black" stroke-width="1" fill="none" />
<polyline points="375.0,205.0,371.0,205.0,367.0,205.0,363.0,205.0,359.0,205.0,355.0,205.0,351.0,205.0,347.0,205.0,343.0,205.0,339.0,205.0,335.0,205.5,331.0,206.5" stroke="black" stroke-width="1" fill="none" />
<polyline points="332.5,205.0,331.5,209.0,331.0,213.0,331.0,217.0,332.5,219.0,336.5,219.5,340.5,219.5,344.5,219.5,348.5,219.5,352.5,219.5,356.5,219.5,360.5,219.5,364.5,219.5,368.5,219.5,372.5,219.5,377.0,219.5" stroke="black" stroke-width="1" fill="none" />
<polyline points="378.0,220.0,378.0,224.0,378.0,228.0,378.0,232.0,378.0,236.0,378.0,240.0,378.0,244.0,378.0,248.0,378.5,252.0,379.5,252.0,383.5,252.0,387.5,252.0,391.5,252.0" stroke="black" stroke-width="1" fill="none" />
<polyline points="396.0,252.5,396.5,248.5,396.5,244.5,396.5,240.5,396.5,236.5,396.5,232.5,396.5,228.5,396.5,224.5,396.0,220.5,393.0,219.5" stroke="black" stroke-width="1" fill="none" />
<polyline points="393.0,219.5,393.0,223.5,392.5,227.5,392.5,231.5,392.5,235.5,392.5,239.5,392.5,243.5,392.5,247.5,392.0,251.5" stroke="black" stroke-width="1" fill="none" />
<polyline points="419.5,241.0,418.5,245.0,418.0,249.0,418.0,253.0,419.5,255.0,423.5,255.0,427.5,255.0,431.5,255.0,435.5,255.0,439.5,255.0,443.5,255.0,447.5,255.0,451.5,255.0,455.5,255.0,459.5,255.0,463.5,255.0,467.5,255.0,471.5,255.0,475.5,255.0,479.5,255.0,483.5,255.5" stroke="black" stroke-width="1" fill="none" />
<polyline points="485.0,251.5,481.0,252.0,477.0,252.0,473.0,252.0,469.0,252.0,465.0,252.0,461.0,252.0,457.0,252.0,453.0,252.0,449.0,252.0,445.0,252.0,441.0,252.0,437.0,252.0,433.0,252.0,429.0,252.0,425.0,252.0,419.5,252.0,421.5,250.5,421.5,246.5,421.5,242.5" stroke="black" stroke-width="1" fill="none" />
<polyline points="436.0,214.5,436.0,210.5,436.5,206.5" stroke="black" stroke-width="1" fill="none" />
<polyline points="461.0,188.5,465.0,187.5,469.0,187.0,473.0,187.0,477.0,187.0,481.0,187.0" stroke="black" stroke-width="1" fill="none" />
<polyline points="482.5,189.5,482.5,185.0,482.5,181.0,482.5,177.0,482.5,173.0,482.5,169.0,482.5,165.0,482.5,161.0,482.5,157.0,482.5,153.0,482.5,149.0,482.5,145.0,480.0,144.0,476.0,144.0,472.0,144.0,468.0,144.0,464.0,144.0,460.0,144.0,456.0,144.0,452.0,144.0,448.0,144.0,444.0,144.0,440.0,144.0,436.0,144.0,432.0,144.0,428.0,144.0,424.0,144.0,420.0,144.0,416.0,144.0,412.0,144.0,408.0,144.0,404.0,144.0,400.0,144.0,396.0,144.0,392.0,144.0,388.0,144.0,384.0,144.0,380.0,144.0,376.0,144.0,372.0,144.0,368.0,144.0,364.0,144.0,360.0,144.0,356.0,144.0,352.0,144.0,348.0,144.0,344.0,144.0,340.0,144.0,336.0,144.0,332.0,144.0,328.0,144.0,324.0,144.0,320.0,144.0,316.0,144.0,312.0,144.0,308.0,144.0,304.0,144.0,300.0,144.0,296.0,144.0,292.0,144.0,288.0,145.0" stroke="black" stroke-width="1" fill="none" />
<polyline points="288.5,147.0,288.0,151.0,288.0,155.0,288.0,159.0,288.0,163.0,288.0,167.0,288.0,171.0,288.0,175.0,288.0,179.0,288.0,183.0,288.5,187.0,288.0,188.5,292.0,190.5,296.0,190.5,300.0,190.5,304.0,190.5,308.0,190.5" stroke="black" stroke-width="1" fill="none" />
<polyline points="313.0,170.0,317.0,169.0,321.0,168.5,325.0,168.5,329.0,168.5,333.0,168.5,337.0,168.5,341.0,168.5,345.0,168.5,349.0,169.0,353.0,169.0,353.5,172.0,353.5,176.0,353.0,180.0" stroke="black" stroke-width="1" fill="none" />
<polyline points="378.0,170.0,378.0,174.0,378.0,178.0,378.0,182.0,378.0,186.0,378.0,190.0,378.0,194.0,378.0,198.0,378.0,202.0" stroke="black" stroke-width="1" fill="none" />
<polyline points="393.0,170.0,393.0,174.0,393.0,178.0,393.0,182.0,393.0,186.0,393.0,190.0,393.0,194.0,393.0,198.0,393.0,202.0,394.0,205.0,398.5,208.5,402.5,208.5,406.5,208.5,410.5,208.5,414.5,208.5,418.5,208.5,422.5,208.5,426.5,208.5,430.5,208.5,434.5,208.5,438.5,208.5" stroke="black" stroke-width="1" fill="none" />
<polyline points="462.5,187.0,461.5,191.0,461.0,195.0,461.0,199.0,461.0,203.0,461.0,207.0,461.0,211.0,461.0,215.0,461.0,219.0,461.0,223.0,461.0,227.0,461.0,231.0,461.0,235.0,461.0,239.0,464.0,241.0" stroke="black" stroke-width="1" fill="none" />
<polyline points="458.0,181.0,457.5,177.0,457.5,173.0,457.0,169.0,454.0,169.0,450.0,168.5,446.0,168.5,442.0,168.5,438.0,168.5,434.0,168.5,430.0,168.5,426.0,168.5,422.0,169.0,418.0,170.0" stroke="black" stroke-width="1" fill="none" />
<polyline points="419.5,168.5,418.0,172.5,418.0,176.5,418.5,180.5,419.0,183.0,423.0,183.5,427.0,183.5,431.0,183.5,435.0,183.5,439.0,183.5,443.0,183.5,447.0,183.5,451.0,183.5,455.0,183.5" stroke="black" stroke-width="1" fill="none" />
<polyline points="421.5,181.0,421.5,177.0,421.5,173.0,421.0,169.0" stroke="black" stroke-width="1" fill="none" />
<polyline points="480.0,147.0,476.0,147.0,472.0,147.0,468.0,147.0,464.0,147.0,460.0,147.0,456.0,147.0,452.0,147.0,448.0,147.0,444.0,147.0,440.0,147.0,436.0,147.0,432.0,147.0,428.0,147.0,424.0,147.0,420.0,147.0,416.0,147.0,412.0,147.0,408.0,147.0,404.0,147.0,400.0,147.0,396.0,147.0,392.0,147.0,388.0,147.0,384.0,147.0,380.0,147.0,376.0,147.0,372.0,147.0,368.0,147.0,364.0,147.0,360.0,147.0,356.0,147.0,352.0,147.0,348.0,147.0,344.0,147.0,340.0,147.0,336.0,147.0,332.0,147.0,328.0,147.0,324.0,147.0,320.0,147.0,316.0,147.0,312.0,147.0,308.0,147.0,304.0,147.0,300.0,147.0,296.0,147.0,292.0,147.0,288.0,148.5" stroke="black" stroke-width="1" fill="none" />
<polyline points="314.5,168.5,313.0,172.5,313.0,176.5,313.5,180.5,314.0,183.0,318.5,183.0,322.5,183.0,326.5,183.0,330.5,183.0,334.5,183.0,338.5,183.0,342.5,183.0,346.5,183.0,350.5,183.0" stroke="black" stroke-width="1" fill="none" />
<polyline points="335.0,206.5,335.0,210.5,335.0,214.5" stroke="black" stroke-width="1" fill="none" />
<polyline points="348.5,179.5,344.5,179.5,340.5,179.5,336.5,179.5,332.5,179.5,328.5,179.5,324.5,179.5,320.5,179.5,317.0,181.0,317.0,177.0,317.0,173.0,316.5,169.0" stroke="black" stroke-width="1" fill="none" />
<polyline points="302.5,116.0,306.5,114.5,310.5,114.5,314.5,114.5,318.5,114.5,322.5,114.5,326.5,114.5,330.5,114.5,334.5,114.5,338.5,114.5,342.5,114.5,346.5,114.5,350.5,114.5,354.5,114.5,358.5,114.5,362.5,114.5,366.5,114.5,370.5,114.5" stroke="black" stroke-width="1" fill="none" />
<polyline points="366.5,111.5,362.5,111.5,358.5,111.5,354.5,111.5,350.5,111.5,346.5,111.5,342.5,111.5,338.5,111.5,334.5,111.5,330.5,111.5,326.5,111.5,322.5,111.5,318.5,111.5,314.5,111.5,310.5,111.5,306.5,111.5,302.5,111.5" stroke="black" stroke-width="1" fill="none" />
<polyline points="303.0,114.5,302.5,118.5,302.5,122.5,302.5,126.5,302.5,130.5,302.5,134.5,303.0,139.0,306.0,140.0,310.0,140.0,314.0,140.0,318.0,140.0,322.0,140.0,326.0,140.0,330.0,140.0,334.0,140.0,338.0,140.0,342.0,140.0,346.0,140.0,350.0,140.0,354.0,140.0,358.0,140.0,362.0,140.0,366.0,140.0,370.0,140.0,374.0,140.0,378.0,140.0,382.0,140.0,386.0,140.0,390.0,140.0,394.0,140.0,398.0,140.0,402.0,140.0,406.0,140.0,410.0,140.0,414.0,140.0,418.0,140.0,422.0,140.0,426.0,140.0,430.0,140.0,434.0,140.0,438.0,140.0,442.0,140.0,446.0,140.0,450.0,140.0,454.0,140.0,458.0,140.0,462.0,140.0,466.0,140.0" stroke="black" stroke-width="1" fill="none" />
<polyline points="486.5,146.5,486.5,150.5,486.5,154.5,486.5,158.5,486.5,162.5,486.5,166.5,486.5,170.5,486.5,174.5,486.5,178.5,486.5,182.5,486.5,186.5" stroke="black" stroke-width="1" fill="none" />
<polyline points="371.5,113.5,371.0,109.5,371.0,105.5" stroke="black" stroke-width="1" fill="none" />
<polyline points="372.5,104.0,374.5,108.0,374.5,112.0" stroke="black" stroke-width="1" fill="none" />
<polyline points="372.0,78.5,368.0,78.5,364.0,78.5,360.0,78.5,356.0,78.5,352.0,78.5,348.0,78.5,344.0,78.5,340.0,78.5,336.0,78.5,332.0,78.5,328.0,78.5,324.0,78.5,320.0,78.5,316.0,78.5,312.0,78.5,308.0,78.5,304.0,78.5,300.0,78.5,296.0,78.5,292.0,79.0,288.0,80.0" stroke="black" stroke-width="1" fill="none" />
<polyline points="289.5,78.5,288.5,82.5,288.0,86.5,288.0,90.5,288.0,94.5,288.0,98.5,288.0,102.5,290.5,104.0,294.5,104.0,298.5,104.0,302.5,104.0,306.5,104.0,310.5,104.0,314.5,104.0,318.5,104.0,322.5,104.0,326.5,104.0,330.5,104.0,334.5,104.0,338.5,104.0,342.5,104.0,346.5,104.0,350.5,104.0,354.5,104.0,358.5,104.0,362.5,104.0,366.5,104.0,370.5,104.5,374.5,104.5" stroke="black" stroke-width="1" fill="none" />
<polyline points="374.5,80.0,375.0,76.0,375.0,72.0,376.0,68.0" stroke="black" stroke-width="1" fill="none" />
<polyline points="253.0,83.0,249.0,83.0,245.0,83.0,241.0,83.0,237.0,83.0,233.0,83.0,229.0,83.0,225.0,83.0,221.0,83.0,217.0,83.0,213.0,83.0,209.0,82.0" stroke="black" stroke-width="1" fill="none" />
<polyline points="210.0,107.5,208.5,111.5,208.5,115.5,208.5,119.5,208.5,123.5" stroke="black" stroke-width="1" fill="none" />
<polyline points="208.5,109.0,212.5,107.5,216.5,107.5,220.5,107.5,224.5,107.5,228.5,107.5,232.5,107.5,236.5,107.5,240.5,107.5,244.5,107.5,248.5,107.5,252.5,107.5" stroke="black" stroke-width="1" fill="none" />
<polyline points="246.5,162.0,242.5,162.0,238.5,161.5,234.5,161.5,230.5,159.5" stroke="black" stroke-width="1" fill="none" />
<polyline points="235.0,158.5,231.0,158.5,227.0,158.0,223.0,156.0" stroke="black" stroke-width="1" fill="none" />
<polyline points="229.0,155.0,224.5,154.5,220.5,154.5,216.5,154.0" stroke="black" stroke-width="1" fill="none" />
<polyline points="221.0,150.5,216.5,151.0,212.5,150.5,208.5,148.5" stroke="black" stroke-width="1" fill="none" />
<polyline points="214.0,147.0,209.5,147.5,205.5,147.0,201.5,145.0" stroke="black" stroke-width="1" fill="none" />
<polyline points="208.5,144.0,204.0,143.5,200.0,143.5,199.5,140.0,195.5,140.0,191.5,140.0,191.5,136.5,187.5,136.0" stroke="black" stroke-width="1" fill="none" />
<polyline points="185.0,122.0,189.0,122.0,193.0,122.0,197.0,122.0,201.0,122.0,205.0,122.0" stroke="black" stroke-width="1" fill="none" />
<polyline points="182.5,129.0,178.5,129.0,176.0,127.5,172.5,123.5,170.5,119.0" stroke="black" stroke-width="1" fill="none" />
<polyline points="180.0,126.0,175.5,126.0,175.0,122.0,171.0,122.0,167.5,118.5,164.0,114.5,160.0,114.5,156.0,114.5,152.0,114.5,148.0,114.5,144.0,115.0,140.0,116.0,136.0,122.0,131.5,122.5,130.5,126.0,125.5,126.5,121.5,125.5,117.5,125.5,113.5,125.5,109.5,125.5,105.5,125.5,101.5,125.5,101.0,125.0,100.5,121.0,100.5,117.0,100.5,113.0,100.5,109.0,98.5,107.5,94.5,107.5,90.5,107.5,86.5,107.5,82.5,107.5,78.5,107.5,74.5,107.5,70.5,107.5,66.5,107.5,62.5,107.5,58.5,107.5,54.5,107.5,50.5,107.0,50.5,104.5,50.0,100.5,50.0,96.5,50.0,92.5,50.0,88.5,50.5,84.5,50.5,83.0" stroke="black" stroke-width="1" fill="none" />
<polyline points="53.5,83.0,57.5,83.0,61.5,83.0,65.5,83.0,69.5,83.0,73.5,83.0,77.5,83.0,81.5,83.0,85.5,83.0,89.5,83.0,93.5,83.0,97.5,82.5" stroke="black" stroke-width="1" fill="none" />
<polyline points="95.0,86.0,91.0,86.0,87.0,86.0,83.0,86.0,79.0,86.0,75.0,86.0,71.0,86.0,67.0,86.0,63.0,86.0,59.0,86.0,55.0,86.0" stroke="black" stroke-width="1" fill="none" />
<polyline points="51.0,86.0,53.5,85.0,53.5,89.0,53.5,93.0,53.5,97.0,53.5,101.0,54.0,105.0" stroke="black" stroke-width="1" fill="none" />
<polyline points="97.0,109.0,97.0,113.0,97.0,117.0,97.0,121.0,97.5,125.0" stroke="black" stroke-width="1" fill="none" />
<polyline points="102.0,122.0,106.0,122.0,110.0,122.0,114.0,122.0,118.0,122.0,122.0,122.5" stroke="black" stroke-width="1" fill="none" />
<polyline points="120.0,132.5,118.0,136.5,113.0,136.5,117.0,137.0,120.5,132.5,124.5,132.5" stroke="black" stroke-width="1" fill="none" />
<polyline points="125.5,109.0,129.5,107.5,133.5,107.5,137.5,107.5,141.5,107.5,145.5,107.5,149.5,107.5,153.5,107.5,157.5,107.5,161.5,107.5,165.5,107.5,169.5,107.5,173.5,107.5,177.5,107.5,181.5,107.5,183.5,108.5,184.0,112.5,184.0,116.5,184.0,120.5,184.0,124.5,187.0,125.5,191.0,125.5,195.0,125.5,199.0,125.5,203.0,125.5,207.0,125.5" stroke="black" stroke-width="1" fill="none" />
<polyline points="187.5,133.0,183.5,132.5,180.5,132.5,183.5,130.0,180.0,125.0,180.0,121.0,180.0,117.0,180.0,113.0,180.0,109.0" stroke="black" stroke-width="1" fill="none" />
<polyline points="181.5,86.0,177.5,86.0,173.5,86.0,169.5,86.0,165.5,86.0,161.5,86.0,157.5,86.0,153.5,86.0,149.5,86.0,145.5,86.0,141.5,86.0,137.5,86.0,133.5,86.0,129.5,86.0,125.5,84.0" stroke="black" stroke-width="1" fill="none" />
<polyline points="127.0,107.5,125.5,111.5,125.5,115.5,125.5,119.5,125.5,123.5,130.0,127.0,125.5,131.5,125.0,129.5,129.0,129.0" stroke="black" stroke-width="1" fill="none" />
<polyline points="130.0,122.5,136.5,121.5,141.5,118.5,141.5,114.5" stroke="black" stroke-width="1" fill="none" />
<polyline points="145.0,147.0,147.5,146.5,145.0,147.0,140.0,150.0,141.0,147.5,144.0,144.0,148.0,143.5,148.5,140.5,152.5,140.0,156.5,140.0,160.5,143.5,164.5,147.0,168.0,150.5,171.5,154.5,175.5,155.0,176.5,157.0,183.5,163.0,185.0,165.0,189.0,165.0,193.0,168.5,197.0,168.5" stroke="black" stroke-width="1" fill="none" />
<polyline points="195.0,172.5,199.0,172.5,203.0,172.5,203.5,176.0,207.5,176.0,211.5,176.5" stroke="black" stroke-width="1" fill="none" />
<polyline points="208.5,177.5,212.5,179.5,216.5,180.0,220.5,183.0,224.5,183.0,228.5,183.0" stroke="black" stroke-width="1" fill="none" />
<polyline points="234.0,190.5,238.0,190.5,242.0,191.0,246.0,190.5,250.0,190.5" stroke="black" stroke-width="1" fill="none" />
<polyline points="252.0,193.5,252.5,188.0,252.5,184.0,252.0,184.5" stroke="black" stroke-width="1" fill="none" />
<polyline points="249.0,194.0,245.0,194.0" stroke="black" stroke-width="1" fill="none" />
<polyline points="221.5,208.5,217.5,208.5,213.5,208.5,209.5,208.5,205.5,208.5,201.5,208.5,197.5,208.5,193.5,208.5,189.5,208.5,185.5,208.5,181.5,208.5,177.5,208.5,173.5,208.5,169.5,209.0,165.5,210.0" stroke="black" stroke-width="1" fill="none" />
<polyline points="167.0,208.5,166.0,212.5,165.5,216.5,165.5,220.5,165.5,224.5,165.5,228.5,165.5,232.5,165.5,236.5,165.5,240.5,165.5,244.5,165.5,248.5,165.5,252.5,165.5,256.5,165.5,260.5,165.5,264.5,165.5,268.5,165.5,272.5,162.5,273.0,163.5,273.0" stroke="black" stroke-width="1" fill="none" />
<polyline points="180.0,235.0,184.0,237.0,188.0,237.5,190.5,238.0" stroke="black" stroke-width="1" fill="none" />
<polyline points="194.0,242.5,198.0,244.5,198.0,246.0,202.5,248.0,206.5,248.0,206.5,251.5,210.5,251.5,210.5,255.0,215.0,255.0" stroke="black" stroke-width="1" fill="none" />
<polyline points="226.5,267.5,230.5,269.5" stroke="black" stroke-width="1" fill="none" />
<polyline points="241.0,273.5,242.5,269.5,245.0,265.5,248.5,265.0,248.5,261.0,252.0,257.0,252.0,253.0,252.0,249.0,246.0,244.5" stroke="black" stroke-width="1" fill="none" />
<polyline points="244.0,245.0,248.5,249.5,250.0,251.5,253.5,255.0" stroke="black" stroke-width="1" fill="none" />
<polyline points="250.5,248.0,246.5,248.5,243.0,244.5,238.5,244.5,238.5,241.0,234.5,240.5" stroke="black" stroke-width="1" fill="none" />
<polyline points="234.5,237.5,231.0,234.0,227.0,233.5,223.0,231.5,223.0,230.5,220.0,227.0,216.0,226.5,212.0,224.5" stroke="black" stroke-width="1" fill="none" />
<polyline points="213.5,223.5,209.5,223.0,205.5,222.5" stroke="black" stroke-width="1" fill="none" />
<polyline points="188.5,219.0,188.5,215.5,187.0,219.5,184.0,223.5,183.5,227.5,180.0,228.5,180.0,232.5,180.5,236.5,187.0,239.0,189.0,241.0,193.5,241.5,197.5,241.5,201.5,245.5,205.0,250.5,212.5,256.5,214.0,259.0,218.5,259.0,222.0,262.5,226.0,263.0,227.0,266.5,231.0,267.5,232.0,269.5,235.5,273.0,239.5,273.0,242.5,269.5,244.0,273.0" stroke="black" stroke-width="1" fill="none" />
<polyline points="208.0,219.5,204.0,219.0,199.5,219.0,199.5,216.0,195.5,216.0,191.5,216.0,187.5,216.0" stroke="black" stroke-width="1" fill="none" />
<polyline points="169.0,212.5,173.0,212.0,177.0,212.0,181.0,212.0,185.0,212.0,189.0,212.0,196.0,212.0,200.0,212.0,204.0,212.0,208.0,212.0,212.0,212.0,216.0,212.0,220.0,211.5" stroke="black" stroke-width="1" fill="none" />
<polyline points="184.0,235.0,180.0,233.5" stroke="black" stroke-width="1" fill="none" />
<polyline points="169.0,210.0,169.0,214.0,169.0,218.0,169.0,222.0,169.0,226.0,169.0,230.0,169.0,234.0,169.0,238.0,169.0,242.0,169.0,246.0,169.0,250.0,169.0,254.0,169.0,258.0,169.0,262.0,168.5,266.0" stroke="black" stroke-width="1" fill="none" />
<polyline points="159.0,277.5,155.0,277.5,154.5,280.5,150.5,281.0,146.5,280.5,142.5,280.5,138.5,280.5,134.5,280.5,130.5,280.5,126.5,280.5,122.5,281.0,118.5,283.0,118.5,279.0,118.5,275.0,118.5,271.0,116.5,269.5" stroke="black" stroke-width="1" fill="none" />
<polyline points="112.0,261.0,112.0,259.5" stroke="black" stroke-width="1" fill="none" />
<polyline points="115.0,259.5,115.0,263.5,115.0,267.5,115.5,271.5,115.0,275.5,115.0,279.5,117.5,280.5,122.0,284.0,126.0,284.0,130.0,284.0,134.0,284.0,138.0,284.0,142.0,284.0,146.0,284.0,150.0,284.0" stroke="black" stroke-width="1" fill="none" />
<polyline points="139.0,259.0,135.0,259.0,131.0,259.5,127.0,259.5,123.0,259.0,119.0,259.0,115.0,259.5" stroke="black" stroke-width="1" fill="none" />
<polyline points="107.5,246.0,111.5,245.0,112.0,241.5,116.5,241.0,120.5,237.0,124.5,237.0,125.0,233.5" stroke="black" stroke-width="1" fill="none" />
<polyline points="121.0,241.0,120.0,241.0,120.0,237.0,125.5,232.5,125.5,228.5,122.0,224.5,118.5,220.5,117.0,219.0,116.5,215.5" stroke="black" stroke-width="1" fill="none" />
<polyline points="136.0,212.0,132.0,212.0,128.0,212.0,124.0,212.0,120.0,212.0,116.0,212.5,113.0,215.5,109.0,215.5,105.0,216.0,105.0,219.5,101.0,219.5,100.5,224.5,96.5,226.5,92.5,227.0,92.5,230.0,88.5,230.0,84.0,230.5,83.0,234.0,79.0,234.0" stroke="black" stroke-width="1" fill="none" />
<polyline points="79.5,237.0,75.5,237.5,71.5,237.5" stroke="black" stroke-width="1" fill="none" />
<polyline points="73.0,241.5,69.0,241.5,65.0,241.5,61.0,242.5" stroke="black" stroke-width="1" fill="none" />
<polyline points="65.5,244.5,61.5,244.5,57.5,245.0,53.5,246.0" stroke="black" stroke-width="1" fill="none" />
<polyline points="55.0,248.5,57.0,247.0,53.5,247.0,54.0,251.0,54.0,255.0,57.5,258.5,57.5,262.5,60.0,262.5,61.0,260.0,61.0,264.0,61.0,268.0,61.5,272.5,68.0,272.0" stroke="black" stroke-width="1" fill="none" />
<polyline points="61.0,267.5,65.0,269.5,69.0,270.0,73.0,269.5,73.5,266.0,77.5,266.0,81.5,266.0,82.0,263.0,86.0,262.5,86.5,259.5,90.5,259.5,94.5,259.0" stroke="black" stroke-width="1" fill="none" />
<polyline points="93.0,256.5,97.0,255.5" stroke="black" stroke-width="1" fill="none" />
<polyline points="106.5,212.0,102.5,212.0,98.5,212.0,94.5,212.0,90.5,212.0,86.5,212.0,82.5,210.0,83.0,208.0,82.5,204.0,82.5,200.0,82.5,196.0,82.5,192.0,82.5,188.0,80.0,187.0,76.0,187.5,72.0,187.5,68.0,188.5" stroke="black" stroke-width="1" fill="none" />
<polyline points="79.0,184.5,83.0,183.5,87.0,180.0,91.0,179.5,95.0,179.5" stroke="black" stroke-width="1" fill="none" />
<polyline points="93.0,177.5,97.0,176.5,101.0,176.0,101.5,173.0,105.5,172.5,109.5,172.5" stroke="black" stroke-width="1" fill="none" />
<polyline points="107.5,170.0,111.5,169.0,115.5,165.5,119.5,165.0,120.0,161.5,124.0,161.5,128.0,158.0,132.0,158.0,132.5,155.0,136.5,152.0,142.0,150.5" stroke="black" stroke-width="1" fill="none" />
<polyline points="140.0,159.5,144.0,158.5,148.0,158.0,152.0,158.0,156.0,158.0,160.0,158.0,164.0,158.0,165.5,163.5,165.5,167.5,165.5,171.5,165.5,175.5,165.5,179.5,166.0,183.5,166.0,186.5,170.0,187.0,174.0,187.0,178.0,187.0,182.0,187.0,186.0,187.0,190.0,187.0,194.0,187.0,198.0,187.0,202.0,187.0,206.0,187.0,210.0,187.0,214.0,187.0,218.0,187.0,222.0,187.5,227.0,187.0,231.0,187.0,235.0,187.5" stroke="black" stroke-width="1" fill="none" />
<polyline points="245.0,165.0,249.0,165.0,253.0,165.5" stroke="black" stroke-width="1" fill="none" />
<polyline points="251.5,165.5,252.0,168.5,256.0,168.5,260.0,169.0" stroke="black" stroke-width="1" fill="none" />
<polyline points="260.5,168.5,262.5,172.5,261.0,176.0" stroke="black" stroke-width="1" fill="none" />
<polyline points="259.0,170.0,259.0,174.0,259.0,178.0,255.5,182.0,255.5,186.0" stroke="black" stroke-width="1" fill="none" />
<polyline points="186.5,162.0,182.5,161.5,179.0,158.0,175.0,158.0,172.5,157.0,169.0,152.0,167.0,147.0" stroke="black" stroke-width="1" fill="none" />
<polyline points="141.5,161.5,145.5,161.5,149.5,161.5,153.5,161.5,157.5,161.5,161.5,161.5,165.5,161.5,169.0,165.5,169.0,169.5,169.0,173.5,169.0,177.5,169.0,181.5,170.0,183.0,174.0,183.0,178.0,183.0,182.0,183.0,186.0,183.0,190.0,183.0,194.0,183.0,198.0,183.0,202.0,183.0,206.0,183.0,210.0,183.0,214.0,183.0,217.5,179.5,223.0,184.5,223.0,188.5,223.0,192.5,223.0,196.5,223.0,200.5,223.0,204.5,223.0,210.0" stroke="black" stroke-width="1" fill="none" />
<polyline points="139.5,209.0,140.0,213.0,140.5,217.0,140.5,221.0,140.5,225.0,140.5,229.0,140.5,233.0,140.5,237.0,140.5,241.0,140.5,245.0,140.5,249.0,140.5,253.0,140.0,257.0" stroke="black" stroke-width="1" fill="none" />
<polyline points="137.5,183.0,133.5,183.0,129.5,183.0,125.5,183.0,121.5,183.0,117.5,183.0,113.5,183.0,109.5,183.0,105.5,183.0,101.5,183.0,97.5,183.0,93.5,183.0,89.5,181.0" stroke="black" stroke-width="1" fill="none" />
<polyline points="86.0,188.0,86.0,192.0,86.0,196.0,86.0,200.0,86.0,204.0,83.0,208.0,87.0,208.5,91.0,208.5,95.0,208.5,99.0,208.5,103.0,208.5,107.0,208.5,111.0,208.5,115.0,208.5,119.0,208.5,123.0,208.5,127.0,208.5,131.0,208.5,135.0,208.5,139.0,208.5" stroke="black" stroke-width="1" fill="none" />
<polyline points="139.5,187.0,135.5,187.0,131.5,187.0,127.5,187.0,123.5,187.0,119.5,187.0,115.5,187.0,111.5,187.0,107.5,187.0,103.5,187.0,99.5,187.0,95.5,187.0,91.5,187.0,87.5,187.0,83.5,187.0" stroke="black" stroke-width="1" fill="none" />
<polyline points="73.0,162.0,69.0,162.0,65.0,162.0,61.0,163.0" stroke="black" stroke-width="1" fill="none" />
<polyline points="71.5,158.5,75.5,158.5,79.5,158.0,79.5,155.0,83.5,155.0,87.5,154.5,88.0,151.0,92.0,150.5,96.0,150.5" stroke="black" stroke-width="1" fill="none" />
<polyline points="93.0,148.5,97.0,147.5,101.0,147.0" stroke="black" stroke-width="1" fill="none" />
<polyline points="66.0,165.0,62.0,165.0,58.0,165.5,54.0,165.5,50.0,166.5" stroke="black" stroke-width="1" fill="none" />
<polyline points="47.0,169.0,47.0,173.0,49.5,176.5,50.5,180.5,53.5,180.5,53.5,184.5,53.5,188.5,57.5,189.0,57.0,193.0,59.5,194.0,63.5,194.0" stroke="black" stroke-width="1" fill="none" />
<polyline points="74.5,190.5,70.5,190.5,66.5,190.5,62.5,190.5,58.5,190.5,54.0,186.5" stroke="black" stroke-width="1" fill="none" />
<polyline points="52.0,179.5,50.5,177.5,46.5,174.0" stroke="black" stroke-width="1" fill="none" />
<polyline points="46.5,170.0,50.5,168.5,54.5,168.5" stroke="black" stroke-width="1" fill="none" />
<polyline points="140.5,161.5,140.5,165.5,140.5,169.5,140.5,173.5,140.5,177.5,140.5,181.5,140.0,185.5" stroke="black" stroke-width="1" fill="none" />
</svg>