<svg xmlns="http://www.w3.org/2000/svg" height="504px" width="279px" version="1.1"><polyline points="0.0,2.25,279.0,2.25" stroke="black" stroke-width="1" fill="none" />
<polyline points="162.0,0.0,0.0,162.0" stroke="black" stroke-width="1" fill="none" />
<polyline points="0.0,159.75,81.0,159.75" stroke="black" stroke-width="1" fill="none" />
<polyline points="162.0,162.0,0.0,324.0" stroke="black" stroke-width="1" fill="none" />
<polyline points="0.0,321.75,81.0,321.75" stroke="black" stroke-width="1" fill="none" />
<polyline points="162.0,324.0,0.0,486.0" stroke="black" stroke-width="1" fill="none" />
<polyline points="0.0,483.75,81.0,483.75" stroke="black" stroke-width="1" fill="none" />
<polyline points="153.0,504.0,162.0,495.0" stroke="black" stroke-width="1" fill="none" />
<polyline points="162.0,486.0,144.0,504.0" stroke="black" stroke-width="1" fill="none" />
<polyline points="135.0,504.0,162.0,477.0" stroke="black" stroke-width="1" fill="none" />
<polyline points="162.0,468.0,126.0,504.0" stroke="black" stroke-width="1" fill="none" />
<polyline points="117.0,504.0,162.0,459.0" stroke="black" stroke-width="1" fill="none" />
<polyline points="162.0,450.0,108.0,504.0" stroke="black" stroke-width="1" fill="none" />
<polyline points="99.0,504.0,162.0,441.0" stroke="black" stroke-width="1" fill="none" />
<polyline points="162.0,432.0,90.0,504.0" stroke="black" stroke-width="1" fill="none" />
<polyline points="81.0,504.0,162.0,423.0" stroke="black" stroke-width="1" fill="none" />
<polyline points="162.0,414.0,72.0,504.0" stroke="black" stroke-width="1" fill="none" />
<polyline points="63.0,504.0,162.0,405.0" stroke="black" stroke-width="1" fill="none" />
<polyline points="162.0,396.0,54.0,504.0" stroke="black" stroke-width="1" fill="none" />
<polyline points="45.0,504.0,162.0,387.0" stroke="black" stroke-width="1" fill="none" />
<polyline points="162.0,378.0,36.0,504.0" stroke="black" stroke-width="1" fill="none" />
<polyline points="27.0,504.0,162.0,369.0" stroke="black" stroke-width="1" fill="none" />
<polyline points="162.0,360.0,18.0,504.0" stroke="black" stroke-width="1" fill="none" />
<polyline points="9.0,504.0,162.0,351.0" stroke="black" stroke-width="1" fill="none" />
<polyline points="162.0,342.0,0.0,504.0" stroke="black" stroke-width="1" fill="none" />
<polyline points="0.0,501.75,81.0,501.75" stroke="black" stroke-width="1" fill="none" />
<polyline points="0.0,497.25,279.0,497.25" stroke="black" stroke-width="1" fill="none" />
<polyline points="162.0,333.0,0.0,495.0" stroke="black" stroke-width="1" fill="none" />
<polyline points="0.0,492.75,81.0,492.75" stroke="black" stroke-width="1" fill="none" />
<polyline points="0.0,488.25,279.0,488.25" stroke="black" stroke-width="1" fill="none" />
<polyline points="162.0,315.0,0.0,477.0" stroke="black" stroke-width="1" fill="none" />
<polyline points="0.0,474.75,81.0,474.75" stroke="black" stroke-width="1" fill="none" />
<polyline points="0.0,470.25,279.0,470.25" stroke="black" stroke-width="1" fill="none" />
<polyline points="162.0,306.0,0.0,468.0" stroke="black" stroke-width="1" fill="none" />
<polyline points="0.0,465.75,81.0,465.75" stroke="black" stroke-width="1" fill="none" />
<polyline points="0.0,461.25,279.0,461.25" stroke="black" stroke-width="1" fill="none" />
<polyline points="162.0,297.0,0.0,459.0" stroke="black" stroke-width="1" fill="none" />
<polyline points="0.0,456.75,81.0,456.75" stroke="black" stroke-width="1" fill="none" />
<polyline points="0.0,452.25,279.0,452.25" stroke="black" stroke-width="1" fill="none" />
<polyline points="162.0,288.0,0.0,450.0" stroke="black" stroke-width="1" fill="none" />
<polyline points="0.0,447.75,81.0,447.75" stroke="black" stroke-width="1" fill="none" />
<polyline points="0.0,443.25,279.0,443.25" stroke="black" stroke-width="1" fill="none" />
<polyline points="162.0,279.0,0.0,441.0" stroke="black" stroke-width="1" fill="none" />
<polyline points="0.0,438.75,81.0,438.75" stroke="black" stroke-width="1" fill="none" />
<polyline points="0.0,434.25,279.0,434.25" stroke="black" stroke-width="1" fill="none" />
<polyline points="162.0,270.0,0.0,432.0" stroke="black" stroke-width="1" fill="none" />
<polyline points="0.0,429.75,81.0,429.75" stroke="black" stroke-width="1" fill="none" />
<polyline points="0.0,425.25,279.0,425.25" stroke="black" stroke-width="1" fill="none" />
<polyline points="162.0,261.0,0.0,423.0" stroke="black" stroke-width="1" fill="none" />
<polyline points="0.0,420.75,81.0,420.75" stroke="black" stroke-width="1" fill="none" />
<polyline points="0.0,416.25,279.0,416.25" stroke="black" stroke-width="1" fill="none" />
<polyline points="162.0,252.0,0.0,414.0" stroke="black" stroke-width="1" fill="none" />
<polyline points="0.0,411.75,81.0,411.75" stroke="black" stroke-width="1" fill="none" />
<polyline points="0.0,407.25,279.0,407.25" stroke="black" stroke-width="1" fill="none" />
<polyline points="162.0,243.0,0.0,405.0" stroke="black" stroke-width="1" fill="none" />
<polyline points="0.0,402.75,81.0,402.75" stroke="black" stroke-width="1" fill="none" />
<polyline points="0.0,398.25,279.0,398.25" stroke="black" stroke-width="1" fill="none" />
<polyline points="162.0,234.0,0.0,396.0" stroke="black" stroke-width="1" fill="none" />
<polyline points="0.0,393.75,81.0,393.75" stroke="black" stroke-width="1" fill="none" />
<polyline points="0.0,389.25,279.0,389.25" stroke="black" stroke-width="1" fill="none" />
<polyline points="162.0,225.0,0.0,387.0" stroke="black" stroke-width="1" fill="none" />
<polyline points="0.0,384.75,81.0,384.75" stroke="black" stroke-width="1" fill="none" />
<polyline points="0.0,380.25,279.0,380.25" stroke="black" stroke-width="1" fill="none" />
<polyline points="162.0,216.0,0.0,378.0" stroke="black" stroke-width="1" fill="none" />
<polyline points="0.0,375.75,81.0,375.75" stroke="black" stroke-width="1" fill="none" />
<polyline points="0.0,371.25,279.0,371.25" stroke="black" stroke-width="1" fill="none" />
<polyline points="162.0,207.0,0.0,369.0" stroke="black" stroke-width="1" fill="none" />
<polyline points="0.0,366.75,81.0,366.75" stroke="black" stroke-width="1" fill="none" />
<polyline points="0.0,362.25,279.0,362.25" stroke="black" stroke-width="1" fill="none" />
<polyline points="162.0,198.0,0.0,360.0" stroke="black" stroke-width="1" fill="none" />
<polyline points="0.0,357.75,81.0,357.75" stroke="black" stroke-width="1" fill="none" />
<polyline points="0.0,353.25,279.0,353.25" stroke="black" stroke-width="1" fill="none" />
<polyline points="162.0,189.0,0.0,351.0" stroke="black" stroke-width="1" fill="none" />
<polyline points="0.0,348.75,81.0,348.75" stroke="black" stroke-width="1" fill="none" />
<polyline points="0.0,344.25,279.0,344.25" stroke="black" stroke-width="1" fill="none" />
<polyline points="162.0,180.0,0.0,342.0" stroke="black" stroke-width="1" fill="none" />
<polyline points="0.0,339.75,81.0,339.75" stroke="black" stroke-width="1" fill="none" />
<polyline points="0.0,335.25,279.0,335.25" stroke="black" stroke-width="1" fill="none" />
<polyline points="162.0,171.0,0.0,333.0" stroke="black" stroke-width="1" fill="none" />
<polyline points="0.0,330.75,81.0,330.75" stroke="black" stroke-width="1" fill="none" />
<polyline points="0.0,326.25,279.0,326.25" stroke="black" stroke-width="1" fill="none" />
<polyline points="162.0,153.0,0.0,315.0" stroke="black" stroke-width="1" fill="none" />
<polyline points="0.0,312.75,81.0,312.75" stroke="black" stroke-width="1" fill="none" />
<polyline points="0.0,308.25,279.0,308.25" stroke="black" stroke-width="1" fill="none" />
<polyline points="162.0,144.0,0.0,306.0" stroke="black" stroke-width="1" fill="none" />
<polyline points="0.0,303.75,81.0,303.75" stroke="black" stroke-width="1" fill="none" />
<polyline points="0.0,299.25,279.0,299.25" stroke="black" stroke-width="1" fill="none" />
<polyline points="162.0,135.0,0.0,297.0" stroke="black" stroke-width="1" fill="none" />
<polyline points="0.0,294.75,81.0,294.75" stroke="black" stroke-width="1" fill="none" />
<polyline points="0.0,290.25,279.0,290.25" stroke="black" stroke-width="1" fill="none" />
<polyline points="162.0,126.0,0.0,288.0" stroke="black" stroke-width="1" fill="none" />
<polyline points="0.0,285.75,81.0,285.75" stroke="black" stroke-width="1" fill="none" />
<polyline points="0.0,281.25,279.0,281.25" stroke="black" stroke-width="1" fill="none" />
<polyline points="162.0,117.0,0.0,279.0" stroke="black" stroke-width="1" fill="none" />
<polyline points="0.0,276.75,81.0,276.75" stroke="black" stroke-width="1" fill="none" />
<polyline points="0.0,272.25,279.0,272.25" stroke="black" stroke-width="1" fill="none" />
<polyline points="162.0,108.0,0.0,270.0" stroke="black" stroke-width="1" fill="none" />
<polyline points="0.0,267.75,81.0,267.75" stroke="black" stroke-width="1" fill="none" />
<polyline points="0.0,263.25,279.0,263.25" stroke="black" stroke-width="1" fill="none" />
<polyline points="162.0,99.0,0.0,261.0" stroke="black" stroke-width="1" fill="none" />
<polyline points="0.0,258.75,81.0,258.75" stroke="black" stroke-width="1" fill="none" />
<polyline points="0.0,254.25,279.0,254.25" stroke="black" stroke-width="1" fill="none" />
<polyline points="162.0,90.0,0.0,252.0" stroke="black" stroke-width="1" fill="none" />
<polyline points="0.0,249.75,81.0,249.75" stroke="black" stroke-width="1" fill="none" />
<polyline points="0.0,245.25,279.0,245.25" stroke="black" stroke-width="1" fill="none" />
<polyline points="162.0,81.0,0.0,243.0" stroke="black" stroke-width="1" fill="none" />
<polyline points="0.0,240.75,81.0,240.75" stroke="black" stroke-width="1" fill="none" />
<polyline points="0.0,236.25,279.0,236.25" stroke="black" stroke-width="1" fill="none" />
<polyline points="162.0,72.0,0.0,234.0" stroke="black" stroke-width="1" fill="none" />
<polyline points="0.0,231.75,81.0,231.75" stroke="black" stroke-width="1" fill="none" />
<polyline points="0.0,227.25,279.0,227.25" stroke="black" stroke-width="1" fill="none" />
<polyline points="162.0,63.0,0.0,225.0" stroke="black" stroke-width="1" fill="none" />
<polyline points="0.0,222.75,81.0,222.75" stroke="black" stroke-width="1" fill="none" />
<polyline points="0.0,218.25,279.0,218.25" stroke="black" stroke-width="1" fill="none" />
<polyline points="162.0,54.0,0.0,216.0" stroke="black" stroke-width="1" fill="none" />
<polyline points="0.0,213.75,81.0,213.75" stroke="black" stroke-width="1" fill="none" />
<polyline points="0.0,209.25,279.0,209.25" stroke="black" stroke-width="1" fill="none" />
<polyline points="162.0,45.0,0.0,207.0" stroke="black" stroke-width="1" fill="none" />
<polyline points="0.0,204.75,81.0,204.75" stroke="black" stroke-width="1" fill="none" />
<polyline points="0.0,200.25,279.0,200.25" stroke="black" stroke-width="1" fill="none" />
<polyline points="162.0,36.0,0.0,198.0" stroke="black" stroke-width="1" fill="none" />
<polyline points="0.0,195.75,81.0,195.75" stroke="black" stroke-width="1" fill="none" />
<polyline points="0.0,191.25,279.0,191.25" stroke="black" stroke-width="1" fill="none" />
<polyline points="162.0,27.0,0.0,189.0" stroke="black" stroke-width="1" fill="none" />
<polyline points="0.0,186.75,81.0,186.75" stroke="black" stroke-width="1" fill="none" />
<polyline points="0.0,182.25,279.0,182.25" stroke="black" stroke-width="1" fill="none" />
<polyline points="162.0,18.0,0.0,180.0" stroke="black" stroke-width="1" fill="none" />
<polyline points="0.0,177.75,81.0,177.75" stroke="black" stroke-width="1" fill="none" />
<polyline points="0.0,173.25,279.0,173.25" stroke="black" stroke-width="1" fill="none" />
<polyline points="162.0,9.0,0.0,171.0" stroke="black" stroke-width="1" fill="none" />
<polyline points="0.0,168.75,81.0,168.75" stroke="black" stroke-width="1" fill="none" />
<polyline points="0.0,164.25,279.0,164.25" stroke="black" stroke-width="1" fill="none" />
<polyline points="153.0,0.0,0.0,153.0" stroke="black" stroke-width="1" fill="none" />
<polyline points="0.0,150.75,81.0,150.75" stroke="black" stroke-width="1" fill="none" />
<polyline points="0.0,146.25,279.0,146.25" stroke="black" stroke-width="1" fill="none" />
<polyline points="144.0,0.0,0.0,144.0" stroke="black" stroke-width="1" fill="none" />
<polyline points="0.0,141.75,81.0,141.75" stroke="black" stroke-width="1" fill="none" />
<polyline points="0.0,137.25,279.0,137.25" stroke="black" stroke-width="1" fill="none" />
<polyline points="135.0,0.0,0.0,135.0" stroke="black" stroke-width="1" fill="none" />
<polyline points="0.0,132.75,81.0,132.75" stroke="black" stroke-width="1" fill="none" />
<polyline points="0.0,128.25,279.0,128.25" stroke="black" stroke-width="1" fill="none" />
<polyline points="126.0,0.0,0.0,126.0" stroke="black" stroke-width="1" fill="none" />
<polyline points="0.0,123.75,81.0,123.75" stroke="black" stroke-width="1" fill="none" />
<polyline points="0.0,119.25,279.0,119.25" stroke="black" stroke-width="1" fill="none" />
<polyline points="117.0,0.0,0.0,117.0" stroke="black" stroke-width="1" fill="none" />
<polyline points="0.0,114.75,81.0,114.75" stroke="black" stroke-width="1" fill="none" />
<polyline points="0.0,110.25,279.0,110.25" stroke="black" stroke-width="1" fill="none" />
<polyline points="108.0,0.0,0.0,108.0" stroke="black" stroke-width="1" fill="none" />
<polyline points="0.0,105.75,81.0,105.75" stroke="black" stroke-width="1" fill="none" />
<polyline points="0.0,101.25,279.0,101.25" stroke="black" stroke-width="1" fill="none" />
<polyline points="99.0,0.0,0.0,99.0" stroke="black" stroke-width="1" fill="none" />
<polyline points="0.0,96.75,81.0,96.75" stroke="black" stroke-width="1" fill="none" />
<polyline points="0.0,92.25,279.0,92.25" stroke="black" stroke-width="1" fill="none" />
<polyline points="90.0,0.0,0.0,90.0" stroke="black" stroke-width="1" fill="none" />
<polyline points="0.0,87.75,81.0,87.75" stroke="black" stroke-width="1" fill="none" />
<polyline points="0.0,83.25,279.0,83.25" stroke="black" stroke-width="1" fill="none" />
<polyline points="81.0,0.0,0.0,81.0" stroke="black" stroke-width="1" fill="none" />
<polyline points="0.0,78.75,81.0,78.75" stroke="black" stroke-width="1" fill="none" />
<polyline points="72.0,0.0,0.0,72.0" stroke="black" stroke-width="1" fill="none" />
<polyline points="0.0,69.75,81.0,69.75" stroke="black" stroke-width="1" fill="none" />
<polyline points="63.0,0.0,0.0,63.0" stroke="black" stroke-width="1" fill="none" />
<polyline points="0.0,60.75,81.0,60.75" stroke="black" stroke-width="1" fill="none" />
<polyline points="54.0,0.0,0.0,54.0" stroke="black" stroke-width="1" fill="none" />
<polyline points="0.0,51.75,81.0,51.75" stroke="black" stroke-width="1" fill="none" />
<polyline points="45.0,0.0,0.0,45.0" stroke="black" stroke-width="1" fill="none" />
<polyline points="0.0,42.75,81.0,42.75" stroke="black" stroke-width="1" fill="none" />
<polyline points="36.0,0.0,0.0,36.0" stroke="black" stroke-width="1" fill="none" />
<polyline points="0.0,33.75,81.0,33.75" stroke="black" stroke-width="1" fill="none" />
<polyline points="27.0,0.0,0.0,27.0" stroke="black" stroke-width="1" fill="none" />
<polyline points="0.0,24.75,81.0,24.75" stroke="black" stroke-width="1" fill="none" />
<polyline points="18.0,0.0,0.0,18.0" stroke="black" stroke-width="1" fill="none" />
<polyline points="0.0,15.75,90.0,15.75" stroke="black" stroke-width="1" fill="none" />
<polyline points="9.0,0.0,0.0,9.0" stroke="black" stroke-width="1" fill="none" />
<polyline points="0.0,6.75,81.0,6.75" stroke="black" stroke-width="1" fill="none" />
<polyline points="0.0,11.25,279.0,11.25" stroke="black" stroke-width="1" fill="none" />
<polyline points="279.0,155.25,0.0,155.25" stroke="black" stroke-width="1" fill="none" />
<polyline points="0.0,74.25,279.0,74.25" stroke="black" stroke-width="1" fill="none" />
<polyline points="279.0,317.25,0.0,317.25" stroke="black" stroke-width="1" fill="none" />
<polyline points="0.0,479.25,279.0,479.25" stroke="black" stroke-width="1" fill="none" />
<polyline points="279.0,65.25,0.0,65.25" stroke="black" stroke-width="1" fill="none" />
<polyline points="0.0,56.25,279.0,56.25" stroke="black" stroke-width="1" fill="none" />
<polyline points="279.0,47.25,0.0,47.25" stroke="black" stroke-width="1" fill="none" />
<polyline points="0.0,38.25,279.0,38.25" stroke="black" stroke-width="1" fill="none" />
<polyline points="279.0,29.25,0.0,29.25" stroke="black" stroke-width="1" fill="none" />
<polyline points="0.0,20.25,279.0,20.25" stroke="black" stroke-width="1" fill="none" />
</svg>