<svg xmlns="http://www.w3.org/2000/svg" height="500px" width="437px" version="1.1"><polyline points="248.93496136116516,0.0,265.56736168939307,0.0" stroke="black" stroke-width="1" fill="none" />
<polyline points="218.35138004883922,4.661522003416779,234.9837803770671,4.661522003416779" stroke="black" stroke-width="1" fill="none" />
<polyline points="218.35138004883922,4.661522003416779,234.9837803770671,4.661522003416779" stroke="black" stroke-width="1" fill="none" />
<polyline points="395.160376218032,7.826097295330977,436.14263933570084,75.77015779788893" stroke="black" stroke-width="1" fill="none" />
<polyline points="436.14263933570084,75.77015779788893,312.66224454535484,88.86876882166362" stroke="black" stroke-width="1" fill="none" />
<polyline points="95.31491105017011,311.7641244127295,127.00904360707435,218.89475089867256" stroke="black" stroke-width="1" fill="none" />
<polyline points="127.00904360707435,218.89475089867256,179.88267339164187,110.74970636179744" stroke="black" stroke-width="1" fill="none" />
<polyline points="312.66224454535484,88.86876882166362,179.88267339164187,110.74970636179744" stroke="black" stroke-width="1" fill="none" />
<polyline points="336.7858755118494,481.3592751577542,341.2373551920572,500.0" stroke="black" stroke-width="1" fill="none" />
<polyline points="341.2373551920572,500.0,330.7661488618144,354.3798845264557" stroke="black" stroke-width="1" fill="none" />
<polyline points="195.87560020693388,482.1733435513386,185.4309991471091,499.08950314702554" stroke="black" stroke-width="1" fill="none" />
<polyline points="185.4309991471091,499.08950314702554,210.0703882673678,346.7007898242616" stroke="black" stroke-width="1" fill="none" />
<polyline points="330.7661488618144,354.3798845264557,210.0703882673678,346.7007898242616" stroke="black" stroke-width="1" fill="none" />
<polyline points="312.66224454535484,88.86876882166362,330.7661488618144,354.3798845264557" stroke="black" stroke-width="1" fill="none" />
<polyline points="179.88267339164187,110.74970636179744,210.0703882673678,346.7007898242616" stroke="black" stroke-width="1" fill="none" />
</svg>