<svg width="100%" height="100%" version="1.1" xmlns="http://www.w3.org/2000/svg"><path d="M 224.5030390520504 58.021709946806794 L 239.5030390520504 58.021709946806794" style="stroke: black; stroke-width: 2px"></path><path d="M 196.9211079638292 62.22572311816976 L 211.9211079638292 62.22572311816976" style="stroke: black; stroke-width: 2px"></path><path d="M 196.9211079638292 62.22572311816976 L 211.9211079638292 62.22572311816976" style="stroke: black; stroke-width: 2px"></path><rect x="181.70199169351898" y="37.71131991969009" width="71.84868791038424" height="71.84868791038424" style="stroke: black; stroke-width: 2px; fill: none"></rect><path d="M 356.37704277780733 65.07970861887654 L 393.3370686690631 126.35534457195594" style="stroke: black; stroke-width: 2px"></path><path d="M 393.3370686690631 126.35534457195594 L 281.975756693443 138.16838186538638" style="stroke: black; stroke-width: 2px"></path><path d="M 85.9601523254632 339.1874932315099 L 114.54363871177347 255.4328591907071" style="stroke: black; stroke-width: 2px"></path><path d="M 114.54363871177347 255.4328591907071 L 162.22794350946924 157.90179716473887" style="stroke: black; stroke-width: 2px"></path><path d="M 281.975756693443 138.16838186538638 L 162.22794350946924 157.90179716473887" style="stroke: black; stroke-width: 2px"></path><path d="M 303.7317544662535 492.1375912914944 L 307.74634008741566 508.9488071783044" style="stroke: black; stroke-width: 2px"></path><path d="M 307.74634008741566 508.9488071783044 L 298.30283873739876 377.6206952403028" style="stroke: black; stroke-width: 2px"></path><path d="M 176.65123163958003 492.8717622868282 L 167.23172436428442 508.12767177240397" style="stroke: black; stroke-width: 2px"></path><path d="M 167.23172436428442 508.12767177240397 L 189.4528607913956 370.6952714734504" style="stroke: black; stroke-width: 2px"></path><path d="M 298.30283873739876 377.6206952403028 L 189.4528607913956 370.6952714734504" style="stroke: black; stroke-width: 2px"></path><path d="M 281.975756693443 138.16838186538638 L 298.30283873739876 377.6206952403028" style="stroke: black; stroke-width: 2px"></path><path d="M 162.22794350946924 157.90179716473887 L 189.4528607913956 370.6952714734504" style="stroke: black; stroke-width: 2px"></path></svg>