<svg xmlns="http://www.w3.org/2000/svg" height="192px" width="440px" version="1.1"><polyline points="128.0,0.0,104.0,24.0,112.0,88.0,112.0,152.0" stroke="black" stroke-width="1" fill="none" />
<polyline points="80.0,184.0,72.0,120.0" stroke="black" stroke-width="1" fill="none" />
<polyline points="64.0,112.0,64.0,176.0" stroke="black" stroke-width="1" fill="none" />
<polyline points="128.0,56.0,136.0,120.0,224.0,128.0,288.0,120.0" stroke="black" stroke-width="1" fill="none" />
<polyline points="360.0,168.0,320.0,152.0,280.0,168.0,216.0,160.0,192.0,192.0,176.0,144.0,160.0,56.0,128.0,56.0" stroke="black" stroke-width="1" fill="none" />
<polyline points="128.0,8.0,192.0,16.0,256.0,8.0" stroke="black" stroke-width="1" fill="none" />
<polyline points="408.0,0.0,408.0,64.0,408.0,128.0,440.0,160.0" stroke="black" stroke-width="1" fill="none" />
<polyline points="344.0,152.0,344.0,96.0,368.0,64.0,368.0,0.0,312.0,56.0,288.0,48.0,224.0,80.0,160.0,96.0,136.0,160.0,32.0,176.0,8.0,160.0,24.0,96.0,8.0,32.0,0.0,32.0" stroke="black" stroke-width="1" fill="none" />
</svg>