<svg xmlns="http://www.w3.org/2000/svg" height="270px" width="475px" version="1.1"><polyline points="55.0,0.0,90.0,40.0,75.0,85.0,70.0,135.0,110.0,135.0,150.0,135.0,190.0,135.0,230.0,135.0,245.0,150.0,265.0,100.0,305.0,130.0" stroke="black" stroke-width="1" fill="none" />
<polyline points="295.0,155.0,255.0,160.0,215.0,145.0" stroke="black" stroke-width="1" fill="none" />
<polyline points="235.0,205.0,185.0,240.0,170.0,260.0,165.0,230.0,195.0,245.0,160.0,230.0,175.0,205.0,215.0,145.0,265.0,105.0,255.0,65.0,240.0,50.0" stroke="black" stroke-width="1" fill="none" />
<polyline points="255.0,45.0,295.0,55.0,290.0,90.0,300.0,130.0,335.0,145.0,335.0,185.0,340.0,230.0,345.0,270.0" stroke="black" stroke-width="1" fill="none" />
<polyline points="170.0,210.0,130.0,235.0" stroke="black" stroke-width="1" fill="none" />
<polyline points="140.0,120.0,100.0,120.0" stroke="black" stroke-width="1" fill="none" />
<polyline points="100.0,20.0,140.0,15.0,180.0,15.0,220.0,15.0,260.0,15.0,300.0,5.0,315.0,15.0" stroke="black" stroke-width="1" fill="none" />
<polyline points="360.0,0.0,360.0,40.0,375.0,55.0,395.0,80.0,405.0,120.0,435.0,125.0,475.0,120.0" stroke="black" stroke-width="1" fill="none" />
<polyline points="325.0,240.0,325.0,200.0,320.0,160.0,330.0,120.0,325.0,80.0,330.0,30.0,290.0,40.0,250.0,35.0,210.0,45.0,170.0,55.0,130.0,50.0,90.0,35.0,50.0,10.0" stroke="black" stroke-width="1" fill="none" />
<polyline points="60.0,35.0,0.0,40.0" stroke="black" stroke-width="1" fill="none" />
<polyline points="0.0,55.0,40.0,35.0,40.0,75.0,50.0,115.0,55.0,155.0,20.0,175.0" stroke="black" stroke-width="1" fill="none" />
<polyline points="5.0,165.0,10.0,125.0,5.0,85.0" stroke="black" stroke-width="1" fill="none" />
</svg>