<svg xmlns="http://www.w3.org/2000/svg" height="275px" width="450px" version="1.1"><polyline points="418.5,0.0,423.0,36.0,427.5,72.0,432.0,108.0,436.5,144.0,445.5,180.0,450.0,216.0" stroke="black" stroke-width="1" fill="none" />
<polyline points="427.5,252.0,423.0,216.0,409.5,180.0" stroke="black" stroke-width="1" fill="none" />
<polyline points="409.5,175.5,400.5,211.5,400.5,247.5" stroke="black" stroke-width="1" fill="none" />
<polyline points="373.5,265.5,360.0,229.5,364.5,193.5,364.5,148.5,319.5,162.0,351.0,126.0,373.5,90.0,391.5,54.0,396.0,18.0,396.0,18.0" stroke="black" stroke-width="1" fill="none" />
<polyline points="378.0,63.0,342.0,63.0" stroke="black" stroke-width="1" fill="none" />
<polyline points="355.5,90.0,328.5,117.0,337.5,112.5,337.5,76.5,288.0,72.0,252.0,72.0" stroke="black" stroke-width="1" fill="none" />
<polyline points="270.0,144.0,306.0,139.5,279.0,193.5,319.5,247.5" stroke="black" stroke-width="1" fill="none" />
<polyline points="243.0,243.0,207.0,238.5" stroke="black" stroke-width="1" fill="none" />
<polyline points="148.5,148.5,184.5,166.5,211.5,180.0,234.0,193.5,297.0,189.0,333.0,166.5,360.0,157.5,396.0,175.5,400.5,166.5" stroke="black" stroke-width="1" fill="none" />
<polyline points="409.5,162.0,387.0,198.0,391.5,234.0" stroke="black" stroke-width="1" fill="none" />
<polyline points="324.0,220.5,283.5,252.0,247.5,252.0,211.5,252.0,175.5,252.0,175.5,216.0,216.0,175.5,180.0,153.0,166.5,126.0" stroke="black" stroke-width="1" fill="none" />
<polyline points="162.0,112.5,198.0,117.0,220.5,130.5,225.0,117.0,261.0,112.5,297.0,108.0" stroke="black" stroke-width="1" fill="none" />
<polyline points="346.5,175.5,315.0,180.0,310.5,216.0,337.5,225.0" stroke="black" stroke-width="1" fill="none" />
<polyline points="378.0,130.5,342.0,144.0,315.0,166.5,279.0,175.5,252.0,175.5,216.0,171.0,180.0,148.5,144.0,144.0" stroke="black" stroke-width="1" fill="none" />
<polyline points="148.5,135.0,153.0,171.0,157.5,207.0,148.5,265.5,184.5,265.5,220.5,265.5,256.5,265.5,292.5,270.0,328.5,274.5" stroke="black" stroke-width="1" fill="none" />
<polyline points="369.0,256.5,324.0,247.5,288.0,229.5,252.0,220.5,216.0,225.0,180.0,229.5,144.0,252.0,130.5,270.0,130.5,234.0,135.0,198.0,135.0,162.0,130.5,126.0,135.0,90.0,135.0,85.5" stroke="black" stroke-width="1" fill="none" />
<polyline points="54.0,108.0,54.0,144.0,54.0,180.0,22.5,216.0,36.0,252.0,54.0,261.0" stroke="black" stroke-width="1" fill="none" />
<polyline points="36.0,252.0,54.0,229.5,36.0,202.5,0.0,207.0" stroke="black" stroke-width="1" fill="none" />
<polyline points="0.0,166.5,36.0,162.0" stroke="black" stroke-width="1" fill="none" />
</svg>